SplineFontDB: 3.0
FontName: Asap-Italic
FullName: Asap-Italic
FamilyName: Asap
Weight: Regular
Copyright: Copyright (c) 2011-2013, Omnibus-Type (www.omnibus-type.com omnibus.type@gmail.com) with Reserved Font Name 'Asap'

StartChar: .notdef
Encoding: 65536 -1 0
Width: 515
Flags: MW
HStem: 0 50<65 405 65 480> 650 50<128 468 128 128>
VStem: -20 574
LayerCount: 2
UndoRedoHistory
Layer: 1
Undoes
EndUndoes
Redoes
EndRedoes
EndUndoRedoHistory
Fore
SplineSet
54 700 m 1,0,-1
 554 700 l 1,1,-1
 480 0 l 1,2,-1
 -20 0 l 1,3,-1
 54 700 l 1,0,-1
468 650 m 1,4,-1
 128 650 l 1,5,-1
 272 395 l 1,6,-1
 468 650 l 1,4,-1
405 50 m 1,7,-1
 261 305 l 1,8,-1
 65 50 l 1,9,-1
 405 50 l 1,7,-1
39 95 m 1,10,-1
 237 350 l 1,11,-1
 93 605 l 1,12,-1
 39 95 l 1,10,-1
439 95 m 1,13,-1
 493 605 l 1,14,-1
 297 350 l 1,15,-1
 439 95 l 1,13,-1
EndSplineSet
Validated: 1
EndChar

StartChar: A
Encoding: 65 65 1
Width: 613
Flags: MW
HStem: -2 21G<4 18 18 23 503 513 513 521> 178 76<174 413 174 432 138 413> 610 92<332 332 332 334> 682 20G<328 357 357 367>
VStem: -23 588<12.5 16>
LayerCount: 2
UndoRedoHistory
Layer: 1
Undoes
EndUndoes
Redoes
EndRedoes
EndUndoRedoHistory
Fore
SplineSet
357 702 m 2,0,1
 392 702 392 702 396 686 c 2,2,-1
 564 28 l 2,3,4
 565 24 565 24 565 18 c 0,5,6
 565 -2 565 -2 521 -2 c 2,7,-1
 513 -2 l 2,8,9
 478 -2 478 -2 474 14 c 2,10,-1
 432 178 l 1,11,-1
 138 178 l 1,12,-1
 64 14 l 2,13,14
 57 -2 57 -2 23 -2 c 2,15,-1
 18 -2 l 2,16,17
 -23 -2 -23 -2 -23 14 c 0,18,19
 -23 19 -23 19 -18 29 c 2,20,-1
 287 686 l 2,21,22
 294 702 294 702 328 702 c 2,23,-1
 357 702 l 2,0,1
332 610 m 1,24,25
 320 573 320 573 311 552 c 2,26,-1
 174 254 l 1,27,-1
 413 254 l 1,28,-1
 340 552 l 2,29,30
 334 575 334 575 334 610 c 1,31,-1
 332 610 l 1,24,25
EndSplineSet
Validated: 1
Substitution2: "Single Substitution lookup 21 subtable" ordfeminine
Substitution2: "'aalt' Access All Alternates lookup 0 subtable" ordfeminine
Position2: "'cpsp' Capital Spacing lookup 3 subtable" dx=5 dy=0 dh=10 dv=0
EndChar

StartChar: Aacute
Encoding: 193 193 2
Width: 613
Flags: MW
HStem: -2 21G<4 18 18 23 503 513 513 521> 178 76<174 413 174 432 138 413> 610 92<332 332 332 334> 682 20G<328 357 357 367>
VStem: -23 588<12.5 16>
LayerCount: 2
UndoRedoHistory
Layer: 1
Undoes
EndUndoes
Redoes
EndRedoes
EndUndoRedoHistory
Fore
SplineSet
438 909 m 128,-1,1
 485 909 485 909 485 897 c 0,2,3
 485 888 485 888 420 821 c 0,4,5
 395 796 395 796 379 780 c 0,6,7
 361 762 361 762 326 762 c 0,8,9
 304 762 304 762 304 771 c 0,10,11
 304 783 304 783 373 883 c 0,12,0
 391 909 391 909 438 909 c 128,-1,1
357 702 m 2,13,14
 392 702 392 702 396 686 c 2,15,-1
 564 28 l 2,16,17
 565 24 565 24 565 18 c 0,18,19
 565 -2 565 -2 521 -2 c 2,20,-1
 513 -2 l 2,21,22
 478 -2 478 -2 474 14 c 2,23,-1
 432 178 l 1,24,-1
 138 178 l 1,25,-1
 64 14 l 2,26,27
 57 -2 57 -2 23 -2 c 2,28,-1
 18 -2 l 2,29,30
 -23 -2 -23 -2 -23 14 c 0,31,32
 -23 19 -23 19 -18 29 c 2,33,-1
 287 686 l 2,34,35
 294 702 294 702 328 702 c 2,36,-1
 357 702 l 2,13,14
332 610 m 1,37,38
 320 573 320 573 311 552 c 2,39,-1
 174 254 l 1,40,-1
 413 254 l 1,41,-1
 340 552 l 2,42,43
 334 575 334 575 334 610 c 1,44,-1
 332 610 l 1,37,38
EndSplineSet
Validated: 1
Position2: "'cpsp' Capital Spacing lookup 3 subtable" dx=5 dy=0 dh=10 dv=0
EndChar

StartChar: Abreve
Encoding: 258 258 3
Width: 613
Flags: MW
HStem: -2 21G<4 18 18 23 503 513 513 521> 178 76<174 413 174 432 138 413> 610 92<332 332 332 334> 682 20G<328 357 357 367> 762 66<329.5 378 329.5 380.5>
VStem: -23 588<12.5 16>
LayerCount: 2
UndoRedoHistory
Layer: 1
Undoes
EndUndoes
Redoes
EndRedoes
EndUndoRedoHistory
Fore
SplineSet
489 892 m 0,0,1
 503 892 503 892 503 880 c 0,2,3
 503 825 503 825 453.5 793.5 c 128,-1,4
 404 762 404 762 347 762 c 0,5,6
 292 762 292 762 252.5 789 c 128,-1,7
 213 816 213 816 213 865 c 0,8,9
 213 892 213 892 230 892 c 0,10,11
 236 892 236 892 239.5 890 c 128,-1,12
 243 888 243 888 244 885.5 c 128,-1,13
 245 883 245 883 246.5 877 c 128,-1,14
 248 871 248 871 250 867 c 0,15,16
 267 828 267 828 354 828 c 0,17,18
 440 828 440 828 465 867 c 0,19,20
 468 872 468 872 471 880 c 128,-1,21
 474 888 474 888 477.5 890 c 128,-1,22
 481 892 481 892 489 892 c 0,0,1
357 702 m 2,23,24
 392 702 392 702 396 686 c 2,25,-1
 564 28 l 2,26,27
 565 24 565 24 565 18 c 0,28,29
 565 -2 565 -2 521 -2 c 2,30,-1
 513 -2 l 2,31,32
 478 -2 478 -2 474 14 c 2,33,-1
 432 178 l 1,34,-1
 138 178 l 1,35,-1
 64 14 l 2,36,37
 57 -2 57 -2 23 -2 c 2,38,-1
 18 -2 l 2,39,40
 -23 -2 -23 -2 -23 14 c 0,41,42
 -23 19 -23 19 -18 29 c 2,43,-1
 287 686 l 2,44,45
 294 702 294 702 328 702 c 2,46,-1
 357 702 l 2,23,24
332 610 m 1,47,48
 320 573 320 573 311 552 c 2,49,-1
 174 254 l 1,50,-1
 413 254 l 1,51,-1
 340 552 l 2,52,53
 334 575 334 575 334 610 c 1,54,-1
 332 610 l 1,47,48
EndSplineSet
Validated: 1
Position2: "'cpsp' Capital Spacing lookup 3 subtable" dx=5 dy=0 dh=10 dv=0
EndChar

StartChar: Abreveacute
Encoding: 7854 7854 4
Width: 613
Flags: MW
HStem: -2 21G<4 18 18 23 503 513 513 521> 178 76<174 413 174 432 138 413> 610 92<332 332 332 334> 682 20G<328 357 357 367> 761 53<328.5 377 328.5 379.5>
VStem: -23 588<12.5 16>
LayerCount: 2
UndoRedoHistory
Layer: 1
Undoes
EndUndoes
Redoes
EndRedoes
EndUndoRedoHistory
Fore
SplineSet
357 702 m 2,0,1
 392 702 392 702 396 686 c 2,2,-1
 564 28 l 2,3,4
 565 24 565 24 565 18 c 0,5,6
 565 -2 565 -2 521 -2 c 2,7,-1
 513 -2 l 2,8,9
 478 -2 478 -2 474 14 c 2,10,-1
 432 178 l 1,11,-1
 138 178 l 1,12,-1
 64 14 l 2,13,14
 57 -2 57 -2 23 -2 c 2,15,-1
 18 -2 l 2,16,17
 -23 -2 -23 -2 -23 14 c 0,18,19
 -23 19 -23 19 -18 29 c 2,20,-1
 287 686 l 2,21,22
 294 702 294 702 328 702 c 2,23,-1
 357 702 l 2,0,1
332 610 m 1,24,25
 320 573 320 573 311 552 c 2,26,-1
 174 254 l 1,27,-1
 413 254 l 1,28,-1
 340 552 l 2,29,30
 334 575 334 575 334 610 c 1,31,-1
 332 610 l 1,24,25
445 989 m 0,32,33
 477 989 477 989 477 977 c 0,34,35
 477 971 477 971 385 870 c 1,36,37
 370 852 370 852 347 852 c 0,38,39
 325 852 325 852 325 861 c 0,40,41
 325 875 325 875 380 963 c 0,42,43
 396 989 396 989 445 989 c 0,32,33
488 883 m 0,44,45
 502 883 502 883 502 871 c 0,46,47
 502 822 502 822 452 791.5 c 128,-1,48
 402 761 402 761 346 761 c 0,49,50
 291 761 291 761 251.5 786.5 c 128,-1,51
 212 812 212 812 212 856 c 0,52,53
 212 883 212 883 229 883 c 0,54,55
 237 883 237 883 239.5 880.5 c 128,-1,56
 242 878 242 878 244 870.5 c 128,-1,57
 246 863 246 863 249 858 c 0,58,59
 258 841 258 841 288 827.5 c 128,-1,60
 318 814 318 814 353 814 c 0,61,62
 386 814 386 814 420 829 c 128,-1,63
 454 844 454 844 464 858 c 0,64,65
 467 863 467 863 469.5 868.5 c 128,-1,66
 472 874 472 874 473.5 876.5 c 128,-1,67
 475 879 475 879 478.5 881 c 128,-1,68
 482 883 482 883 488 883 c 0,44,45
EndSplineSet
Validated: 1
Position2: "'cpsp' Capital Spacing lookup 3 subtable" dx=5 dy=0 dh=10 dv=0
EndChar

StartChar: Abrevedotbelow
Encoding: 7862 7862 5
Width: 613
Flags: MW
HStem: -175 95<255 273> -2 21G<4 18 18 23 503 513 513 521> 178 76<174 413 174 432 138 413> 610 92<332 332 332 334> 682 20G<328 357 357 367> 762 66<329.5 378 329.5 380.5>
VStem: 220 89<-160 -95>
LayerCount: 2
UndoRedoHistory
Layer: 1
Undoes
EndUndoes
Redoes
EndRedoes
EndUndoRedoHistory
Fore
SplineSet
357 702 m 2,0,1
 392 702 392 702 396 686 c 2,2,-1
 564 28 l 2,3,4
 565 24 565 24 565 18 c 0,5,6
 565 -2 565 -2 521 -2 c 2,7,-1
 513 -2 l 2,8,9
 478 -2 478 -2 474 14 c 2,10,-1
 432 178 l 1,11,-1
 138 178 l 1,12,-1
 64 14 l 2,13,14
 57 -2 57 -2 23 -2 c 2,15,-1
 18 -2 l 2,16,17
 -23 -2 -23 -2 -23 14 c 0,18,19
 -23 19 -23 19 -18 29 c 2,20,-1
 287 686 l 2,21,22
 294 702 294 702 328 702 c 2,23,-1
 357 702 l 2,0,1
332 610 m 1,24,25
 320 573 320 573 311 552 c 2,26,-1
 174 254 l 1,27,-1
 413 254 l 1,28,-1
 340 552 l 2,29,30
 334 575 334 575 334 610 c 1,31,-1
 332 610 l 1,24,25
489 892 m 0,32,33
 503 892 503 892 503 880 c 0,34,35
 503 825 503 825 453.5 793.5 c 128,-1,36
 404 762 404 762 347 762 c 0,37,38
 292 762 292 762 252.5 789 c 128,-1,39
 213 816 213 816 213 865 c 0,40,41
 213 892 213 892 230 892 c 0,42,43
 236 892 236 892 239.5 890 c 128,-1,44
 243 888 243 888 244 885.5 c 128,-1,45
 245 883 245 883 246.5 877 c 128,-1,46
 248 871 248 871 250 867 c 0,47,48
 267 828 267 828 354 828 c 0,49,50
 440 828 440 828 465 867 c 0,51,52
 468 872 468 872 471 880 c 128,-1,53
 474 888 474 888 477.5 890 c 128,-1,54
 481 892 481 892 489 892 c 0,32,33
225 -102 m 2,55,56
 228 -80 228 -80 271 -80 c 0,57,58
 309 -80 309 -80 309 -102 c 1,59,-1
 304 -153 l 2,60,61
 301 -175 301 -175 258 -175 c 0,62,63
 220 -175 220 -175 220 -153 c 1,64,-1
 225 -102 l 2,55,56
EndSplineSet
Validated: 1
Position2: "'cpsp' Capital Spacing lookup 3 subtable" dx=5 dy=0 dh=10 dv=0
EndChar

StartChar: Abrevegrave
Encoding: 7856 7856 6
Width: 613
Flags: MW
HStem: -2 21G<4 18 18 23 503 513 513 521> 178 76<174 413 174 432 138 413> 610 92<332 332 332 334> 682 20G<328 357 357 367> 761 53<328.5 377 328.5 379.5>
VStem: -23 588<12.5 16>
LayerCount: 2
UndoRedoHistory
Layer: 1
Undoes
EndUndoes
Redoes
EndRedoes
EndUndoRedoHistory
Fore
SplineSet
357 702 m 2,0,1
 392 702 392 702 396 686 c 2,2,-1
 564 28 l 2,3,4
 565 24 565 24 565 18 c 0,5,6
 565 -2 565 -2 521 -2 c 2,7,-1
 513 -2 l 2,8,9
 478 -2 478 -2 474 14 c 2,10,-1
 432 178 l 1,11,-1
 138 178 l 1,12,-1
 64 14 l 2,13,14
 57 -2 57 -2 23 -2 c 2,15,-1
 18 -2 l 2,16,17
 -23 -2 -23 -2 -23 14 c 0,18,19
 -23 19 -23 19 -18 29 c 2,20,-1
 287 686 l 2,21,22
 294 702 294 702 328 702 c 2,23,-1
 357 702 l 2,0,1
332 610 m 1,24,25
 320 573 320 573 311 552 c 2,26,-1
 174 254 l 1,27,-1
 413 254 l 1,28,-1
 340 552 l 2,29,30
 334 575 334 575 334 610 c 1,31,-1
 332 610 l 1,24,25
319 992 m 0,32,33
 357 992 357 992 367 966 c 0,34,35
 404 876 404 876 404 861 c 0,36,37
 404 852 404 852 381 852 c 0,38,39
 356 852 356 852 345 870 c 0,40,41
 283 966 283 966 282 980 c 0,42,43
 282 992 282 992 319 992 c 0,32,33
488 883 m 0,44,45
 502 883 502 883 502 871 c 0,46,47
 502 822 502 822 452 791.5 c 128,-1,48
 402 761 402 761 346 761 c 0,49,50
 291 761 291 761 251.5 786.5 c 128,-1,51
 212 812 212 812 212 856 c 0,52,53
 212 883 212 883 229 883 c 0,54,55
 237 883 237 883 239.5 880.5 c 128,-1,56
 242 878 242 878 244 870.5 c 128,-1,57
 246 863 246 863 249 858 c 0,58,59
 258 841 258 841 288 827.5 c 128,-1,60
 318 814 318 814 353 814 c 0,61,62
 386 814 386 814 420 829 c 128,-1,63
 454 844 454 844 464 858 c 0,64,65
 467 863 467 863 469.5 868.5 c 128,-1,66
 472 874 472 874 473.5 876.5 c 128,-1,67
 475 879 475 879 478.5 881 c 128,-1,68
 482 883 482 883 488 883 c 0,44,45
EndSplineSet
Validated: 1
Position2: "'cpsp' Capital Spacing lookup 3 subtable" dx=5 dy=0 dh=10 dv=0
EndChar

StartChar: Abrevehookabove
Encoding: 7858 7858 7
Width: 613
Flags: MW
HStem: -2 21G<4 18 18 23 503 513 513 521> 178 76<174 413 174 432 138 413> 610 92<332 332 332 334> 682 20G<328 357 357 367> 761 53<328.5 377 328.5 379.5> 959 48<349.5 364>
VStem: 388 58<925 941>
LayerCount: 2
UndoRedoHistory
Layer: 1
Undoes
EndUndoes
Redoes
EndRedoes
EndUndoRedoHistory
Fore
SplineSet
357 702 m 2,0,1
 392 702 392 702 396 686 c 2,2,-1
 564 28 l 2,3,4
 565 24 565 24 565 18 c 0,5,6
 565 -2 565 -2 521 -2 c 2,7,-1
 513 -2 l 2,8,9
 478 -2 478 -2 474 14 c 2,10,-1
 432 178 l 1,11,-1
 138 178 l 1,12,-1
 64 14 l 2,13,14
 57 -2 57 -2 23 -2 c 2,15,-1
 18 -2 l 2,16,17
 -23 -2 -23 -2 -23 14 c 0,18,19
 -23 19 -23 19 -18 29 c 2,20,-1
 287 686 l 2,21,22
 294 702 294 702 328 702 c 2,23,-1
 357 702 l 2,0,1
332 610 m 1,24,25
 320 573 320 573 311 552 c 2,26,-1
 174 254 l 1,27,-1
 413 254 l 1,28,-1
 340 552 l 2,29,30
 334 575 334 575 334 610 c 1,31,-1
 332 610 l 1,24,25
388 932 m 0,32,33
 388 959 388 959 354 959 c 0,34,35
 340 959 340 959 329.5 955.5 c 128,-1,36
 319 952 319 952 313 949 c 128,-1,37
 307 946 307 946 306 946 c 0,38,39
 300 946 300 946 293 958.5 c 128,-1,40
 286 971 286 971 286 979 c 0,41,42
 286 989 286 989 313 998 c 128,-1,43
 340 1007 340 1007 367 1007 c 0,44,45
 398 1007 398 1007 422 990.5 c 128,-1,46
 446 974 446 974 446 939 c 0,47,48
 446 908 446 908 404 875 c 0,49,50
 377 853 377 853 360 853 c 0,51,52
 345 853 345 853 335.5 859.5 c 128,-1,53
 326 866 326 866 326 873 c 0,54,55
 326 881 326 881 353 895 c 0,56,57
 388 913 388 913 388 932 c 0,32,33
488 883 m 0,58,59
 502 883 502 883 502 871 c 0,60,61
 502 822 502 822 452 791.5 c 128,-1,62
 402 761 402 761 346 761 c 0,63,64
 291 761 291 761 251.5 786.5 c 128,-1,65
 212 812 212 812 212 856 c 0,66,67
 212 883 212 883 229 883 c 0,68,69
 237 883 237 883 239.5 880.5 c 128,-1,70
 242 878 242 878 244 870.5 c 128,-1,71
 246 863 246 863 249 858 c 0,72,73
 258 841 258 841 288 827.5 c 128,-1,74
 318 814 318 814 353 814 c 0,75,76
 386 814 386 814 420 829 c 128,-1,77
 454 844 454 844 464 858 c 0,78,79
 467 863 467 863 469.5 868.5 c 128,-1,80
 472 874 472 874 473.5 876.5 c 128,-1,81
 475 879 475 879 478.5 881 c 128,-1,82
 482 883 482 883 488 883 c 0,58,59
EndSplineSet
Validated: 1
Position2: "'cpsp' Capital Spacing lookup 3 subtable" dx=5 dy=0 dh=10 dv=0
EndChar

StartChar: Abrevetilde
Encoding: 7860 7860 8
Width: 613
Flags: MW
HStem: -2 21G<4 18 18 23 503 513 513 521> 178 76<174 413 174 432 138 413> 610 92<332 332 332 334> 682 20G<328 357 357 367> 761 53<328.5 377 328.5 379.5> 903 64<422 435.5> 934 64<300.5 314>
VStem: -23 588<12.5 16>
LayerCount: 2
UndoRedoHistory
Layer: 1
Undoes
EndUndoes
Redoes
EndRedoes
EndUndoRedoHistory
Fore
SplineSet
357 702 m 2,0,1
 392 702 392 702 396 686 c 2,2,-1
 564 28 l 2,3,4
 565 24 565 24 565 18 c 0,5,6
 565 -2 565 -2 521 -2 c 2,7,-1
 513 -2 l 2,8,9
 478 -2 478 -2 474 14 c 2,10,-1
 432 178 l 1,11,-1
 138 178 l 1,12,-1
 64 14 l 2,13,14
 57 -2 57 -2 23 -2 c 2,15,-1
 18 -2 l 2,16,17
 -23 -2 -23 -2 -23 14 c 0,18,19
 -23 19 -23 19 -18 29 c 2,20,-1
 287 686 l 2,21,22
 294 702 294 702 328 702 c 2,23,-1
 357 702 l 2,0,1
332 610 m 1,24,25
 320 573 320 573 311 552 c 2,26,-1
 174 254 l 1,27,-1
 413 254 l 1,28,-1
 340 552 l 2,29,30
 334 575 334 575 334 610 c 1,31,-1
 332 610 l 1,24,25
480 989 m 0,32,33
 490 996 490 996 497 996 c 0,34,35
 506 996 506 996 514 987 c 0,36,37
 523 976 523 976 523 967 c 0,38,39
 523 957 523 957 513 947 c 0,40,41
 465 903 465 903 417 903 c 0,42,43
 380 903 380 903 348 919 c 0,44,45
 318 934 318 934 308 934 c 0,46,47
 293 934 293 934 259 915 c 0,48,49
 248 909 248 909 240 909 c 0,50,51
 228 909 228 909 221 921 c 1,52,53
 214 931 214 931 214 941 c 128,-1,54
 214 951 214 951 222 957 c 0,55,56
 273 998 273 998 319 998 c 0,57,58
 349 998 349 998 388 980 c 0,59,60
 416 967 416 967 428 967 c 0,61,62
 451 967 451 967 480 989 c 0,32,33
488 883 m 0,63,64
 502 883 502 883 502 871 c 0,65,66
 502 822 502 822 452 791.5 c 128,-1,67
 402 761 402 761 346 761 c 0,68,69
 291 761 291 761 251.5 786.5 c 128,-1,70
 212 812 212 812 212 856 c 0,71,72
 212 883 212 883 229 883 c 0,73,74
 237 883 237 883 239.5 880.5 c 128,-1,75
 242 878 242 878 244 870.5 c 128,-1,76
 246 863 246 863 249 858 c 0,77,78
 258 841 258 841 288 827.5 c 128,-1,79
 318 814 318 814 353 814 c 0,80,81
 386 814 386 814 420 829 c 128,-1,82
 454 844 454 844 464 858 c 0,83,84
 467 863 467 863 469.5 868.5 c 128,-1,85
 472 874 472 874 473.5 876.5 c 128,-1,86
 475 879 475 879 478.5 881 c 128,-1,87
 482 883 482 883 488 883 c 0,63,64
EndSplineSet
Validated: 1
Position2: "'cpsp' Capital Spacing lookup 3 subtable" dx=5 dy=0 dh=10 dv=0
EndChar

StartChar: Acircumflex
Encoding: 194 194 9
Width: 613
Flags: MW
HStem: -2 21G<4 18 18 23 503 513 513 521> 178 76<174 413 174 432 138 413> 610 92<332 332 332 334> 682 20G<328 357 357 367> 753 142<235 367 242 367 342 435 342 437>
VStem: -23 588<12.5 16>
LayerCount: 2
UndoRedoHistory
Layer: 1
Undoes
EndUndoes
Redoes
EndRedoes
EndUndoRedoHistory
Fore
SplineSet
367 895 m 2,0,1
 399 895 399 895 411 873 c 2,2,-1
 458 785 l 2,3,4
 463 777 463 777 463 768 c 1,5,6
 461 753 461 753 437 753 c 2,7,-1
 435 753 l 2,8,9
 416 753 416 753 403 766 c 1,10,-1
 348 840 l 1,11,-1
 279 766 l 1,12,13
 263 753 263 753 244 753 c 2,14,-1
 242 753 l 2,15,16
 221 753 221 753 221 765 c 0,17,18
 221 774 221 774 228 785 c 2,19,-1
 294 873 l 2,20,21
 310 895 310 895 342 895 c 2,22,-1
 367 895 l 2,0,1
357 702 m 2,23,24
 392 702 392 702 396 686 c 2,25,-1
 564 28 l 2,26,27
 565 24 565 24 565 18 c 0,28,29
 565 -2 565 -2 521 -2 c 2,30,-1
 513 -2 l 2,31,32
 478 -2 478 -2 474 14 c 2,33,-1
 432 178 l 1,34,-1
 138 178 l 1,35,-1
 64 14 l 2,36,37
 57 -2 57 -2 23 -2 c 2,38,-1
 18 -2 l 2,39,40
 -23 -2 -23 -2 -23 14 c 0,41,42
 -23 19 -23 19 -18 29 c 2,43,-1
 287 686 l 2,44,45
 294 702 294 702 328 702 c 2,46,-1
 357 702 l 2,23,24
332 610 m 1,47,48
 320 573 320 573 311 552 c 2,49,-1
 174 254 l 1,50,-1
 413 254 l 1,51,-1
 340 552 l 2,52,53
 334 575 334 575 334 610 c 1,54,-1
 332 610 l 1,47,48
EndSplineSet
Validated: 1
Position2: "'cpsp' Capital Spacing lookup 3 subtable" dx=5 dy=0 dh=10 dv=0
EndChar

StartChar: Acircumflexacute
Encoding: 7844 7844 10
Width: 613
Flags: MW
HStem: -2 21G<4 18 18 23 503 513 513 521> 178 76<174 413 174 432 138 413> 610 92<332 332 332 334> 682 20G<328 357 357 367>
VStem: -23 628
LayerCount: 2
UndoRedoHistory
Layer: 1
Undoes
EndUndoes
Redoes
EndRedoes
EndUndoRedoHistory
Fore
SplineSet
357 702 m 2,0,1
 392 702 392 702 396 686 c 2,2,-1
 564 28 l 2,3,4
 565 24 565 24 565 18 c 0,5,6
 565 -2 565 -2 521 -2 c 2,7,-1
 513 -2 l 2,8,9
 478 -2 478 -2 474 14 c 2,10,-1
 432 178 l 1,11,-1
 138 178 l 1,12,-1
 64 14 l 2,13,14
 57 -2 57 -2 23 -2 c 2,15,-1
 18 -2 l 2,16,17
 -23 -2 -23 -2 -23 14 c 0,18,19
 -23 19 -23 19 -18 29 c 2,20,-1
 287 686 l 2,21,22
 294 702 294 702 328 702 c 2,23,-1
 357 702 l 2,0,1
332 610 m 1,24,25
 320 573 320 573 311 552 c 2,26,-1
 174 254 l 1,27,-1
 413 254 l 1,28,-1
 340 552 l 2,29,30
 334 575 334 575 334 610 c 1,31,-1
 332 610 l 1,24,25
573 961 m 0,32,33
 605 961 605 961 605 949 c 0,34,35
 605 943 605 943 513 842 c 1,36,37
 498 824 498 824 475 824 c 0,38,39
 453 824 453 824 453 833 c 0,40,41
 453 847 453 847 508 935 c 0,42,43
 524 961 524 961 573 961 c 0,32,33
375 895 m 2,44,45
 399 895 399 895 409 873 c 2,46,-1
 451 785 l 1,47,48
 456 777 456 777 456 768 c 1,49,50
 454 753 454 753 430 753 c 2,51,-1
 428 753 l 2,52,53
 403 753 403 753 396 766 c 2,54,-1
 356 840 l 1,55,-1
 287 766 l 1,56,57
 271 753 271 753 252 753 c 2,58,-1
 250 753 l 2,59,60
 229 753 229 753 229 765 c 0,61,62
 229 774 229 774 236 785 c 2,63,-1
 302 873 l 2,64,65
 318 895 318 895 350 895 c 2,66,-1
 375 895 l 2,44,45
EndSplineSet
Validated: 1
Position2: "'cpsp' Capital Spacing lookup 3 subtable" dx=5 dy=0 dh=10 dv=0
EndChar

StartChar: Acircumflexdotbelow
Encoding: 7852 7852 11
Width: 613
Flags: MW
HStem: -175 95<255 273> -2 21G<4 18 18 23 503 513 513 521> 178 76<174 413 174 432 138 413> 610 92<332 332 332 334> 682 20G<328 357 357 367> 753 142<235 367 242 367 342 435 342 437>
VStem: 220 89<-160 -95>
LayerCount: 2
UndoRedoHistory
Layer: 1
Undoes
EndUndoes
Redoes
EndRedoes
EndUndoRedoHistory
Fore
SplineSet
357 702 m 2,0,1
 392 702 392 702 396 686 c 2,2,-1
 564 28 l 2,3,4
 565 24 565 24 565 18 c 0,5,6
 565 -2 565 -2 521 -2 c 2,7,-1
 513 -2 l 2,8,9
 478 -2 478 -2 474 14 c 2,10,-1
 432 178 l 1,11,-1
 138 178 l 1,12,-1
 64 14 l 2,13,14
 57 -2 57 -2 23 -2 c 2,15,-1
 18 -2 l 2,16,17
 -23 -2 -23 -2 -23 14 c 0,18,19
 -23 19 -23 19 -18 29 c 2,20,-1
 287 686 l 2,21,22
 294 702 294 702 328 702 c 2,23,-1
 357 702 l 2,0,1
332 610 m 1,24,25
 320 573 320 573 311 552 c 2,26,-1
 174 254 l 1,27,-1
 413 254 l 1,28,-1
 340 552 l 2,29,30
 334 575 334 575 334 610 c 1,31,-1
 332 610 l 1,24,25
367 895 m 2,32,33
 399 895 399 895 411 873 c 2,34,-1
 458 785 l 2,35,36
 463 777 463 777 463 768 c 1,37,38
 461 753 461 753 437 753 c 2,39,-1
 435 753 l 2,40,41
 416 753 416 753 403 766 c 1,42,-1
 348 840 l 1,43,-1
 279 766 l 1,44,45
 263 753 263 753 244 753 c 2,46,-1
 242 753 l 2,47,48
 221 753 221 753 221 765 c 0,49,50
 221 774 221 774 228 785 c 2,51,-1
 294 873 l 2,52,53
 310 895 310 895 342 895 c 2,54,-1
 367 895 l 2,32,33
225 -102 m 2,55,56
 228 -80 228 -80 271 -80 c 0,57,58
 309 -80 309 -80 309 -102 c 1,59,-1
 304 -153 l 2,60,61
 301 -175 301 -175 258 -175 c 0,62,63
 220 -175 220 -175 220 -153 c 1,64,-1
 225 -102 l 2,55,56
EndSplineSet
Validated: 1
Position2: "'cpsp' Capital Spacing lookup 3 subtable" dx=5 dy=0 dh=10 dv=0
EndChar

StartChar: Acircumflexgrave
Encoding: 7846 7846 12
Width: 613
Flags: MW
HStem: -2 21G<4 18 18 23 503 513 513 521> 178 76<174 413 174 432 138 413> 610 92<332 332 332 334> 682 20G<328 357 357 367>
VStem: -23 588<12.5 16>
LayerCount: 2
UndoRedoHistory
Layer: 1
Undoes
EndUndoes
Redoes
EndRedoes
EndUndoRedoHistory
Fore
SplineSet
357 702 m 2,0,1
 392 702 392 702 396 686 c 2,2,-1
 564 28 l 2,3,4
 565 24 565 24 565 18 c 0,5,6
 565 -2 565 -2 521 -2 c 2,7,-1
 513 -2 l 2,8,9
 478 -2 478 -2 474 14 c 2,10,-1
 432 178 l 1,11,-1
 138 178 l 1,12,-1
 64 14 l 2,13,14
 57 -2 57 -2 23 -2 c 2,15,-1
 18 -2 l 2,16,17
 -23 -2 -23 -2 -23 14 c 0,18,19
 -23 19 -23 19 -18 29 c 2,20,-1
 287 686 l 2,21,22
 294 702 294 702 328 702 c 2,23,-1
 357 702 l 2,0,1
332 610 m 1,24,25
 320 573 320 573 311 552 c 2,26,-1
 174 254 l 1,27,-1
 413 254 l 1,28,-1
 340 552 l 2,29,30
 334 575 334 575 334 610 c 1,31,-1
 332 610 l 1,24,25
447 964 m 0,32,33
 485 964 485 964 495 938 c 0,34,35
 532 848 532 848 532 833 c 0,36,37
 532 824 532 824 509 824 c 0,38,39
 484 824 484 824 473 842 c 0,40,41
 411 938 411 938 410 952 c 0,42,43
 410 964 410 964 447 964 c 0,32,33
375 895 m 2,44,45
 399 895 399 895 409 873 c 2,46,-1
 451 785 l 1,47,48
 456 777 456 777 456 768 c 1,49,50
 454 753 454 753 430 753 c 2,51,-1
 428 753 l 2,52,53
 403 753 403 753 396 766 c 2,54,-1
 356 840 l 1,55,-1
 287 766 l 1,56,57
 271 753 271 753 252 753 c 2,58,-1
 250 753 l 2,59,60
 229 753 229 753 229 765 c 0,61,62
 229 774 229 774 236 785 c 2,63,-1
 302 873 l 2,64,65
 318 895 318 895 350 895 c 2,66,-1
 375 895 l 2,44,45
EndSplineSet
Validated: 1
Position2: "'cpsp' Capital Spacing lookup 3 subtable" dx=5 dy=0 dh=10 dv=0
EndChar

StartChar: Acircumflexhookabove
Encoding: 7848 7848 13
Width: 613
Flags: MW
HStem: -2 21G<4 18 18 23 503 513 513 521> 178 76<174 413 174 432 138 413> 610 92<332 332 332 334> 682 20G<328 357 357 367> 931 48<477.5 492>
VStem: 516 58<897 913>
LayerCount: 2
UndoRedoHistory
Layer: 1
Undoes
EndUndoes
Redoes
EndRedoes
EndUndoRedoHistory
Fore
SplineSet
357 702 m 2,0,1
 392 702 392 702 396 686 c 2,2,-1
 564 28 l 2,3,4
 565 24 565 24 565 18 c 0,5,6
 565 -2 565 -2 521 -2 c 2,7,-1
 513 -2 l 2,8,9
 478 -2 478 -2 474 14 c 2,10,-1
 432 178 l 1,11,-1
 138 178 l 1,12,-1
 64 14 l 2,13,14
 57 -2 57 -2 23 -2 c 2,15,-1
 18 -2 l 2,16,17
 -23 -2 -23 -2 -23 14 c 0,18,19
 -23 19 -23 19 -18 29 c 2,20,-1
 287 686 l 2,21,22
 294 702 294 702 328 702 c 2,23,-1
 357 702 l 2,0,1
332 610 m 1,24,25
 320 573 320 573 311 552 c 2,26,-1
 174 254 l 1,27,-1
 413 254 l 1,28,-1
 340 552 l 2,29,30
 334 575 334 575 334 610 c 1,31,-1
 332 610 l 1,24,25
516 904 m 0,32,33
 516 931 516 931 482 931 c 0,34,35
 468 931 468 931 457.5 927.5 c 128,-1,36
 447 924 447 924 441 921 c 128,-1,37
 435 918 435 918 434 918 c 0,38,39
 428 918 428 918 421 930.5 c 128,-1,40
 414 943 414 943 414 951 c 0,41,42
 414 961 414 961 441 970 c 128,-1,43
 468 979 468 979 495 979 c 0,44,45
 526 979 526 979 550 962.5 c 128,-1,46
 574 946 574 946 574 911 c 0,47,48
 574 880 574 880 532 847 c 0,49,50
 504 825 504 825 488 825 c 0,51,52
 473 825 473 825 463.5 831.5 c 128,-1,53
 454 838 454 838 454 845 c 0,54,55
 454 853 454 853 481 867 c 0,56,57
 516 885 516 885 516 904 c 0,32,33
375 895 m 2,58,59
 399 895 399 895 409 873 c 2,60,-1
 451 785 l 1,61,62
 456 777 456 777 456 768 c 1,63,64
 454 753 454 753 430 753 c 2,65,-1
 428 753 l 2,66,67
 403 753 403 753 396 766 c 2,68,-1
 356 840 l 1,69,-1
 287 766 l 1,70,71
 271 753 271 753 252 753 c 2,72,-1
 250 753 l 2,73,74
 229 753 229 753 229 765 c 0,75,76
 229 774 229 774 236 785 c 2,77,-1
 302 873 l 2,78,79
 318 895 318 895 350 895 c 2,80,-1
 375 895 l 2,58,59
EndSplineSet
Validated: 1
Position2: "'cpsp' Capital Spacing lookup 3 subtable" dx=5 dy=0 dh=10 dv=0
EndChar

StartChar: Acircumflextilde
Encoding: 7850 7850 14
Width: 613
Flags: MW
HStem: -2 21G<4 18 18 23 503 513 513 521> 178 76<174 413 174 432 138 413> 610 92<332 332 332 334> 682 20G<328 357 357 367> 903 64<421 434.5> 934 64<299.5 313>
VStem: -23 588<12.5 16>
LayerCount: 2
UndoRedoHistory
Layer: 1
Undoes
EndUndoes
Redoes
EndRedoes
EndUndoRedoHistory
Fore
SplineSet
357 702 m 2,0,1
 392 702 392 702 396 686 c 2,2,-1
 564 28 l 2,3,4
 565 24 565 24 565 18 c 0,5,6
 565 -2 565 -2 521 -2 c 2,7,-1
 513 -2 l 2,8,9
 478 -2 478 -2 474 14 c 2,10,-1
 432 178 l 1,11,-1
 138 178 l 1,12,-1
 64 14 l 2,13,14
 57 -2 57 -2 23 -2 c 2,15,-1
 18 -2 l 2,16,17
 -23 -2 -23 -2 -23 14 c 0,18,19
 -23 19 -23 19 -18 29 c 2,20,-1
 287 686 l 2,21,22
 294 702 294 702 328 702 c 2,23,-1
 357 702 l 2,0,1
332 610 m 1,24,25
 320 573 320 573 311 552 c 2,26,-1
 174 254 l 1,27,-1
 413 254 l 1,28,-1
 340 552 l 2,29,30
 334 575 334 575 334 610 c 1,31,-1
 332 610 l 1,24,25
479 989 m 0,32,33
 489 996 489 996 496 996 c 0,34,35
 506 996 506 996 513 987 c 0,36,37
 522 976 522 976 522 967 c 0,38,39
 522 957 522 957 512 947 c 0,40,41
 464 903 464 903 416 903 c 0,42,43
 379 903 379 903 347 919 c 0,44,45
 317 934 317 934 307 934 c 0,46,47
 292 934 292 934 258 915 c 0,48,49
 248 909 248 909 239 909 c 0,50,51
 228 909 228 909 220 921 c 0,52,53
 213 931 213 931 213 941 c 128,-1,54
 213 951 213 951 221 957 c 0,55,56
 272 998 272 998 318 998 c 0,57,58
 348 998 348 998 387 980 c 0,59,60
 415 967 415 967 427 967 c 0,61,62
 450 967 450 967 479 989 c 0,32,33
370 871 m 2,63,64
 394 871 394 871 414 849 c 1,65,-1
 460 786 l 2,66,67
 465 778 465 778 465 769 c 1,68,69
 463 754 463 754 439 754 c 2,70,-1
 437 754 l 2,71,72
 422 754 422 754 405 767 c 1,73,-1
 351 816 l 1,74,-1
 281 767 l 1,75,76
 259 754 259 754 246 754 c 2,77,-1
 244 754 l 2,78,79
 223 754 223 754 223 766 c 0,80,81
 223 775 223 775 230 786 c 1,82,-1
 297 849 l 1,83,84
 324 871 324 871 345 871 c 2,85,-1
 370 871 l 2,63,64
EndSplineSet
Validated: 1
Position2: "'cpsp' Capital Spacing lookup 3 subtable" dx=5 dy=0 dh=10 dv=0
EndChar

StartChar: Adieresis
Encoding: 196 196 15
Width: 613
Flags: MW
HStem: -2 21G<4 18 18 23 503 513 513 521> 178 76<174 413 174 432 138 413> 610 92<332 332 332 334> 682 20G<328 357 357 367> 784 95<271 289 415 433>
VStem: 236 89<799 864> 380 89<799 864>
LayerCount: 2
UndoRedoHistory
Layer: 1
Undoes
EndUndoes
Redoes
EndRedoes
EndUndoRedoHistory
Fore
SplineSet
357 702 m 2,0,1
 392 702 392 702 396 686 c 2,2,-1
 564 28 l 2,3,4
 565 24 565 24 565 18 c 0,5,6
 565 -2 565 -2 521 -2 c 2,7,-1
 513 -2 l 2,8,9
 478 -2 478 -2 474 14 c 2,10,-1
 432 178 l 1,11,-1
 138 178 l 1,12,-1
 64 14 l 2,13,14
 57 -2 57 -2 23 -2 c 2,15,-1
 18 -2 l 2,16,17
 -23 -2 -23 -2 -23 14 c 0,18,19
 -23 19 -23 19 -18 29 c 2,20,-1
 287 686 l 2,21,22
 294 702 294 702 328 702 c 2,23,-1
 357 702 l 2,0,1
332 610 m 1,24,25
 320 573 320 573 311 552 c 2,26,-1
 174 254 l 1,27,-1
 413 254 l 1,28,-1
 340 552 l 2,29,30
 334 575 334 575 334 610 c 1,31,-1
 332 610 l 1,24,25
241 857 m 2,32,33
 244 879 244 879 287 879 c 0,34,35
 325 879 325 879 325 857 c 1,36,-1
 320 806 l 2,37,38
 317 784 317 784 274 784 c 0,39,40
 236 784 236 784 236 806 c 1,41,-1
 241 857 l 2,32,33
385 857 m 2,42,43
 387 879 387 879 431 879 c 0,44,45
 469 879 469 879 469 857 c 1,46,-1
 464 806 l 2,47,48
 461 784 461 784 418 784 c 0,49,50
 380 784 380 784 380 806 c 1,51,-1
 385 857 l 2,42,43
EndSplineSet
Validated: 1
Position2: "'cpsp' Capital Spacing lookup 3 subtable" dx=5 dy=0 dh=10 dv=0
EndChar

StartChar: Adotbelow
Encoding: 7840 7840 16
Width: 613
Flags: MW
HStem: -175 95<255 273> -2 21G<4 18 18 23 503 513 513 521> 178 76<174 413 174 432 138 413> 610 92<332 332 332 334> 682 20G<328 357 357 367>
VStem: 220 89<-160 -95>
LayerCount: 2
UndoRedoHistory
Layer: 1
Undoes
EndUndoes
Redoes
EndRedoes
EndUndoRedoHistory
Fore
SplineSet
357 702 m 2,0,1
 392 702 392 702 396 686 c 2,2,-1
 564 28 l 2,3,4
 565 24 565 24 565 18 c 0,5,6
 565 -2 565 -2 521 -2 c 2,7,-1
 513 -2 l 2,8,9
 478 -2 478 -2 474 14 c 2,10,-1
 432 178 l 1,11,-1
 138 178 l 1,12,-1
 64 14 l 2,13,14
 57 -2 57 -2 23 -2 c 2,15,-1
 18 -2 l 2,16,17
 -23 -2 -23 -2 -23 14 c 0,18,19
 -23 19 -23 19 -18 29 c 2,20,-1
 287 686 l 2,21,22
 294 702 294 702 328 702 c 2,23,-1
 357 702 l 2,0,1
332 610 m 1,24,25
 320 573 320 573 311 552 c 2,26,-1
 174 254 l 1,27,-1
 413 254 l 1,28,-1
 340 552 l 2,29,30
 334 575 334 575 334 610 c 1,31,-1
 332 610 l 1,24,25
225 -102 m 2,32,33
 228 -80 228 -80 271 -80 c 0,34,35
 309 -80 309 -80 309 -102 c 1,36,-1
 304 -153 l 2,37,38
 301 -175 301 -175 258 -175 c 0,39,40
 220 -175 220 -175 220 -153 c 1,41,-1
 225 -102 l 2,32,33
EndSplineSet
Validated: 1
Position2: "'cpsp' Capital Spacing lookup 3 subtable" dx=5 dy=0 dh=10 dv=0
EndChar

StartChar: Agrave
Encoding: 192 192 17
Width: 613
Flags: MW
HStem: -2 21G<4 18 18 23 503 513 513 521> 178 76<174 413 174 432 138 413> 610 92<332 332 332 334> 682 20G<328 357 357 367>
VStem: -23 588<12.5 16>
LayerCount: 2
UndoRedoHistory
Layer: 1
Undoes
EndUndoes
Redoes
EndRedoes
EndUndoRedoHistory
Fore
SplineSet
271 909 m 128,-1,1
 318 909 318 909 333 883 c 0,2,3
 391 784 391 784 391 771 c 0,4,5
 391 762 391 762 368 762 c 0,6,7
 332 762 332 762 317 780 c 0,8,9
 229 880 229 880 225 889 c 0,10,11
 223 893 223 893 223 897 c 0,12,0
 224 909 224 909 271 909 c 128,-1,1
357 702 m 2,13,14
 392 702 392 702 396 686 c 2,15,-1
 564 28 l 2,16,17
 565 24 565 24 565 18 c 0,18,19
 565 -2 565 -2 521 -2 c 2,20,-1
 513 -2 l 2,21,22
 478 -2 478 -2 474 14 c 2,23,-1
 432 178 l 1,24,-1
 138 178 l 1,25,-1
 64 14 l 2,26,27
 57 -2 57 -2 23 -2 c 2,28,-1
 18 -2 l 2,29,30
 -23 -2 -23 -2 -23 14 c 0,31,32
 -23 19 -23 19 -18 29 c 2,33,-1
 287 686 l 2,34,35
 294 702 294 702 328 702 c 2,36,-1
 357 702 l 2,13,14
332 610 m 1,37,38
 320 573 320 573 311 552 c 2,39,-1
 174 254 l 1,40,-1
 413 254 l 1,41,-1
 340 552 l 2,42,43
 334 575 334 575 334 610 c 1,44,-1
 332 610 l 1,37,38
EndSplineSet
Validated: 1
Position2: "'cpsp' Capital Spacing lookup 3 subtable" dx=5 dy=0 dh=10 dv=0
EndChar

StartChar: Ahookabove
Encoding: 7842 7842 18
Width: 613
Flags: MW
HStem: -2 21G<4 18 18 23 503 513 513 521> 178 76<174 413 174 432 138 413> 610 92<332 332 332 334> 682 20G<328 357 357 367> 876 51<347.5 362>
VStem: 386 66<825 859>
LayerCount: 2
UndoRedoHistory
Layer: 1
Undoes
EndUndoes
Redoes
EndRedoes
EndUndoRedoHistory
Fore
SplineSet
386 851 m 0,0,1
 386 876 386 876 352 876 c 0,2,3
 338 876 338 876 327.5 873 c 128,-1,4
 317 870 317 870 311 866.5 c 128,-1,5
 305 863 305 863 304 863 c 0,6,7
 298 863 298 863 291 875.5 c 128,-1,8
 284 888 284 888 284 896 c 0,9,10
 284 906 284 906 311.5 916.5 c 128,-1,11
 339 927 339 927 365 927 c 0,12,13
 397 927 397 927 424.5 910 c 128,-1,14
 452 893 452 893 452 857 c 0,15,16
 452 833 452 833 438 809.5 c 128,-1,17
 424 786 424 786 406 772 c 128,-1,18
 388 758 388 758 373 749 c 128,-1,19
 358 740 358 740 353 740 c 0,20,21
 337 740 337 740 325.5 745 c 128,-1,22
 314 750 314 750 314 757 c 0,23,24
 314 768 314 768 332 780.5 c 128,-1,25
 350 793 350 793 368 811 c 128,-1,26
 386 829 386 829 386 851 c 0,0,1
357 702 m 2,27,28
 392 702 392 702 396 686 c 2,29,-1
 564 28 l 2,30,31
 565 24 565 24 565 18 c 0,32,33
 565 -2 565 -2 521 -2 c 2,34,-1
 513 -2 l 2,35,36
 478 -2 478 -2 474 14 c 2,37,-1
 432 178 l 1,38,-1
 138 178 l 1,39,-1
 64 14 l 2,40,41
 57 -2 57 -2 23 -2 c 2,42,-1
 18 -2 l 2,43,44
 -23 -2 -23 -2 -23 14 c 0,45,46
 -23 19 -23 19 -18 29 c 2,47,-1
 287 686 l 2,48,49
 294 702 294 702 328 702 c 2,50,-1
 357 702 l 2,27,28
332 610 m 1,51,52
 320 573 320 573 311 552 c 2,53,-1
 174 254 l 1,54,-1
 413 254 l 1,55,-1
 340 552 l 2,56,57
 334 575 334 575 334 610 c 1,58,-1
 332 610 l 1,51,52
EndSplineSet
Validated: 1
Position2: "'cpsp' Capital Spacing lookup 3 subtable" dx=5 dy=0 dh=10 dv=0
EndChar

StartChar: Amacron
Encoding: 256 256 19
Width: 613
Flags: MW
HStem: -2 21G<4 18 18 23 503 513 513 521> 178 76<174 413 174 432 138 413> 610 92<332 332 332 334> 682 20G<328 357 357 367> 789 71<218 459 233 451>
VStem: -23 588<12.5 16>
LayerCount: 2
UndoRedoHistory
Layer: 1
Undoes
EndUndoes
Redoes
EndRedoes
EndUndoRedoHistory
Fore
SplineSet
459 860 m 2,0,1
 476 860 476 860 476 834 c 0,2,3
 476 789 476 789 451 789 c 2,4,-1
 225 789 l 2,5,6
 208 789 208 789 208 816 c 0,7,8
 208 860 208 860 233 860 c 2,9,-1
 459 860 l 2,0,1
357 702 m 2,10,11
 392 702 392 702 396 686 c 2,12,-1
 564 28 l 2,13,14
 565 24 565 24 565 18 c 0,15,16
 565 -2 565 -2 521 -2 c 2,17,-1
 513 -2 l 2,18,19
 478 -2 478 -2 474 14 c 2,20,-1
 432 178 l 1,21,-1
 138 178 l 1,22,-1
 64 14 l 2,23,24
 57 -2 57 -2 23 -2 c 2,25,-1
 18 -2 l 2,26,27
 -23 -2 -23 -2 -23 14 c 0,28,29
 -23 19 -23 19 -18 29 c 2,30,-1
 287 686 l 2,31,32
 294 702 294 702 328 702 c 2,33,-1
 357 702 l 2,10,11
332 610 m 1,34,35
 320 573 320 573 311 552 c 2,36,-1
 174 254 l 1,37,-1
 413 254 l 1,38,-1
 340 552 l 2,39,40
 334 575 334 575 334 610 c 1,41,-1
 332 610 l 1,34,35
EndSplineSet
Validated: 1
Position2: "'cpsp' Capital Spacing lookup 3 subtable" dx=5 dy=0 dh=10 dv=0
EndChar

StartChar: Aogonek
Encoding: 260 260 20
Width: 613
Flags: MW
HStem: -183 70<567 580.5> -2 21G<4 18 18 23> -1 21G 178 76<174 413 174 432 138 413> 610 92<332 334 332 332> 682 20G<328 357 357 367>
VStem: 451 69<-90 -85>
LayerCount: 2
UndoRedoHistory
Layer: 1
Undoes
EndUndoes
Redoes
EndRedoes
EndUndoRedoHistory
Fore
SplineSet
564 28 m 2,0,1
 565 24 565 24 565 18 c 0,2,3
 565 3 565 3 539 -1 c 1,4,5
 538 -6 538 -6 529 -30.5 c 128,-1,6
 520 -55 520 -55 520 -70 c 0,7,8
 520 -113 520 -113 578 -113 c 0,9,10
 596 -113 596 -113 618 -104 c 128,-1,11
 640 -95 640 -95 642 -95 c 0,12,13
 648 -95 648 -95 648 -108 c 0,14,15
 648 -183 648 -183 559 -183 c 0,16,17
 497 -183 497 -183 474 -156 c 128,-1,18
 451 -129 451 -129 451 -94 c 0,19,20
 451 -74 451 -74 460 -44.5 c 128,-1,21
 469 -15 469 -15 488 1 c 1,22,23
 477 6 477 6 474 14 c 2,24,-1
 432 178 l 1,25,-1
 138 178 l 1,26,-1
 64 14 l 2,27,28
 57 -2 57 -2 23 -2 c 2,29,-1
 18 -2 l 2,30,31
 -23 -2 -23 -2 -23 14 c 0,32,33
 -23 19 -23 19 -18 29 c 2,34,-1
 287 686 l 2,35,36
 294 702 294 702 328 702 c 2,37,-1
 357 702 l 2,38,39
 392 702 392 702 396 686 c 2,40,-1
 564 28 l 2,0,1
413 254 m 1,41,-1
 340 552 l 2,42,43
 334 575 334 575 334 610 c 1,44,-1
 332 610 l 1,45,46
 320 573 320 573 311 552 c 2,47,-1
 174 254 l 1,48,-1
 413 254 l 1,41,-1
EndSplineSet
Validated: 1
Position2: "'cpsp' Capital Spacing lookup 3 subtable" dx=5 dy=0 dh=10 dv=0
EndChar

StartChar: Aring
Encoding: 197 197 21
Width: 613
Flags: MW
HStem: -2 21G<4 18 18 23 503 513 513 521> 178 76<174 413 174 432 138 413> 610 92<332 332 332 334> 682 20G<328 357 357 367> 741 35<323.5 352.5 323.5 359> 875 35<333.5 361>
VStem: 258 35<808 836 808 842.5> 392 35<815.5 843.5>
LayerCount: 2
UndoRedoHistory
Layer: 1
Undoes
EndUndoes
Redoes
EndRedoes
EndUndoRedoHistory
Fore
SplineSet
351 910 m 0,0,1
 384 910 384 910 405.5 888 c 128,-1,2
 427 866 427 866 427 834 c 0,3,4
 427 796 427 796 399.5 768.5 c 128,-1,5
 372 741 372 741 334 741 c 0,6,7
 301 741 301 741 279.5 762.5 c 128,-1,8
 258 784 258 784 258 817 c 0,9,10
 258 855 258 855 286 882.5 c 128,-1,11
 314 910 314 910 351 910 c 0,0,1
348 875 m 0,12,13
 326 875 326 875 309.5 859 c 128,-1,14
 293 843 293 843 293 821 c 0,15,16
 293 801 293 801 305 788.5 c 128,-1,17
 317 776 317 776 337 776 c 0,18,19
 360 776 360 776 376 792 c 128,-1,20
 392 808 392 808 392 831 c 0,21,22
 392 850 392 850 379.5 862.5 c 128,-1,23
 367 875 367 875 348 875 c 0,12,13
357 702 m 2,24,25
 392 702 392 702 396 686 c 2,26,-1
 564 28 l 2,27,28
 565 24 565 24 565 18 c 0,29,30
 565 -2 565 -2 521 -2 c 2,31,-1
 513 -2 l 2,32,33
 478 -2 478 -2 474 14 c 2,34,-1
 432 178 l 1,35,-1
 138 178 l 1,36,-1
 64 14 l 2,37,38
 57 -2 57 -2 23 -2 c 2,39,-1
 18 -2 l 2,40,41
 -23 -2 -23 -2 -23 14 c 0,42,43
 -23 19 -23 19 -18 29 c 2,44,-1
 287 686 l 2,45,46
 294 702 294 702 328 702 c 2,47,-1
 357 702 l 2,24,25
332 610 m 1,48,49
 320 573 320 573 311 552 c 2,50,-1
 174 254 l 1,51,-1
 413 254 l 1,52,-1
 340 552 l 2,53,54
 334 575 334 575 334 610 c 1,55,-1
 332 610 l 1,48,49
EndSplineSet
Validated: 1
Position2: "'cpsp' Capital Spacing lookup 3 subtable" dx=5 dy=0 dh=10 dv=0
EndChar

StartChar: Aringacute
Encoding: 506 506 22
Width: 613
Flags: MW
HStem: -2 21G<4 18 18 23 503 513 513 521> 178 76<174 413 174 432 138 413> 758 35<338.5 366> 822 107<345 457>
VStem: 263 35<692.5 719 691 725.5> 397 35<704.5 726.5>
LayerCount: 2
UndoRedoHistory
Layer: 1
Undoes
EndUndoes
Redoes
EndRedoes
EndUndoRedoHistory
Fore
SplineSet
564 28 m 2,0,1
 565 24 565 24 565 18 c 0,2,3
 565 -2 565 -2 521 -2 c 2,4,-1
 513 -2 l 2,5,6
 478 -2 478 -2 474 14 c 2,7,-1
 432 178 l 1,8,-1
 138 178 l 1,9,-1
 64 14 l 2,10,11
 57 -2 57 -2 23 -2 c 2,12,-1
 18 -2 l 2,13,14
 -23 -2 -23 -2 -23 14 c 0,15,16
 -23 19 -23 19 -18 29 c 2,17,-1
 274 659 l 1,18,19
 263 676 263 676 263 700 c 0,20,21
 263 738 263 738 291 765.5 c 128,-1,22
 319 793 319 793 356 793 c 0,23,24
 389 793 389 793 410.5 771 c 128,-1,25
 432 749 432 749 432 717 c 0,26,27
 432 681 432 681 405 652 c 1,28,-1
 564 28 l 2,0,1
353 758 m 0,29,30
 331 758 331 758 314.5 742 c 128,-1,31
 298 726 298 726 298 704 c 0,32,33
 298 684 298 684 310 671.5 c 128,-1,34
 322 659 322 659 342 659 c 0,35,36
 365 659 365 659 381 675 c 128,-1,37
 397 691 397 691 397 714 c 0,38,39
 397 733 397 733 384.5 745.5 c 128,-1,40
 372 758 372 758 353 758 c 0,29,30
413 254 m 1,41,-1
 340 552 l 2,42,43
 334 575 334 575 334 610 c 1,44,-1
 332 610 l 1,45,46
 320 573 320 573 311 552 c 2,47,-1
 174 254 l 1,48,-1
 413 254 l 1,41,-1
353 822 m 0,49,50
 331 822 331 822 331 832 c 1,51,52
 335 839 335 839 376 903 c 0,53,54
 393 929 393 929 441 929 c 0,55,56
 458 929 458 929 467.5 928 c 128,-1,57
 477 927 477 927 482 924 c 128,-1,58
 487 921 487 921 487 916 c 128,-1,59
 487 911 487 911 460 888 c 0,60,61
 451 880 451 880 445.5 875 c 128,-1,62
 440 870 440 870 428.5 860 c 128,-1,63
 417 850 417 850 406 840 c 0,64,65
 388 822 388 822 353 822 c 0,49,50
EndSplineSet
Validated: 1
Position2: "'cpsp' Capital Spacing lookup 3 subtable" dx=5 dy=0 dh=10 dv=0
EndChar

StartChar: Atilde
Encoding: 195 195 23
Width: 613
Flags: MW
HStem: -2 21G<4 18 18 23 503 513 513 521> 178 76<174 413 174 432 138 413> 610 92<332 332 332 334> 682 20G<328 357 357 367> 762 64<420 434.5> 793 64<286.5 301.5>
VStem: -23 588<12.5 16>
LayerCount: 2
UndoRedoHistory
Layer: 1
Undoes
EndUndoes
Redoes
EndRedoes
EndUndoRedoHistory
Fore
SplineSet
484 848 m 0,0,1
 494 855 494 855 502 855 c 0,2,3
 512 855 512 855 521 846 c 0,4,5
 531 836 531 836 531 826 c 0,6,7
 531 815 531 815 520 806 c 0,8,9
 467 762 467 762 414 762 c 0,10,11
 373 762 373 762 339 778 c 0,12,13
 305 793 305 793 295 793 c 0,14,15
 277 793 277 793 241 774 c 0,16,17
 229 768 229 768 220 768 c 0,18,19
 208 768 208 768 199 780 c 0,20,21
 191 791 191 791 191 800 c 128,-1,22
 191 809 191 809 200 816 c 0,23,24
 257 857 257 857 307 857 c 0,25,26
 338 857 338 857 383 839 c 0,27,28
 413 826 413 826 427 826 c 0,29,30
 451 826 451 826 484 848 c 0,0,1
357 702 m 2,31,32
 392 702 392 702 396 686 c 2,33,-1
 564 28 l 2,34,35
 565 24 565 24 565 18 c 0,36,37
 565 -2 565 -2 521 -2 c 2,38,-1
 513 -2 l 2,39,40
 478 -2 478 -2 474 14 c 2,41,-1
 432 178 l 1,42,-1
 138 178 l 1,43,-1
 64 14 l 2,44,45
 57 -2 57 -2 23 -2 c 2,46,-1
 18 -2 l 2,47,48
 -23 -2 -23 -2 -23 14 c 0,49,50
 -23 19 -23 19 -18 29 c 2,51,-1
 287 686 l 2,52,53
 294 702 294 702 328 702 c 2,54,-1
 357 702 l 2,31,32
332 610 m 1,55,56
 320 573 320 573 311 552 c 2,57,-1
 174 254 l 1,58,-1
 413 254 l 1,59,-1
 340 552 l 2,60,61
 334 575 334 575 334 610 c 1,62,-1
 332 610 l 1,55,56
EndSplineSet
Validated: 1
Position2: "'cpsp' Capital Spacing lookup 3 subtable" dx=5 dy=0 dh=10 dv=0
EndChar

StartChar: AE
Encoding: 198 198 24
Width: 915
Flags: MW
HStem: 0 76<467.5 778 530 770> 178 75<180 419 180 429 134 419> 320 76<502 771 502 502> 624 76<468 834 468 468>
VStem: -47 906<8 685.5>
LayerCount: 2
UndoRedoHistory
Layer: 1
Undoes
EndUndoes
Redoes
EndRedoes
EndUndoRedoHistory
Fore
SplineSet
842 700 m 2,0,1
 859 700 859 700 859 678 c 0,2,3
 859 624 859 624 834 624 c 2,4,-1
 468 624 l 1,5,-1
 494 396 l 1,6,-1
 779 396 l 2,7,8
 796 396 796 396 796 374 c 0,9,10
 796 320 796 320 771 320 c 2,11,-1
 502 320 l 1,12,-1
 530 76 l 1,13,-1
 778 76 l 2,14,15
 795 76 795 76 795 54 c 0,16,17
 795 0 795 0 770 0 c 2,18,-1
 478 0 l 2,19,20
 448 0 448 0 445 29 c 2,21,-1
 429 178 l 1,22,-1
 134 178 l 1,23,-1
 37 14 l 2,24,25
 27 -2 27 -2 -4 -2 c 2,26,-1
 -9 -2 l 2,27,28
 -47 -2 -47 -2 -47 13 c 0,29,30
 -47 20 -47 20 -41 31 c 2,31,-1
 347 673 l 2,32,33
 363 700 363 700 392 700 c 2,34,-1
 842 700 l 2,0,1
387 610 m 1,35,-1
 360 552 l 1,36,-1
 180 253 l 1,37,-1
 419 253 l 1,38,-1
 389 552 l 1,39,-1
 389 610 l 1,40,-1
 387 610 l 1,35,-1
EndSplineSet
Validated: 1
Position2: "'cpsp' Capital Spacing lookup 3 subtable" dx=5 dy=0 dh=10 dv=0
EndChar

StartChar: AEacute
Encoding: 508 508 25
Width: 915
Flags: MW
HStem: 0 76<467.5 778 530 770> 178 75<180 419 180 429 134 419> 320 76<502 771 502 502> 624 76<468 834 468 468>
VStem: -47 906<8 685.5>
LayerCount: 2
UndoRedoHistory
Layer: 1
Undoes
EndUndoes
Redoes
EndRedoes
EndUndoRedoHistory
Fore
SplineSet
554 909 m 128,-1,1
 601 909 601 909 601 897 c 0,2,3
 601 888 601 888 536 821 c 0,4,5
 511 796 511 796 495 780 c 0,6,7
 477 762 477 762 442 762 c 0,8,9
 420 762 420 762 420 771 c 0,10,11
 420 783 420 783 489 883 c 0,12,0
 507 909 507 909 554 909 c 128,-1,1
842 700 m 2,13,14
 859 700 859 700 859 678 c 0,15,16
 859 624 859 624 834 624 c 2,17,-1
 468 624 l 1,18,-1
 494 396 l 1,19,-1
 779 396 l 2,20,21
 796 396 796 396 796 374 c 0,22,23
 796 320 796 320 771 320 c 2,24,-1
 502 320 l 1,25,-1
 530 76 l 1,26,-1
 778 76 l 2,27,28
 795 76 795 76 795 54 c 0,29,30
 795 0 795 0 770 0 c 2,31,-1
 478 0 l 2,32,33
 448 0 448 0 445 29 c 2,34,-1
 429 178 l 1,35,-1
 134 178 l 1,36,-1
 37 14 l 2,37,38
 27 -2 27 -2 -4 -2 c 2,39,-1
 -9 -2 l 2,40,41
 -47 -2 -47 -2 -47 13 c 0,42,43
 -47 20 -47 20 -41 31 c 2,44,-1
 347 673 l 2,45,46
 363 700 363 700 392 700 c 2,47,-1
 842 700 l 2,13,14
360 552 m 1,48,-1
 180 253 l 1,49,-1
 419 253 l 1,50,-1
 389 552 l 1,51,-1
 389 610 l 1,52,-1
 387 610 l 1,53,-1
 360 552 l 1,48,-1
EndSplineSet
Validated: 1
Position2: "'cpsp' Capital Spacing lookup 3 subtable" dx=5 dy=0 dh=10 dv=0
EndChar

StartChar: B
Encoding: 66 66 26
Width: 593
Flags: MW
HStem: 0 76<68.5 295 144 255> 322 76<170 299 178 299 299 304> 624 76<201 201 201 318>
VStem: 450 91<176 252> 453 92<506.5 563>
LayerCount: 2
UndoRedoHistory
Layer: 1
Undoes
EndUndoes
Redoes
EndRedoes
EndUndoRedoHistory
Fore
SplineSet
335 700 m 2,0,1
 437 700 437 700 491 658 c 128,-1,2
 545 616 545 616 545 544 c 0,3,4
 545 488 545 488 505.5 436.5 c 128,-1,5
 466 385 466 385 415 371 c 1,6,-1
 414 367 l 1,7,8
 419 366 419 366 427.5 363 c 128,-1,9
 436 360 436 360 458 348.5 c 128,-1,10
 480 337 480 337 497 322 c 128,-1,11
 514 307 514 307 527.5 279.5 c 128,-1,12
 541 252 541 252 541 219 c 0,13,14
 541 109 541 109 464 54.5 c 128,-1,15
 387 0 387 0 255 0 c 2,16,-1
 78 0 l 2,17,18
 51 0 51 0 51 24 c 0,19,20
 51 28 51 28 118 670 c 0,21,22
 121 700 121 700 151 700 c 2,23,-1
 335 700 l 2,0,1
201 624 m 1,24,-1
 178 398 l 1,25,-1
 299 398 l 2,26,27
 365 398 365 398 409 437 c 128,-1,28
 453 476 453 476 453 532 c 0,29,30
 453 624 453 624 318 624 c 2,31,-1
 201 624 l 1,24,-1
170 322 m 1,32,-1
 144 76 l 1,33,-1
 295 76 l 2,34,35
 365 76 365 76 407.5 115 c 128,-1,36
 450 154 450 154 450 220 c 0,37,38
 450 269 450 269 412.5 295.5 c 128,-1,39
 375 322 375 322 304 322 c 2,40,-1
 170 322 l 1,32,-1
EndSplineSet
Validated: 1
Position2: "'cpsp' Capital Spacing lookup 3 subtable" dx=5 dy=0 dh=10 dv=0
EndChar

StartChar: C
Encoding: 67 67 27
Width: 619
Flags: MW
HStem: -6 76<264.5 366.5> 630 76<296 440>
VStem: 38 90<212 383.5 212 387.5>
LayerCount: 2
UndoRedoHistory
Layer: 1
Undoes
EndUndoes
Redoes
EndRedoes
EndUndoRedoHistory
Fore
SplineSet
407 706 m 0,0,1
 477 706 477 706 533.5 686 c 128,-1,2
 590 666 590 666 590 645 c 0,3,4
 590 633 590 633 574.5 609.5 c 128,-1,5
 559 586 559 586 550 586 c 0,6,7
 548 586 548 586 528 597 c 128,-1,8
 508 608 508 608 471 619 c 128,-1,9
 434 630 434 630 392 630 c 0,10,11
 299 630 299 630 238.5 583.5 c 128,-1,12
 178 537 178 537 153 462.5 c 128,-1,13
 128 388 128 388 128 286 c 0,14,15
 128 175 128 175 178.5 122.5 c 128,-1,16
 229 70 229 70 334 70 c 0,17,18
 382 70 382 70 426 82 c 128,-1,19
 470 94 470 94 494 106 c 128,-1,20
 518 118 518 118 519 118 c 0,21,22
 526 118 526 118 526 107 c 0,23,24
 526 84 526 84 519 52 c 0,25,26
 513 25 513 25 453.5 9.5 c 128,-1,27
 394 -6 394 -6 326 -6 c 0,28,29
 179 -6 179 -6 108.5 62.5 c 128,-1,30
 38 131 38 131 38 274 c 0,31,32
 38 364 38 364 56.5 438 c 128,-1,33
 75 512 75 512 116 574 c 128,-1,34
 157 636 157 636 231 671 c 128,-1,35
 305 706 305 706 407 706 c 0,0,1
EndSplineSet
Validated: 1
Position2: "'cpsp' Capital Spacing lookup 3 subtable" dx=5 dy=0 dh=10 dv=0
EndChar

StartChar: Cacute
Encoding: 262 262 28
Width: 619
Flags: MW
HStem: -6 76<264.5 366.5> 630 76<296 440>
VStem: 38 90<212 383.5 212 387.5>
LayerCount: 2
UndoRedoHistory
Layer: 1
Undoes
EndUndoes
Redoes
EndRedoes
EndUndoRedoHistory
Fore
SplineSet
485 909 m 128,-1,1
 532 909 532 909 532 897 c 0,2,3
 532 888 532 888 467 821 c 0,4,5
 442 796 442 796 426 780 c 0,6,7
 408 762 408 762 373 762 c 0,8,9
 351 762 351 762 351 771 c 0,10,11
 351 783 351 783 420 883 c 0,12,0
 438 909 438 909 485 909 c 128,-1,1
407 706 m 0,13,14
 477 706 477 706 533.5 686 c 128,-1,15
 590 666 590 666 590 645 c 0,16,17
 590 633 590 633 574.5 609.5 c 128,-1,18
 559 586 559 586 550 586 c 0,19,20
 548 586 548 586 528 597 c 128,-1,21
 508 608 508 608 471 619 c 128,-1,22
 434 630 434 630 392 630 c 0,23,24
 299 630 299 630 238.5 583.5 c 128,-1,25
 178 537 178 537 153 462.5 c 128,-1,26
 128 388 128 388 128 286 c 0,27,28
 128 175 128 175 178.5 122.5 c 128,-1,29
 229 70 229 70 334 70 c 0,30,31
 382 70 382 70 426 82 c 128,-1,32
 470 94 470 94 494 106 c 128,-1,33
 518 118 518 118 519 118 c 0,34,35
 526 118 526 118 526 107 c 0,36,37
 526 84 526 84 519 52 c 0,38,39
 513 25 513 25 453.5 9.5 c 128,-1,40
 394 -6 394 -6 326 -6 c 0,41,42
 179 -6 179 -6 108.5 62.5 c 128,-1,43
 38 131 38 131 38 274 c 0,44,45
 38 364 38 364 56.5 438 c 128,-1,46
 75 512 75 512 116 574 c 128,-1,47
 157 636 157 636 231 671 c 128,-1,48
 305 706 305 706 407 706 c 0,13,14
EndSplineSet
Validated: 1
Substitution2: "'locl' Localized Forms in Latin lookup 12 subtable" Cacute.loclPLK
Substitution2: "'aalt' Access All Alternates lookup 0 subtable" Cacute.loclPLK
Position2: "'cpsp' Capital Spacing lookup 3 subtable" dx=5 dy=0 dh=10 dv=0
EndChar

StartChar: Ccaron
Encoding: 268 268 29
Width: 619
Flags: MW
HStem: -6 76<264.5 366.5> 630 76<296 440> 759 142<312 382 312 407>
VStem: 38 90<212 383.5 212 387.5>
LayerCount: 2
UndoRedoHistory
Layer: 1
Undoes
EndUndoes
Redoes
EndRedoes
EndUndoRedoHistory
Fore
SplineSet
507 901 m 2,0,1
 529 901 529 901 529 887 c 0,2,3
 529 879 529 879 522 869 c 2,4,-1
 455 781 l 2,5,6
 439 759 439 759 407 759 c 2,7,-1
 382 759 l 2,8,9
 350 759 350 759 338 781 c 2,10,-1
 292 869 l 2,11,12
 287 878 287 878 287 887 c 1,13,14
 289 901 289 901 312 901 c 2,15,-1
 314 901 l 2,16,17
 334 901 334 901 347 888 c 1,18,-1
 400 814 l 1,19,-1
 471 888 l 1,20,21
 487 901 487 901 505 901 c 2,22,-1
 507 901 l 2,0,1
407 706 m 0,23,24
 477 706 477 706 533.5 686 c 128,-1,25
 590 666 590 666 590 645 c 0,26,27
 590 633 590 633 574.5 609.5 c 128,-1,28
 559 586 559 586 550 586 c 0,29,30
 548 586 548 586 528 597 c 128,-1,31
 508 608 508 608 471 619 c 128,-1,32
 434 630 434 630 392 630 c 0,33,34
 299 630 299 630 238.5 583.5 c 128,-1,35
 178 537 178 537 153 462.5 c 128,-1,36
 128 388 128 388 128 286 c 0,37,38
 128 175 128 175 178.5 122.5 c 128,-1,39
 229 70 229 70 334 70 c 0,40,41
 382 70 382 70 426 82 c 128,-1,42
 470 94 470 94 494 106 c 128,-1,43
 518 118 518 118 519 118 c 0,44,45
 526 118 526 118 526 107 c 0,46,47
 526 84 526 84 519 52 c 0,48,49
 513 25 513 25 453.5 9.5 c 128,-1,50
 394 -6 394 -6 326 -6 c 0,51,52
 179 -6 179 -6 108.5 62.5 c 128,-1,53
 38 131 38 131 38 274 c 0,54,55
 38 364 38 364 56.5 438 c 128,-1,56
 75 512 75 512 116 574 c 128,-1,57
 157 636 157 636 231 671 c 128,-1,58
 305 706 305 706 407 706 c 0,23,24
EndSplineSet
Validated: 1
Position2: "'cpsp' Capital Spacing lookup 3 subtable" dx=5 dy=0 dh=10 dv=0
EndChar

StartChar: Ccedilla
Encoding: 199 199 30
Width: 619
Flags: MW
HStem: -210 49<257 274.5 238.5 293.5> -6 76<330 330> -5 75 630 76<296 440>
VStem: 38 90<212 383.5 212 387.5> 322 72<-139 -102>
LayerCount: 2
UndoRedoHistory
Layer: 1
Undoes
EndUndoes
Redoes
EndRedoes
EndUndoRedoHistory
Fore
SplineSet
316 -49 m 2,0,1
 331 -49 331 -49 346 -52 c 128,-1,2
 361 -55 361 -55 377.5 -70.5 c 128,-1,3
 394 -86 394 -86 394 -111 c 0,4,5
 394 -210 394 -210 269 -210 c 0,6,7
 257 -210 257 -210 243 -208.5 c 128,-1,8
 229 -207 229 -207 212 -203 c 128,-1,9
 195 -199 195 -199 183.5 -190.5 c 128,-1,10
 172 -182 172 -182 172 -169 c 0,11,12
 172 -136 172 -136 184 -136 c 1,13,-1
 194 -142 l 2,14,15
 204 -148 204 -148 222.5 -154.5 c 128,-1,16
 241 -161 241 -161 262 -161 c 0,17,18
 322 -161 322 -161 322 -121 c 0,19,20
 322 -108 322 -108 312.5 -100.5 c 128,-1,21
 303 -93 303 -93 292 -90.5 c 128,-1,22
 281 -88 281 -88 271.5 -82.5 c 128,-1,23
 262 -77 262 -77 262 -69 c 1,24,25
 268 -52 268 -52 287 -5 c 1,26,27
 161 4 161 4 99.5 72.5 c 128,-1,28
 38 141 38 141 38 274 c 0,29,30
 38 364 38 364 56.5 438 c 128,-1,31
 75 512 75 512 116 574 c 128,-1,32
 157 636 157 636 231 671 c 128,-1,33
 305 706 305 706 407 706 c 0,34,35
 477 706 477 706 533.5 686 c 128,-1,36
 590 666 590 666 590 645 c 0,37,38
 590 633 590 633 574.5 609.5 c 128,-1,39
 559 586 559 586 550 586 c 0,40,41
 548 586 548 586 528 597 c 128,-1,42
 508 608 508 608 471 619 c 128,-1,43
 434 630 434 630 392 630 c 0,44,45
 299 630 299 630 238.5 583.5 c 128,-1,46
 178 537 178 537 153 462.5 c 128,-1,47
 128 388 128 388 128 286 c 0,48,49
 128 175 128 175 178.5 122.5 c 128,-1,50
 229 70 229 70 334 70 c 0,51,52
 382 70 382 70 426 82 c 128,-1,53
 470 94 470 94 494 106 c 128,-1,54
 518 118 518 118 519 118 c 0,55,56
 526 118 526 118 526 107 c 0,57,58
 526 84 526 84 519 52 c 0,59,60
 513 26 513 26 455 10.5 c 128,-1,61
 397 -5 397 -5 330 -6 c 1,62,-1
 312 -49 l 1,63,-1
 316 -49 l 2,0,1
EndSplineSet
Validated: 1
Position2: "'cpsp' Capital Spacing lookup 3 subtable" dx=5 dy=0 dh=10 dv=0
EndChar

StartChar: Ccircumflex
Encoding: 264 264 31
Width: 619
Flags: MW
HStem: -6 76<264.5 366.5> 630 76<296 440> 753 142<282 414 289 414 389 482 389 484>
VStem: 38 90<212 383.5 212 387.5>
LayerCount: 2
UndoRedoHistory
Layer: 1
Undoes
EndUndoes
Redoes
EndRedoes
EndUndoRedoHistory
Fore
SplineSet
414 895 m 2,0,1
 446 895 446 895 458 873 c 2,2,-1
 505 785 l 2,3,4
 510 777 510 777 510 768 c 1,5,6
 508 753 508 753 484 753 c 2,7,-1
 482 753 l 2,8,9
 463 753 463 753 450 766 c 1,10,-1
 395 840 l 1,11,-1
 326 766 l 1,12,13
 310 753 310 753 291 753 c 2,14,-1
 289 753 l 2,15,16
 268 753 268 753 268 765 c 0,17,18
 268 774 268 774 275 785 c 2,19,-1
 341 873 l 2,20,21
 357 895 357 895 389 895 c 2,22,-1
 414 895 l 2,0,1
407 706 m 0,23,24
 477 706 477 706 533.5 686 c 128,-1,25
 590 666 590 666 590 645 c 0,26,27
 590 633 590 633 574.5 609.5 c 128,-1,28
 559 586 559 586 550 586 c 0,29,30
 548 586 548 586 528 597 c 128,-1,31
 508 608 508 608 471 619 c 128,-1,32
 434 630 434 630 392 630 c 0,33,34
 299 630 299 630 238.5 583.5 c 128,-1,35
 178 537 178 537 153 462.5 c 128,-1,36
 128 388 128 388 128 286 c 0,37,38
 128 175 128 175 178.5 122.5 c 128,-1,39
 229 70 229 70 334 70 c 0,40,41
 382 70 382 70 426 82 c 128,-1,42
 470 94 470 94 494 106 c 128,-1,43
 518 118 518 118 519 118 c 0,44,45
 526 118 526 118 526 107 c 0,46,47
 526 84 526 84 519 52 c 0,48,49
 513 25 513 25 453.5 9.5 c 128,-1,50
 394 -6 394 -6 326 -6 c 0,51,52
 179 -6 179 -6 108.5 62.5 c 128,-1,53
 38 131 38 131 38 274 c 0,54,55
 38 364 38 364 56.5 438 c 128,-1,56
 75 512 75 512 116 574 c 128,-1,57
 157 636 157 636 231 671 c 128,-1,58
 305 706 305 706 407 706 c 0,23,24
EndSplineSet
Validated: 1
Position2: "'cpsp' Capital Spacing lookup 3 subtable" dx=5 dy=0 dh=10 dv=0
EndChar

StartChar: Cdotaccent
Encoding: 266 266 32
Width: 619
Flags: MW
HStem: -6 76<264.5 366.5> 630 76<296 440> 784 95<390 408>
VStem: 38 90<212 383.5 212 387.5> 355 89<799 864>
LayerCount: 2
UndoRedoHistory
Layer: 1
Undoes
EndUndoes
Redoes
EndRedoes
EndUndoRedoHistory
Fore
SplineSet
360 857 m 2,0,1
 363 879 363 879 406 879 c 0,2,3
 444 879 444 879 444 857 c 1,4,-1
 439 806 l 2,5,6
 436 784 436 784 393 784 c 0,7,8
 355 784 355 784 355 806 c 1,9,-1
 360 857 l 2,0,1
407 706 m 0,10,11
 477 706 477 706 533.5 686 c 128,-1,12
 590 666 590 666 590 645 c 0,13,14
 590 633 590 633 574.5 609.5 c 128,-1,15
 559 586 559 586 550 586 c 0,16,17
 548 586 548 586 528 597 c 128,-1,18
 508 608 508 608 471 619 c 128,-1,19
 434 630 434 630 392 630 c 0,20,21
 299 630 299 630 238.5 583.5 c 128,-1,22
 178 537 178 537 153 462.5 c 128,-1,23
 128 388 128 388 128 286 c 0,24,25
 128 175 128 175 178.5 122.5 c 128,-1,26
 229 70 229 70 334 70 c 0,27,28
 382 70 382 70 426 82 c 128,-1,29
 470 94 470 94 494 106 c 128,-1,30
 518 118 518 118 519 118 c 0,31,32
 526 118 526 118 526 107 c 0,33,34
 526 84 526 84 519 52 c 0,35,36
 513 25 513 25 453.5 9.5 c 128,-1,37
 394 -6 394 -6 326 -6 c 0,38,39
 179 -6 179 -6 108.5 62.5 c 128,-1,40
 38 131 38 131 38 274 c 0,41,42
 38 364 38 364 56.5 438 c 128,-1,43
 75 512 75 512 116 574 c 128,-1,44
 157 636 157 636 231 671 c 128,-1,45
 305 706 305 706 407 706 c 0,10,11
EndSplineSet
Validated: 1
Position2: "'cpsp' Capital Spacing lookup 3 subtable" dx=5 dy=0 dh=10 dv=0
EndChar

StartChar: D
Encoding: 68 68 33
Width: 695
Flags: MW
HStem: 0 76<67.5 293 143 292> 624 76<200 200 200 350>
VStem: 552 91<282 484>
LayerCount: 2
UndoRedoHistory
Layer: 1
Undoes
EndUndoes
Redoes
EndRedoes
EndUndoRedoHistory
Fore
SplineSet
365 700 m 2,0,1
 492 700 492 700 567.5 631.5 c 128,-1,2
 643 563 643 563 643 415 c 0,3,4
 643 303 643 303 614 220 c 128,-1,5
 585 137 585 137 534 90.5 c 128,-1,6
 483 44 483 44 423 22 c 128,-1,7
 363 0 363 0 292 0 c 2,8,-1
 77 0 l 2,9,10
 50 0 50 0 50 24 c 0,11,12
 50 30 50 30 61.5 140.5 c 128,-1,13
 73 251 73 251 91 419 c 128,-1,14
 109 587 109 587 117 670 c 0,15,16
 120 700 120 700 150 700 c 2,17,-1
 365 700 l 2,0,1
200 624 m 1,18,-1
 143 76 l 1,19,-1
 293 76 l 2,20,21
 402 76 402 76 477 155.5 c 128,-1,22
 552 235 552 235 552 401 c 0,23,24
 552 519 552 519 497.5 571.5 c 128,-1,25
 443 624 443 624 350 624 c 2,26,-1
 200 624 l 1,18,-1
EndSplineSet
Validated: 1
Position2: "'cpsp' Capital Spacing lookup 3 subtable" dx=5 dy=0 dh=10 dv=0
EndChar

StartChar: DZ
Encoding: 497 497 34
Width: 1311
Flags: MW
HStem: 0 76<67.5 293 143 292 824 1208> 624 76<200 350 200 200 821 1174>
VStem: 552 91<282 484>
LayerCount: 2
UndoRedoHistory
Layer: 1
Undoes
EndUndoes
Redoes
EndRedoes
EndUndoRedoHistory
Fore
SplineSet
365 700 m 2,0,1
 492 700 492 700 567.5 631.5 c 128,-1,2
 643 563 643 563 643 415 c 0,3,4
 643 303 643 303 614 220 c 128,-1,5
 585 137 585 137 534 90.5 c 128,-1,6
 483 44 483 44 423 22 c 128,-1,7
 363 0 363 0 292 0 c 2,8,-1
 77 0 l 2,9,10
 50 0 50 0 50 24 c 0,11,12
 50 30 50 30 61.5 140.5 c 128,-1,13
 73 251 73 251 91 419 c 128,-1,14
 109 587 109 587 117 670 c 0,15,16
 120 700 120 700 150 700 c 2,17,-1
 365 700 l 2,0,1
1280 700 m 2,18,19
 1285 700 1285 700 1291 683.5 c 128,-1,20
 1297 667 1297 667 1297 652 c 0,21,22
 1297 640 1297 640 1292 635 c 2,23,-1
 824 76 l 1,24,-1
 1216 76 l 2,25,26
 1233 76 1233 76 1233 54 c 0,27,28
 1233 0 1233 0 1208 0 c 2,29,-1
 720 0 l 2,30,31
 713 0 713 0 707 16.5 c 128,-1,32
 701 33 701 33 701 48 c 0,33,34
 701 60 701 60 706 65 c 2,35,-1
 1174 624 l 1,36,-1
 813 624 l 2,37,38
 796 624 796 624 796 646 c 0,39,40
 796 700 796 700 821 700 c 2,41,-1
 1280 700 l 2,18,19
143 76 m 1,42,-1
 293 76 l 2,43,44
 402 76 402 76 477 155.5 c 128,-1,45
 552 235 552 235 552 401 c 0,46,47
 552 519 552 519 497.5 571.5 c 128,-1,48
 443 624 443 624 350 624 c 2,49,-1
 200 624 l 1,50,-1
 143 76 l 1,42,-1
EndSplineSet
Validated: 1
Position2: "'cpsp' Capital Spacing lookup 3 subtable" dx=5 dy=0 dh=10 dv=0
EndChar

StartChar: DZcaron
Encoding: 452 452 35
Width: 1311
Flags: MW
HStem: 0 76<67.5 293 143 292 824 1208> 624 76<200 350 200 200 821 1174> 759 142<956 1026 956 1051>
VStem: 552 91<282 484>
LayerCount: 2
UndoRedoHistory
Layer: 1
Undoes
EndUndoes
Redoes
EndRedoes
EndUndoRedoHistory
Fore
SplineSet
365 700 m 2,0,1
 492 700 492 700 567.5 631.5 c 128,-1,2
 643 563 643 563 643 415 c 0,3,4
 643 303 643 303 614 220 c 128,-1,5
 585 137 585 137 534 90.5 c 128,-1,6
 483 44 483 44 423 22 c 128,-1,7
 363 0 363 0 292 0 c 2,8,-1
 77 0 l 2,9,10
 50 0 50 0 50 24 c 0,11,12
 50 30 50 30 61.5 140.5 c 128,-1,13
 73 251 73 251 91 419 c 128,-1,14
 109 587 109 587 117 670 c 0,15,16
 120 700 120 700 150 700 c 2,17,-1
 365 700 l 2,0,1
143 76 m 1,18,-1
 293 76 l 2,19,20
 402 76 402 76 477 155.5 c 128,-1,21
 552 235 552 235 552 401 c 0,22,23
 552 519 552 519 497.5 571.5 c 128,-1,24
 443 624 443 624 350 624 c 2,25,-1
 200 624 l 1,26,-1
 143 76 l 1,18,-1
1151 901 m 2,27,28
 1173 901 1173 901 1173 887 c 0,29,30
 1173 879 1173 879 1166 869 c 2,31,-1
 1099 781 l 2,32,33
 1083 759 1083 759 1051 759 c 2,34,-1
 1026 759 l 2,35,36
 994 759 994 759 982 781 c 2,37,-1
 936 869 l 2,38,39
 931 878 931 878 931 887 c 1,40,41
 933 901 933 901 956 901 c 2,42,-1
 958 901 l 2,43,44
 978 901 978 901 991 888 c 1,45,-1
 1044 814 l 1,46,-1
 1115 888 l 1,47,48
 1131 901 1131 901 1149 901 c 2,49,-1
 1151 901 l 2,27,28
1280 700 m 2,50,51
 1285 700 1285 700 1291 683.5 c 128,-1,52
 1297 667 1297 667 1297 652 c 0,53,54
 1297 640 1297 640 1292 635 c 2,55,-1
 824 76 l 1,56,-1
 1216 76 l 2,57,58
 1233 76 1233 76 1233 54 c 0,59,60
 1233 0 1233 0 1208 0 c 2,61,-1
 720 0 l 2,62,63
 713 0 713 0 707 16.5 c 128,-1,64
 701 33 701 33 701 48 c 0,65,66
 701 60 701 60 706 65 c 2,67,-1
 1174 624 l 1,68,-1
 813 624 l 2,69,70
 796 624 796 624 796 646 c 0,71,72
 796 700 796 700 821 700 c 2,73,-1
 1280 700 l 2,50,51
EndSplineSet
Validated: 1
Position2: "'cpsp' Capital Spacing lookup 3 subtable" dx=5 dy=0 dh=10 dv=0
EndChar

StartChar: Eth
Encoding: 208 208 36
Width: 696
Flags: MW
HStem: 0 76<67.5 293 143 292> 320 76<10 88 24 80 176 280> 624 76<200 350 200 200>
VStem: 552 91<282 484>
LayerCount: 2
UndoRedoHistory
Layer: 1
Undoes
EndUndoes
Redoes
EndRedoes
EndUndoRedoHistory
Fore
SplineSet
365 700 m 2,0,1
 492 700 492 700 567.5 631.5 c 128,-1,2
 643 563 643 563 643 415 c 0,3,4
 643 303 643 303 614 220 c 128,-1,5
 585 137 585 137 534 90.5 c 128,-1,6
 483 44 483 44 423 22 c 128,-1,7
 363 0 363 0 292 0 c 2,8,-1
 77 0 l 2,9,10
 50 0 50 0 50 24 c 0,11,12
 50 31 50 31 80 320 c 1,13,-1
 16 320 l 2,14,15
 -1 320 -1 320 -1 342 c 0,16,17
 -1 396 -1 396 24 396 c 2,18,-1
 88 396 l 1,19,-1
 117 670 l 2,20,21
 120 700 120 700 150 700 c 2,22,-1
 365 700 l 2,0,1
293 76 m 2,23,24
 402 76 402 76 477 155.5 c 128,-1,25
 552 235 552 235 552 401 c 0,26,27
 552 519 552 519 497.5 571.5 c 128,-1,28
 443 624 443 624 350 624 c 2,29,-1
 200 624 l 1,30,-1
 176 396 l 1,31,-1
 288 396 l 2,32,33
 305 396 305 396 305 374 c 0,34,35
 305 320 305 320 280 320 c 2,36,-1
 168 320 l 1,37,-1
 143 76 l 1,38,-1
 293 76 l 2,23,24
EndSplineSet
Validated: 1
Position2: "'cpsp' Capital Spacing lookup 3 subtable" dx=5 dy=0 dh=10 dv=0
EndChar

StartChar: Dcaron
Encoding: 270 270 37
Width: 695
Flags: MW
HStem: 0 76<67.5 293 143 292> 624 76<200 350 200 200> 759 142<271 341 271 366>
VStem: 552 91<282 484>
LayerCount: 2
UndoRedoHistory
Layer: 1
Undoes
EndUndoes
Redoes
EndRedoes
EndUndoRedoHistory
Fore
SplineSet
466 901 m 2,0,1
 488 901 488 901 488 887 c 0,2,3
 488 879 488 879 481 869 c 2,4,-1
 414 781 l 2,5,6
 398 759 398 759 366 759 c 2,7,-1
 341 759 l 2,8,9
 309 759 309 759 297 781 c 2,10,-1
 251 869 l 2,11,12
 246 878 246 878 246 887 c 1,13,14
 248 901 248 901 271 901 c 2,15,-1
 273 901 l 2,16,17
 293 901 293 901 306 888 c 1,18,-1
 359 814 l 1,19,-1
 430 888 l 1,20,21
 446 901 446 901 464 901 c 2,22,-1
 466 901 l 2,0,1
365 700 m 2,23,24
 492 700 492 700 567.5 631.5 c 128,-1,25
 643 563 643 563 643 415 c 0,26,27
 643 303 643 303 614 220 c 128,-1,28
 585 137 585 137 534 90.5 c 128,-1,29
 483 44 483 44 423 22 c 128,-1,30
 363 0 363 0 292 0 c 2,31,-1
 77 0 l 2,32,33
 50 0 50 0 50 24 c 0,34,35
 50 30 50 30 61.5 140.5 c 128,-1,36
 73 251 73 251 91 419 c 128,-1,37
 109 587 109 587 117 670 c 0,38,39
 120 700 120 700 150 700 c 2,40,-1
 365 700 l 2,23,24
143 76 m 1,41,-1
 293 76 l 2,42,43
 402 76 402 76 477 155.5 c 128,-1,44
 552 235 552 235 552 401 c 0,45,46
 552 519 552 519 497.5 571.5 c 128,-1,47
 443 624 443 624 350 624 c 2,48,-1
 200 624 l 1,49,-1
 143 76 l 1,41,-1
EndSplineSet
Validated: 1
Position2: "'cpsp' Capital Spacing lookup 3 subtable" dx=5 dy=0 dh=10 dv=0
EndChar

StartChar: Dcroat
Encoding: 272 272 38
Width: 696
Flags: MW
HStem: 0 76<67.5 293 143 292> 320 76<10 88 24 80 176 280> 624 76<200 350 200 200>
VStem: 552 91<282 484>
LayerCount: 2
UndoRedoHistory
Layer: 1
Undoes
EndUndoes
Redoes
EndRedoes
EndUndoRedoHistory
Fore
SplineSet
365 700 m 2,0,1
 492 700 492 700 567.5 631.5 c 128,-1,2
 643 563 643 563 643 415 c 0,3,4
 643 303 643 303 614 220 c 128,-1,5
 585 137 585 137 534 90.5 c 128,-1,6
 483 44 483 44 423 22 c 128,-1,7
 363 0 363 0 292 0 c 2,8,-1
 77 0 l 2,9,10
 50 0 50 0 50 24 c 0,11,12
 50 31 50 31 80 320 c 1,13,-1
 16 320 l 2,14,15
 -1 320 -1 320 -1 342 c 0,16,17
 -1 396 -1 396 24 396 c 2,18,-1
 88 396 l 1,19,-1
 117 670 l 2,20,21
 120 700 120 700 150 700 c 2,22,-1
 365 700 l 2,0,1
293 76 m 2,23,24
 402 76 402 76 477 155.5 c 128,-1,25
 552 235 552 235 552 401 c 0,26,27
 552 519 552 519 497.5 571.5 c 128,-1,28
 443 624 443 624 350 624 c 2,29,-1
 200 624 l 1,30,-1
 176 396 l 1,31,-1
 288 396 l 2,32,33
 305 396 305 396 305 374 c 0,34,35
 305 320 305 320 280 320 c 2,36,-1
 168 320 l 1,37,-1
 143 76 l 1,38,-1
 293 76 l 2,23,24
EndSplineSet
Validated: 1
Position2: "'cpsp' Capital Spacing lookup 3 subtable" dx=5 dy=0 dh=10 dv=0
EndChar

StartChar: Ddotbelow
Encoding: 7692 7692 39
Width: 695
Flags: MW
HStem: -175 95<267 285> 0 76<67.5 293 143 292> 624 76<200 350 200 200>
VStem: 232 89<-160 -95> 552 91<282 484>
LayerCount: 2
UndoRedoHistory
Layer: 1
Undoes
EndUndoes
Redoes
EndRedoes
EndUndoRedoHistory
Fore
SplineSet
365 700 m 2,0,1
 492 700 492 700 567.5 631.5 c 128,-1,2
 643 563 643 563 643 415 c 0,3,4
 643 303 643 303 614 220 c 128,-1,5
 585 137 585 137 534 90.5 c 128,-1,6
 483 44 483 44 423 22 c 128,-1,7
 363 0 363 0 292 0 c 2,8,-1
 77 0 l 2,9,10
 50 0 50 0 50 24 c 0,11,12
 50 30 50 30 61.5 140.5 c 128,-1,13
 73 251 73 251 91 419 c 128,-1,14
 109 587 109 587 117 670 c 0,15,16
 120 700 120 700 150 700 c 2,17,-1
 365 700 l 2,0,1
143 76 m 1,18,-1
 293 76 l 2,19,20
 402 76 402 76 477 155.5 c 128,-1,21
 552 235 552 235 552 401 c 0,22,23
 552 519 552 519 497.5 571.5 c 128,-1,24
 443 624 443 624 350 624 c 2,25,-1
 200 624 l 1,26,-1
 143 76 l 1,18,-1
237 -102 m 2,27,28
 240 -80 240 -80 283 -80 c 0,29,30
 321 -80 321 -80 321 -102 c 1,31,-1
 316 -153 l 2,32,33
 313 -175 313 -175 270 -175 c 0,34,35
 232 -175 232 -175 232 -153 c 1,36,-1
 237 -102 l 2,27,28
EndSplineSet
Validated: 1
Position2: "'cpsp' Capital Spacing lookup 3 subtable" dx=5 dy=0 dh=10 dv=0
EndChar

StartChar: Dz
Encoding: 498 498 40
Width: 1184
Flags: MW
HStem: 0 72<829 1096> 0 76<67.5 293 143 292> 451 72<784 1150 799 1047> 624 76<200 350 200 200>
VStem: 552 91<282 484>
LayerCount: 2
UndoRedoHistory
Layer: 1
Undoes
EndUndoes
Redoes
EndRedoes
EndUndoRedoHistory
Fore
SplineSet
365 700 m 2,0,1
 492 700 492 700 567.5 631.5 c 128,-1,2
 643 563 643 563 643 415 c 0,3,4
 643 303 643 303 614 220 c 128,-1,5
 585 137 585 137 534 90.5 c 128,-1,6
 483 44 483 44 423 22 c 128,-1,7
 363 0 363 0 292 0 c 2,8,-1
 77 0 l 2,9,10
 50 0 50 0 50 24 c 0,11,12
 50 30 50 30 61.5 140.5 c 128,-1,13
 73 251 73 251 91 419 c 128,-1,14
 109 587 109 587 117 670 c 0,15,16
 120 700 120 700 150 700 c 2,17,-1
 365 700 l 2,0,1
143 76 m 1,18,-1
 293 76 l 2,19,20
 402 76 402 76 477 155.5 c 128,-1,21
 552 235 552 235 552 401 c 0,22,23
 552 519 552 519 497.5 571.5 c 128,-1,24
 443 624 443 624 350 624 c 2,25,-1
 200 624 l 1,26,-1
 143 76 l 1,18,-1
1150 523 m 2,27,28
 1156 523 1156 523 1160.5 507 c 128,-1,29
 1165 491 1165 491 1165 475 c 0,30,31
 1165 465 1165 465 1161 461 c 2,32,-1
 829 72 l 1,33,-1
 1104 72 l 2,34,35
 1121 72 1121 72 1121 45 c 0,36,37
 1121 0 1121 0 1096 0 c 2,38,-1
 726 0 l 2,39,40
 721 0 721 0 715 15.5 c 128,-1,41
 709 31 709 31 709 46 c 0,42,43
 709 57 709 57 714 62 c 2,44,-1
 1047 451 l 1,45,-1
 791 451 l 2,46,47
 774 451 774 451 774 478 c 0,48,49
 774 523 774 523 799 523 c 2,50,-1
 1150 523 l 2,27,28
EndSplineSet
Validated: 1
Position2: "'cpsp' Capital Spacing lookup 3 subtable" dx=5 dy=0 dh=10 dv=0
EndChar

StartChar: Dzcaron
Encoding: 453 453 41
Width: 1184
Flags: MW
HStem: 0 72<829 1096> 0 76<67.5 293 143 292> 451 72<784 1150 799 1047> 624 76<200 350 200 200>
VStem: 552 91<282 484>
LayerCount: 2
UndoRedoHistory
Layer: 1
Undoes
EndUndoes
Redoes
EndRedoes
EndUndoRedoHistory
Fore
SplineSet
365 700 m 2,0,1
 492 700 492 700 567.5 631.5 c 128,-1,2
 643 563 643 563 643 415 c 0,3,4
 643 303 643 303 614 220 c 128,-1,5
 585 137 585 137 534 90.5 c 128,-1,6
 483 44 483 44 423 22 c 128,-1,7
 363 0 363 0 292 0 c 2,8,-1
 77 0 l 2,9,10
 50 0 50 0 50 24 c 0,11,12
 50 30 50 30 61.5 140.5 c 128,-1,13
 73 251 73 251 91 419 c 128,-1,14
 109 587 109 587 117 670 c 0,15,16
 120 700 120 700 150 700 c 2,17,-1
 365 700 l 2,0,1
143 76 m 1,18,-1
 293 76 l 2,19,20
 402 76 402 76 477 155.5 c 128,-1,21
 552 235 552 235 552 401 c 0,22,23
 552 519 552 519 497.5 571.5 c 128,-1,24
 443 624 443 624 350 624 c 2,25,-1
 200 624 l 1,26,-1
 143 76 l 1,18,-1
1150 523 m 2,27,28
 1156 523 1156 523 1160.5 507 c 128,-1,29
 1165 491 1165 491 1165 475 c 0,30,31
 1165 465 1165 465 1161 461 c 2,32,-1
 829 72 l 1,33,-1
 1104 72 l 2,34,35
 1121 72 1121 72 1121 45 c 0,36,37
 1121 0 1121 0 1096 0 c 2,38,-1
 726 0 l 2,39,40
 721 0 721 0 715 15.5 c 128,-1,41
 709 31 709 31 709 46 c 0,42,43
 709 57 709 57 714 62 c 2,44,-1
 1047 451 l 1,45,-1
 791 451 l 2,46,47
 774 451 774 451 774 478 c 0,48,49
 774 523 774 523 799 523 c 2,50,-1
 1150 523 l 2,27,28
1088 724 m 2,51,52
 1110 724 1110 724 1110 710 c 0,53,54
 1110 702 1110 702 1103 692 c 2,55,-1
 1036 604 l 2,56,57
 1020 582 1020 582 988 582 c 2,58,-1
 963 582 l 2,59,60
 931 582 931 582 919 604 c 2,61,-1
 873 692 l 2,62,63
 868 701 868 701 868 710 c 1,64,65
 870 724 870 724 893 724 c 2,66,-1
 895 724 l 2,67,68
 915 724 915 724 928 711 c 1,69,-1
 981 637 l 1,70,-1
 1052 711 l 1,71,72
 1068 724 1068 724 1086 724 c 2,73,-1
 1088 724 l 2,51,52
EndSplineSet
Validated: 1
Position2: "'cpsp' Capital Spacing lookup 3 subtable" dx=5 dy=0 dh=10 dv=0
EndChar

StartChar: E
Encoding: 69 69 42
Width: 546
Flags: MW
HStem: 0 76<62.5 434 138 426> 320 76<171 427 163 435> 624 76<195 490 195 195>
VStem: 45 470
LayerCount: 2
UndoRedoHistory
Layer: 1
Undoes
EndUndoes
Redoes
EndRedoes
EndUndoRedoHistory
Fore
SplineSet
498 700 m 2,0,1
 515 700 515 700 515 678 c 0,2,3
 515 624 515 624 490 624 c 2,4,-1
 195 624 l 1,5,-1
 171 396 l 1,6,-1
 435 396 l 2,7,8
 452 396 452 396 452 374 c 0,9,10
 452 320 452 320 427 320 c 2,11,-1
 163 320 l 1,12,-1
 138 76 l 1,13,-1
 434 76 l 2,14,15
 451 76 451 76 451 54 c 0,16,17
 451 0 451 0 426 0 c 2,18,-1
 72 0 l 2,19,20
 45 0 45 0 45 24 c 0,21,22
 45 28 45 28 112 670 c 0,23,24
 115 700 115 700 145 700 c 2,25,-1
 498 700 l 2,0,1
EndSplineSet
Validated: 1
Position2: "'cpsp' Capital Spacing lookup 3 subtable" dx=5 dy=0 dh=10 dv=0
EndChar

StartChar: Eacute
Encoding: 201 201 43
Width: 546
Flags: MW
HStem: 0 76<62.5 434 138 426> 320 76<171 427 163 435> 624 76<195 490 195 195>
VStem: 45 470
LayerCount: 2
UndoRedoHistory
Layer: 1
Undoes
EndUndoes
Redoes
EndRedoes
EndUndoRedoHistory
Fore
SplineSet
419 909 m 128,-1,1
 466 909 466 909 466 897 c 0,2,3
 466 888 466 888 401 821 c 0,4,5
 376 796 376 796 360 780 c 0,6,7
 342 762 342 762 307 762 c 0,8,9
 285 762 285 762 285 771 c 0,10,11
 285 783 285 783 354 883 c 0,12,0
 372 909 372 909 419 909 c 128,-1,1
498 700 m 2,13,14
 515 700 515 700 515 678 c 0,15,16
 515 624 515 624 490 624 c 2,17,-1
 195 624 l 1,18,-1
 171 396 l 1,19,-1
 435 396 l 2,20,21
 452 396 452 396 452 374 c 0,22,23
 452 320 452 320 427 320 c 2,24,-1
 163 320 l 1,25,-1
 138 76 l 1,26,-1
 434 76 l 2,27,28
 451 76 451 76 451 54 c 0,29,30
 451 0 451 0 426 0 c 2,31,-1
 72 0 l 2,32,33
 45 0 45 0 45 24 c 0,34,35
 45 28 45 28 112 670 c 0,36,37
 115 700 115 700 145 700 c 2,38,-1
 498 700 l 2,13,14
EndSplineSet
Validated: 1
Position2: "'cpsp' Capital Spacing lookup 3 subtable" dx=5 dy=0 dh=10 dv=0
EndChar

StartChar: Ebreve
Encoding: 276 276 44
Width: 546
Flags: MW
HStem: 0 76<62.5 434 138 426> 320 76<171 427 163 435> 624 76<195 490 195 195> 762 66<310.5 359 310.5 361.5>
VStem: 45 470
LayerCount: 2
UndoRedoHistory
Layer: 1
Undoes
EndUndoes
Redoes
EndRedoes
EndUndoRedoHistory
Fore
SplineSet
470 892 m 0,0,1
 484 892 484 892 484 880 c 0,2,3
 484 825 484 825 434.5 793.5 c 128,-1,4
 385 762 385 762 328 762 c 0,5,6
 273 762 273 762 233.5 789 c 128,-1,7
 194 816 194 816 194 865 c 0,8,9
 194 892 194 892 211 892 c 0,10,11
 217 892 217 892 220.5 890 c 128,-1,12
 224 888 224 888 225 885.5 c 128,-1,13
 226 883 226 883 227.5 877 c 128,-1,14
 229 871 229 871 231 867 c 0,15,16
 248 828 248 828 335 828 c 0,17,18
 421 828 421 828 446 867 c 0,19,20
 449 872 449 872 452 880 c 128,-1,21
 455 888 455 888 458.5 890 c 128,-1,22
 462 892 462 892 470 892 c 0,0,1
498 700 m 2,23,24
 515 700 515 700 515 678 c 0,25,26
 515 624 515 624 490 624 c 2,27,-1
 195 624 l 1,28,-1
 171 396 l 1,29,-1
 435 396 l 2,30,31
 452 396 452 396 452 374 c 0,32,33
 452 320 452 320 427 320 c 2,34,-1
 163 320 l 1,35,-1
 138 76 l 1,36,-1
 434 76 l 2,37,38
 451 76 451 76 451 54 c 0,39,40
 451 0 451 0 426 0 c 2,41,-1
 72 0 l 2,42,43
 45 0 45 0 45 24 c 0,44,45
 45 28 45 28 112 670 c 0,46,47
 115 700 115 700 145 700 c 2,48,-1
 498 700 l 2,23,24
EndSplineSet
Validated: 1
Position2: "'cpsp' Capital Spacing lookup 3 subtable" dx=5 dy=0 dh=10 dv=0
EndChar

StartChar: Ecaron
Encoding: 282 282 45
Width: 546
Flags: MW
HStem: 0 76<62.5 434 138 426> 320 76<171 427 163 435> 624 76<195 490 195 195> 759 142<246 316 246 341>
VStem: 45 470
LayerCount: 2
UndoRedoHistory
Layer: 1
Undoes
EndUndoes
Redoes
EndRedoes
EndUndoRedoHistory
Fore
SplineSet
441 901 m 2,0,1
 463 901 463 901 463 887 c 0,2,3
 463 879 463 879 456 869 c 2,4,-1
 389 781 l 2,5,6
 373 759 373 759 341 759 c 2,7,-1
 316 759 l 2,8,9
 284 759 284 759 272 781 c 2,10,-1
 226 869 l 2,11,12
 221 878 221 878 221 887 c 1,13,14
 223 901 223 901 246 901 c 2,15,-1
 248 901 l 2,16,17
 268 901 268 901 281 888 c 1,18,-1
 334 814 l 1,19,-1
 405 888 l 1,20,21
 421 901 421 901 439 901 c 2,22,-1
 441 901 l 2,0,1
498 700 m 2,23,24
 515 700 515 700 515 678 c 0,25,26
 515 624 515 624 490 624 c 2,27,-1
 195 624 l 1,28,-1
 171 396 l 1,29,-1
 435 396 l 2,30,31
 452 396 452 396 452 374 c 0,32,33
 452 320 452 320 427 320 c 2,34,-1
 163 320 l 1,35,-1
 138 76 l 1,36,-1
 434 76 l 2,37,38
 451 76 451 76 451 54 c 0,39,40
 451 0 451 0 426 0 c 2,41,-1
 72 0 l 2,42,43
 45 0 45 0 45 24 c 0,44,45
 45 28 45 28 112 670 c 0,46,47
 115 700 115 700 145 700 c 2,48,-1
 498 700 l 2,23,24
EndSplineSet
Validated: 1
Position2: "'cpsp' Capital Spacing lookup 3 subtable" dx=5 dy=0 dh=10 dv=0
EndChar

StartChar: Ecircumflex
Encoding: 202 202 46
Width: 546
Flags: MW
HStem: 0 76<62.5 434 138 426> 320 76<171 427 163 435> 624 76<195 490 195 195> 753 142<216 348 223 348 323 416 323 418>
VStem: 45 470
LayerCount: 2
UndoRedoHistory
Layer: 1
Undoes
EndUndoes
Redoes
EndRedoes
EndUndoRedoHistory
Fore
SplineSet
348 895 m 2,0,1
 380 895 380 895 392 873 c 2,2,-1
 439 785 l 2,3,4
 444 777 444 777 444 768 c 1,5,6
 442 753 442 753 418 753 c 2,7,-1
 416 753 l 2,8,9
 397 753 397 753 384 766 c 1,10,-1
 329 840 l 1,11,-1
 260 766 l 1,12,13
 244 753 244 753 225 753 c 2,14,-1
 223 753 l 2,15,16
 202 753 202 753 202 765 c 0,17,18
 202 774 202 774 209 785 c 2,19,-1
 275 873 l 2,20,21
 291 895 291 895 323 895 c 2,22,-1
 348 895 l 2,0,1
498 700 m 2,23,24
 515 700 515 700 515 678 c 0,25,26
 515 624 515 624 490 624 c 2,27,-1
 195 624 l 1,28,-1
 171 396 l 1,29,-1
 435 396 l 2,30,31
 452 396 452 396 452 374 c 0,32,33
 452 320 452 320 427 320 c 2,34,-1
 163 320 l 1,35,-1
 138 76 l 1,36,-1
 434 76 l 2,37,38
 451 76 451 76 451 54 c 0,39,40
 451 0 451 0 426 0 c 2,41,-1
 72 0 l 2,42,43
 45 0 45 0 45 24 c 0,44,45
 45 28 45 28 112 670 c 0,46,47
 115 700 115 700 145 700 c 2,48,-1
 498 700 l 2,23,24
EndSplineSet
Validated: 1
Position2: "'cpsp' Capital Spacing lookup 3 subtable" dx=5 dy=0 dh=10 dv=0
EndChar

StartChar: Ecircumflexacute
Encoding: 7870 7870 47
Width: 546
Flags: MW
HStem: 0 76<62.5 434 138 426> 320 76<171 427 163 435> 624 76<195 490 195 195>
VStem: 45 541
LayerCount: 2
UndoRedoHistory
Layer: 1
Undoes
EndUndoes
Redoes
EndRedoes
EndUndoRedoHistory
Fore
SplineSet
554 961 m 0,0,1
 586 961 586 961 586 949 c 0,2,3
 586 943 586 943 494 842 c 1,4,5
 479 824 479 824 456 824 c 0,6,7
 434 824 434 824 434 833 c 0,8,9
 434 847 434 847 489 935 c 0,10,11
 505 961 505 961 554 961 c 0,0,1
356 895 m 2,12,13
 380 895 380 895 390 873 c 2,14,-1
 432 785 l 1,15,16
 437 777 437 777 437 768 c 1,17,18
 435 753 435 753 411 753 c 2,19,-1
 409 753 l 2,20,21
 384 753 384 753 377 766 c 2,22,-1
 337 840 l 1,23,-1
 268 766 l 1,24,25
 252 753 252 753 233 753 c 2,26,-1
 231 753 l 2,27,28
 210 753 210 753 210 765 c 0,29,30
 210 774 210 774 217 785 c 2,31,-1
 283 873 l 2,32,33
 299 895 299 895 331 895 c 2,34,-1
 356 895 l 2,12,13
498 700 m 2,35,36
 515 700 515 700 515 678 c 0,37,38
 515 624 515 624 490 624 c 2,39,-1
 195 624 l 1,40,-1
 171 396 l 1,41,-1
 435 396 l 2,42,43
 452 396 452 396 452 374 c 0,44,45
 452 320 452 320 427 320 c 2,46,-1
 163 320 l 1,47,-1
 138 76 l 1,48,-1
 434 76 l 2,49,50
 451 76 451 76 451 54 c 0,51,52
 451 0 451 0 426 0 c 2,53,-1
 72 0 l 2,54,55
 45 0 45 0 45 24 c 0,56,57
 45 28 45 28 112 670 c 0,58,59
 115 700 115 700 145 700 c 2,60,-1
 498 700 l 2,35,36
EndSplineSet
Validated: 1
Position2: "'cpsp' Capital Spacing lookup 3 subtable" dx=5 dy=0 dh=10 dv=0
EndChar

StartChar: Ecircumflexdotbelow
Encoding: 7878 7878 48
Width: 546
Flags: MW
HStem: -175 95<227 245> 0 76<62.5 434 138 426> 320 76<171 427 163 435> 624 76<195 490 195 195> 753 142<216 348 223 348 323 416 323 418>
VStem: 192 89<-160 -95>
LayerCount: 2
UndoRedoHistory
Layer: 1
Undoes
EndUndoes
Redoes
EndRedoes
EndUndoRedoHistory
Fore
SplineSet
348 895 m 2,0,1
 380 895 380 895 392 873 c 2,2,-1
 439 785 l 2,3,4
 444 777 444 777 444 768 c 1,5,6
 442 753 442 753 418 753 c 2,7,-1
 416 753 l 2,8,9
 397 753 397 753 384 766 c 1,10,-1
 329 840 l 1,11,-1
 260 766 l 1,12,13
 244 753 244 753 225 753 c 2,14,-1
 223 753 l 2,15,16
 202 753 202 753 202 765 c 0,17,18
 202 774 202 774 209 785 c 2,19,-1
 275 873 l 2,20,21
 291 895 291 895 323 895 c 2,22,-1
 348 895 l 2,0,1
498 700 m 2,23,24
 515 700 515 700 515 678 c 0,25,26
 515 624 515 624 490 624 c 2,27,-1
 195 624 l 1,28,-1
 171 396 l 1,29,-1
 435 396 l 2,30,31
 452 396 452 396 452 374 c 0,32,33
 452 320 452 320 427 320 c 2,34,-1
 163 320 l 1,35,-1
 138 76 l 1,36,-1
 434 76 l 2,37,38
 451 76 451 76 451 54 c 0,39,40
 451 0 451 0 426 0 c 2,41,-1
 72 0 l 2,42,43
 45 0 45 0 45 24 c 0,44,45
 45 28 45 28 112 670 c 0,46,47
 115 700 115 700 145 700 c 2,48,-1
 498 700 l 2,23,24
197 -102 m 2,49,50
 200 -80 200 -80 243 -80 c 0,51,52
 281 -80 281 -80 281 -102 c 1,53,-1
 276 -153 l 2,54,55
 273 -175 273 -175 230 -175 c 0,56,57
 192 -175 192 -175 192 -153 c 1,58,-1
 197 -102 l 2,49,50
EndSplineSet
Validated: 1
Position2: "'cpsp' Capital Spacing lookup 3 subtable" dx=5 dy=0 dh=10 dv=0
EndChar

StartChar: Ecircumflexgrave
Encoding: 7872 7872 49
Width: 546
Flags: MW
HStem: 0 76<62.5 434 138 426> 320 76<171 427 163 435> 624 76<195 490 195 195>
VStem: 45 470
LayerCount: 2
UndoRedoHistory
Layer: 1
Undoes
EndUndoes
Redoes
EndRedoes
EndUndoRedoHistory
Fore
SplineSet
428 964 m 0,0,1
 466 964 466 964 476 938 c 0,2,3
 513 848 513 848 513 833 c 0,4,5
 513 824 513 824 490 824 c 0,6,7
 464 824 464 824 454 842 c 1,8,9
 392 938 392 938 391 952 c 0,10,11
 391 964 391 964 428 964 c 0,0,1
356 895 m 2,12,13
 380 895 380 895 390 873 c 2,14,-1
 432 785 l 1,15,16
 437 777 437 777 437 768 c 1,17,18
 435 753 435 753 411 753 c 2,19,-1
 409 753 l 2,20,21
 384 753 384 753 377 766 c 2,22,-1
 337 840 l 1,23,-1
 268 766 l 1,24,25
 252 753 252 753 233 753 c 2,26,-1
 231 753 l 2,27,28
 210 753 210 753 210 765 c 0,29,30
 210 774 210 774 217 785 c 2,31,-1
 283 873 l 2,32,33
 299 895 299 895 331 895 c 2,34,-1
 356 895 l 2,12,13
498 700 m 2,35,36
 515 700 515 700 515 678 c 0,37,38
 515 624 515 624 490 624 c 2,39,-1
 195 624 l 1,40,-1
 171 396 l 1,41,-1
 435 396 l 2,42,43
 452 396 452 396 452 374 c 0,44,45
 452 320 452 320 427 320 c 2,46,-1
 163 320 l 1,47,-1
 138 76 l 1,48,-1
 434 76 l 2,49,50
 451 76 451 76 451 54 c 0,51,52
 451 0 451 0 426 0 c 2,53,-1
 72 0 l 2,54,55
 45 0 45 0 45 24 c 0,56,57
 45 28 45 28 112 670 c 0,58,59
 115 700 115 700 145 700 c 2,60,-1
 498 700 l 2,35,36
EndSplineSet
Validated: 1
Position2: "'cpsp' Capital Spacing lookup 3 subtable" dx=5 dy=0 dh=10 dv=0
EndChar

StartChar: Ecircumflexhookabove
Encoding: 7874 7874 50
Width: 546
Flags: MW
HStem: 0 76<62.5 434 138 426> 320 76<171 427 163 435> 624 76<195 490 195 195> 931 48<458.5 473>
VStem: 497 58<897 913>
LayerCount: 2
UndoRedoHistory
Layer: 1
Undoes
EndUndoes
Redoes
EndRedoes
EndUndoRedoHistory
Fore
SplineSet
497 904 m 0,0,1
 497 931 497 931 463 931 c 0,2,3
 449 931 449 931 438.5 927.5 c 128,-1,4
 428 924 428 924 422 921 c 128,-1,5
 416 918 416 918 415 918 c 0,6,7
 409 918 409 918 402 930.5 c 128,-1,8
 395 943 395 943 395 951 c 0,9,10
 395 961 395 961 422 970 c 128,-1,11
 449 979 449 979 476 979 c 0,12,13
 507 979 507 979 531 962.5 c 128,-1,14
 555 946 555 946 555 911 c 0,15,16
 555 880 555 880 513 847 c 0,17,18
 486 825 486 825 469 825 c 0,19,20
 454 825 454 825 444.5 831.5 c 128,-1,21
 435 838 435 838 435 845 c 0,22,23
 435 853 435 853 462 867 c 0,24,25
 497 885 497 885 497 904 c 0,0,1
356 895 m 2,26,27
 380 895 380 895 390 873 c 2,28,-1
 432 785 l 1,29,30
 437 777 437 777 437 768 c 1,31,32
 435 753 435 753 411 753 c 2,33,-1
 409 753 l 2,34,35
 384 753 384 753 377 766 c 2,36,-1
 337 840 l 1,37,-1
 268 766 l 1,38,39
 252 753 252 753 233 753 c 2,40,-1
 231 753 l 2,41,42
 210 753 210 753 210 765 c 0,43,44
 210 774 210 774 217 785 c 2,45,-1
 283 873 l 2,46,47
 299 895 299 895 331 895 c 2,48,-1
 356 895 l 2,26,27
498 700 m 2,49,50
 515 700 515 700 515 678 c 0,51,52
 515 624 515 624 490 624 c 2,53,-1
 195 624 l 1,54,-1
 171 396 l 1,55,-1
 435 396 l 2,56,57
 452 396 452 396 452 374 c 0,58,59
 452 320 452 320 427 320 c 2,60,-1
 163 320 l 1,61,-1
 138 76 l 1,62,-1
 434 76 l 2,63,64
 451 76 451 76 451 54 c 0,65,66
 451 0 451 0 426 0 c 2,67,-1
 72 0 l 2,68,69
 45 0 45 0 45 24 c 0,70,71
 45 28 45 28 112 670 c 0,72,73
 115 700 115 700 145 700 c 2,74,-1
 498 700 l 2,49,50
EndSplineSet
Validated: 1
Position2: "'cpsp' Capital Spacing lookup 3 subtable" dx=5 dy=0 dh=10 dv=0
EndChar

StartChar: Ecircumflextilde
Encoding: 7876 7876 51
Width: 546
Flags: MW
HStem: 0 76<62.5 434 138 426> 320 76<171 427 163 435> 624 76<195 490 195 195> 903 64<402 415.5> 934 64<280.5 294>
VStem: 45 470
LayerCount: 2
UndoRedoHistory
Layer: 1
Undoes
EndUndoes
Redoes
EndRedoes
EndUndoRedoHistory
Fore
SplineSet
460 989 m 0,0,1
 470 996 470 996 477 996 c 0,2,3
 486 996 486 996 494 987 c 0,4,5
 503 976 503 976 503 967 c 0,6,7
 503 957 503 957 493 947 c 0,8,9
 445 903 445 903 397 903 c 0,10,11
 360 903 360 903 328 919 c 0,12,13
 298 934 298 934 288 934 c 0,14,15
 273 934 273 934 239 915 c 0,16,17
 228 909 228 909 220 909 c 0,18,19
 208 909 208 909 201 921 c 1,20,21
 194 931 194 931 194 941 c 128,-1,22
 194 951 194 951 202 957 c 0,23,24
 253 998 253 998 299 998 c 0,25,26
 329 998 329 998 368 980 c 0,27,28
 396 967 396 967 408 967 c 0,29,30
 431 967 431 967 460 989 c 0,0,1
351 871 m 2,31,32
 375 871 375 871 395 849 c 1,33,-1
 441 786 l 2,34,35
 446 778 446 778 446 769 c 1,36,37
 444 754 444 754 420 754 c 2,38,-1
 418 754 l 2,39,40
 403 754 403 754 386 767 c 1,41,-1
 332 816 l 1,42,-1
 262 767 l 1,43,44
 240 754 240 754 227 754 c 2,45,-1
 225 754 l 2,46,47
 204 754 204 754 204 766 c 0,48,49
 204 775 204 775 211 786 c 1,50,-1
 278 849 l 1,51,52
 305 871 305 871 326 871 c 2,53,-1
 351 871 l 2,31,32
498 700 m 2,54,55
 515 700 515 700 515 678 c 0,56,57
 515 624 515 624 490 624 c 2,58,-1
 195 624 l 1,59,-1
 171 396 l 1,60,-1
 435 396 l 2,61,62
 452 396 452 396 452 374 c 0,63,64
 452 320 452 320 427 320 c 2,65,-1
 163 320 l 1,66,-1
 138 76 l 1,67,-1
 434 76 l 2,68,69
 451 76 451 76 451 54 c 0,70,71
 451 0 451 0 426 0 c 2,72,-1
 72 0 l 2,73,74
 45 0 45 0 45 24 c 0,75,76
 45 28 45 28 112 670 c 0,77,78
 115 700 115 700 145 700 c 2,79,-1
 498 700 l 2,54,55
EndSplineSet
Validated: 1
Position2: "'cpsp' Capital Spacing lookup 3 subtable" dx=5 dy=0 dh=10 dv=0
EndChar

StartChar: Edieresis
Encoding: 203 203 52
Width: 546
Flags: MW
HStem: 0 76<62.5 434 138 426> 320 76<171 427 163 435> 624 76<195 490 195 195> 784 95<252 270 396 414>
VStem: 217 89<799 864> 361 89<799 864>
LayerCount: 2
UndoRedoHistory
Layer: 1
Undoes
EndUndoes
Redoes
EndRedoes
EndUndoRedoHistory
Fore
SplineSet
222 857 m 2,0,1
 225 879 225 879 268 879 c 0,2,3
 306 879 306 879 306 857 c 1,4,-1
 301 806 l 2,5,6
 298 784 298 784 255 784 c 0,7,8
 217 784 217 784 217 806 c 1,9,-1
 222 857 l 2,0,1
366 857 m 2,10,11
 368 879 368 879 412 879 c 0,12,13
 450 879 450 879 450 857 c 1,14,-1
 445 806 l 2,15,16
 442 784 442 784 399 784 c 0,17,18
 361 784 361 784 361 806 c 1,19,-1
 366 857 l 2,10,11
498 700 m 2,20,21
 515 700 515 700 515 678 c 0,22,23
 515 624 515 624 490 624 c 2,24,-1
 195 624 l 1,25,-1
 171 396 l 1,26,-1
 435 396 l 2,27,28
 452 396 452 396 452 374 c 0,29,30
 452 320 452 320 427 320 c 2,31,-1
 163 320 l 1,32,-1
 138 76 l 1,33,-1
 434 76 l 2,34,35
 451 76 451 76 451 54 c 0,36,37
 451 0 451 0 426 0 c 2,38,-1
 72 0 l 2,39,40
 45 0 45 0 45 24 c 0,41,42
 45 28 45 28 112 670 c 0,43,44
 115 700 115 700 145 700 c 2,45,-1
 498 700 l 2,20,21
EndSplineSet
Validated: 1
Position2: "'cpsp' Capital Spacing lookup 3 subtable" dx=5 dy=0 dh=10 dv=0
EndChar

StartChar: Edotaccent
Encoding: 278 278 53
Width: 546
Flags: MW
HStem: 0 76<62.5 434 138 426> 320 76<171 427 163 435> 624 76<195 490 195 195> 784 95<324 342>
VStem: 289 89<799 864>
LayerCount: 2
UndoRedoHistory
Layer: 1
Undoes
EndUndoes
Redoes
EndRedoes
EndUndoRedoHistory
Fore
SplineSet
294 857 m 2,0,1
 297 879 297 879 340 879 c 0,2,3
 378 879 378 879 378 857 c 1,4,-1
 373 806 l 2,5,6
 370 784 370 784 327 784 c 0,7,8
 289 784 289 784 289 806 c 1,9,-1
 294 857 l 2,0,1
498 700 m 2,10,11
 515 700 515 700 515 678 c 0,12,13
 515 624 515 624 490 624 c 2,14,-1
 195 624 l 1,15,-1
 171 396 l 1,16,-1
 435 396 l 2,17,18
 452 396 452 396 452 374 c 0,19,20
 452 320 452 320 427 320 c 2,21,-1
 163 320 l 1,22,-1
 138 76 l 1,23,-1
 434 76 l 2,24,25
 451 76 451 76 451 54 c 0,26,27
 451 0 451 0 426 0 c 2,28,-1
 72 0 l 2,29,30
 45 0 45 0 45 24 c 0,31,32
 45 28 45 28 112 670 c 0,33,34
 115 700 115 700 145 700 c 2,35,-1
 498 700 l 2,10,11
EndSplineSet
Validated: 1
Position2: "'cpsp' Capital Spacing lookup 3 subtable" dx=5 dy=0 dh=10 dv=0
EndChar

StartChar: Edotbelow
Encoding: 7864 7864 54
Width: 546
Flags: MW
HStem: -175 95<227 245> 0 76<62.5 434 138 426> 320 76<171 427 163 435> 624 76<195 490 195 195>
VStem: 192 89<-160 -95>
LayerCount: 2
UndoRedoHistory
Layer: 1
Undoes
EndUndoes
Redoes
EndRedoes
EndUndoRedoHistory
Fore
SplineSet
498 700 m 2,0,1
 515 700 515 700 515 678 c 0,2,3
 515 624 515 624 490 624 c 2,4,-1
 195 624 l 1,5,-1
 171 396 l 1,6,-1
 435 396 l 2,7,8
 452 396 452 396 452 374 c 0,9,10
 452 320 452 320 427 320 c 2,11,-1
 163 320 l 1,12,-1
 138 76 l 1,13,-1
 434 76 l 2,14,15
 451 76 451 76 451 54 c 0,16,17
 451 0 451 0 426 0 c 2,18,-1
 72 0 l 2,19,20
 45 0 45 0 45 24 c 0,21,22
 45 28 45 28 112 670 c 0,23,24
 115 700 115 700 145 700 c 2,25,-1
 498 700 l 2,0,1
197 -102 m 2,26,27
 200 -80 200 -80 243 -80 c 0,28,29
 281 -80 281 -80 281 -102 c 1,30,-1
 276 -153 l 2,31,32
 273 -175 273 -175 230 -175 c 0,33,34
 192 -175 192 -175 192 -153 c 1,35,-1
 197 -102 l 2,26,27
EndSplineSet
Validated: 1
Position2: "'cpsp' Capital Spacing lookup 3 subtable" dx=5 dy=0 dh=10 dv=0
EndChar

StartChar: Egrave
Encoding: 200 200 55
Width: 546
Flags: MW
HStem: 0 76<62.5 434 138 426> 320 76<171 427 163 435> 624 76<195 490 195 195>
VStem: 45 470
LayerCount: 2
UndoRedoHistory
Layer: 1
Undoes
EndUndoes
Redoes
EndRedoes
EndUndoRedoHistory
Fore
SplineSet
252 909 m 128,-1,1
 299 909 299 909 314 883 c 0,2,3
 372 784 372 784 372 771 c 0,4,5
 372 762 372 762 349 762 c 0,6,7
 313 762 313 762 298 780 c 0,8,9
 210 880 210 880 206 889 c 0,10,11
 204 893 204 893 204 897 c 0,12,0
 205 909 205 909 252 909 c 128,-1,1
498 700 m 2,13,14
 515 700 515 700 515 678 c 0,15,16
 515 624 515 624 490 624 c 2,17,-1
 195 624 l 1,18,-1
 171 396 l 1,19,-1
 435 396 l 2,20,21
 452 396 452 396 452 374 c 0,22,23
 452 320 452 320 427 320 c 2,24,-1
 163 320 l 1,25,-1
 138 76 l 1,26,-1
 434 76 l 2,27,28
 451 76 451 76 451 54 c 0,29,30
 451 0 451 0 426 0 c 2,31,-1
 72 0 l 2,32,33
 45 0 45 0 45 24 c 0,34,35
 45 28 45 28 112 670 c 0,36,37
 115 700 115 700 145 700 c 2,38,-1
 498 700 l 2,13,14
EndSplineSet
Validated: 1
Position2: "'cpsp' Capital Spacing lookup 3 subtable" dx=5 dy=0 dh=10 dv=0
EndChar

StartChar: Ehookabove
Encoding: 7866 7866 56
Width: 546
Flags: MW
HStem: 0 76<62.5 434 138 426> 320 76<171 427 163 435> 624 76<195 490 195 195> 876 51<328.5 343>
VStem: 367 66<825 859>
LayerCount: 2
UndoRedoHistory
Layer: 1
Undoes
EndUndoes
Redoes
EndRedoes
EndUndoRedoHistory
Fore
SplineSet
367 851 m 0,0,1
 367 876 367 876 333 876 c 0,2,3
 319 876 319 876 308.5 873 c 128,-1,4
 298 870 298 870 292 866.5 c 128,-1,5
 286 863 286 863 285 863 c 0,6,7
 279 863 279 863 272 875.5 c 128,-1,8
 265 888 265 888 265 896 c 0,9,10
 265 906 265 906 292.5 916.5 c 128,-1,11
 320 927 320 927 346 927 c 0,12,13
 378 927 378 927 405.5 910 c 128,-1,14
 433 893 433 893 433 857 c 0,15,16
 433 833 433 833 419 809.5 c 128,-1,17
 405 786 405 786 387 772 c 128,-1,18
 369 758 369 758 354 749 c 128,-1,19
 339 740 339 740 334 740 c 0,20,21
 318 740 318 740 306.5 745 c 128,-1,22
 295 750 295 750 295 757 c 0,23,24
 295 768 295 768 313 780.5 c 128,-1,25
 331 793 331 793 349 811 c 128,-1,26
 367 829 367 829 367 851 c 0,0,1
498 700 m 2,27,28
 515 700 515 700 515 678 c 0,29,30
 515 624 515 624 490 624 c 2,31,-1
 195 624 l 1,32,-1
 171 396 l 1,33,-1
 435 396 l 2,34,35
 452 396 452 396 452 374 c 0,36,37
 452 320 452 320 427 320 c 2,38,-1
 163 320 l 1,39,-1
 138 76 l 1,40,-1
 434 76 l 2,41,42
 451 76 451 76 451 54 c 0,43,44
 451 0 451 0 426 0 c 2,45,-1
 72 0 l 2,46,47
 45 0 45 0 45 24 c 0,48,49
 45 28 45 28 112 670 c 0,50,51
 115 700 115 700 145 700 c 2,52,-1
 498 700 l 2,27,28
EndSplineSet
Validated: 1
Position2: "'cpsp' Capital Spacing lookup 3 subtable" dx=5 dy=0 dh=10 dv=0
EndChar

StartChar: Emacron
Encoding: 274 274 57
Width: 546
Flags: MW
HStem: 0 76<62.5 434 138 426> 320 76<171 427 163 435> 624 76<195 490 195 195> 789 71<199 440 214 432>
VStem: 45 470
LayerCount: 2
UndoRedoHistory
Layer: 1
Undoes
EndUndoes
Redoes
EndRedoes
EndUndoRedoHistory
Fore
SplineSet
440 860 m 2,0,1
 457 860 457 860 457 834 c 0,2,3
 457 789 457 789 432 789 c 2,4,-1
 206 789 l 2,5,6
 189 789 189 789 189 816 c 0,7,8
 189 860 189 860 214 860 c 2,9,-1
 440 860 l 2,0,1
498 700 m 2,10,11
 515 700 515 700 515 678 c 0,12,13
 515 624 515 624 490 624 c 2,14,-1
 195 624 l 1,15,-1
 171 396 l 1,16,-1
 435 396 l 2,17,18
 452 396 452 396 452 374 c 0,19,20
 452 320 452 320 427 320 c 2,21,-1
 163 320 l 1,22,-1
 138 76 l 1,23,-1
 434 76 l 2,24,25
 451 76 451 76 451 54 c 0,26,27
 451 0 451 0 426 0 c 2,28,-1
 72 0 l 2,29,30
 45 0 45 0 45 24 c 0,31,32
 45 28 45 28 112 670 c 0,33,34
 115 700 115 700 145 700 c 2,35,-1
 498 700 l 2,10,11
EndSplineSet
Validated: 1
Position2: "'cpsp' Capital Spacing lookup 3 subtable" dx=5 dy=0 dh=10 dv=0
EndChar

StartChar: Eogonek
Encoding: 280 280 58
Width: 546
Flags: MW
HStem: -183 70<454 467.5> 0 76<62.5 434 138 374 426 434 434 438.5> 320 76<171 427 163 435> 624 76<195 490 195 195>
VStem: 338 69<-90 -85>
LayerCount: 2
UndoRedoHistory
Layer: 1
Undoes
EndUndoes
Redoes
EndRedoes
EndUndoRedoHistory
Fore
SplineSet
426 0 m 1,0,1
 425 -5 425 -5 416 -29.5 c 128,-1,2
 407 -54 407 -54 407 -70 c 0,3,4
 407 -113 407 -113 465 -113 c 0,5,6
 483 -113 483 -113 505 -104 c 128,-1,7
 527 -95 527 -95 529 -95 c 0,8,9
 535 -95 535 -95 535 -108 c 0,10,11
 535 -183 535 -183 446 -183 c 0,12,13
 384 -183 384 -183 361 -156 c 128,-1,14
 338 -129 338 -129 338 -94 c 0,15,16
 338 -74 338 -74 347 -45 c 128,-1,17
 356 -16 356 -16 374 0 c 1,18,-1
 72 0 l 2,19,20
 45 0 45 0 45 24 c 0,21,22
 45 28 45 28 112 670 c 0,23,24
 115 700 115 700 145 700 c 2,25,-1
 498 700 l 2,26,27
 515 700 515 700 515 678 c 0,28,29
 515 624 515 624 490 624 c 2,30,-1
 195 624 l 1,31,-1
 171 396 l 1,32,-1
 435 396 l 2,33,34
 452 396 452 396 452 374 c 0,35,36
 452 320 452 320 427 320 c 2,37,-1
 163 320 l 1,38,-1
 138 76 l 1,39,-1
 434 76 l 2,40,41
 451 76 451 76 451 54 c 0,42,43
 451 0 451 0 426 0 c 1,0,1
EndSplineSet
Validated: 1
Position2: "'cpsp' Capital Spacing lookup 3 subtable" dx=5 dy=0 dh=10 dv=0
EndChar

StartChar: Etilde
Encoding: 7868 7868 59
Width: 546
Flags: MW
HStem: 0 76<62.5 434 138 426> 320 76<171 427 163 435> 624 76<195 490 195 195> 762 64<401 415.5> 793 64<267.5 282.5>
VStem: 45 470
LayerCount: 2
UndoRedoHistory
Layer: 1
Undoes
EndUndoes
Redoes
EndRedoes
EndUndoRedoHistory
Fore
SplineSet
465 848 m 0,0,1
 476 855 476 855 483 855 c 0,2,3
 493 855 493 855 502 846 c 0,4,5
 512 836 512 836 512 826 c 0,6,7
 512 815 512 815 501 806 c 0,8,9
 448 762 448 762 395 762 c 0,10,11
 354 762 354 762 320 778 c 0,12,13
 286 793 286 793 276 793 c 0,14,15
 258 793 258 793 222 774 c 0,16,17
 210 768 210 768 201 768 c 0,18,19
 189 768 189 768 180 780 c 0,20,21
 172 791 172 791 172 800 c 128,-1,22
 172 809 172 809 181 816 c 0,23,24
 238 857 238 857 288 857 c 0,25,26
 319 857 319 857 364 839 c 0,27,28
 394 826 394 826 408 826 c 0,29,30
 432 826 432 826 465 848 c 0,0,1
498 700 m 2,31,32
 515 700 515 700 515 678 c 0,33,34
 515 624 515 624 490 624 c 2,35,-1
 195 624 l 1,36,-1
 171 396 l 1,37,-1
 435 396 l 2,38,39
 452 396 452 396 452 374 c 0,40,41
 452 320 452 320 427 320 c 2,42,-1
 163 320 l 1,43,-1
 138 76 l 1,44,-1
 434 76 l 2,45,46
 451 76 451 76 451 54 c 0,47,48
 451 0 451 0 426 0 c 2,49,-1
 72 0 l 2,50,51
 45 0 45 0 45 24 c 0,52,53
 45 28 45 28 112 670 c 0,54,55
 115 700 115 700 145 700 c 2,56,-1
 498 700 l 2,31,32
EndSplineSet
Validated: 1
Position2: "'cpsp' Capital Spacing lookup 3 subtable" dx=5 dy=0 dh=10 dv=0
EndChar

StartChar: F
Encoding: 70 70 60
Width: 503
Flags: MW
HStem: -2 21G<72 87 87 95> 320 76<176 419 168 427> 624 76<200 459 200 200>
VStem: 49 435
LayerCount: 2
UndoRedoHistory
Layer: 1
Undoes
EndUndoes
Redoes
EndRedoes
EndUndoRedoHistory
Fore
SplineSet
467 700 m 2,0,1
 484 700 484 700 484 678 c 0,2,3
 484 624 484 624 459 624 c 2,4,-1
 200 624 l 1,5,-1
 176 396 l 1,6,-1
 427 396 l 2,7,8
 444 396 444 396 444 374 c 0,9,10
 444 320 444 320 419 320 c 2,11,-1
 168 320 l 1,12,-1
 137 20 l 2,13,14
 134 -2 134 -2 95 -2 c 2,15,-1
 87 -2 l 2,16,17
 49 -2 49 -2 49 20 c 1,18,-1
 117 670 l 2,19,20
 120 700 120 700 150 700 c 2,21,-1
 467 700 l 2,0,1
EndSplineSet
Validated: 1
Position2: "'cpsp' Capital Spacing lookup 3 subtable" dx=5 dy=0 dh=10 dv=0
EndChar

StartChar: G
Encoding: 71 71 61
Width: 672
Flags: MW
HStem: -6 76<266 368 266 385> 285 76<370 560 384 494> 630 76<316 455>
VStem: 52 92<226.5 394.5 226.5 423.5>
LayerCount: 2
UndoRedoHistory
Layer: 1
Undoes
EndUndoes
Redoes
EndRedoes
EndUndoRedoHistory
Fore
SplineSet
560 361 m 2,0,1
 587 361 587 361 587 337 c 0,2,3
 587 330 587 330 582 284 c 2,4,-1
 570 169 l 2,5,6
 562 100 562 100 559 66 c 0,7,8
 551 -6 551 -6 328 -6 c 0,9,10
 52 -6 52 -6 52 275 c 0,11,12
 52 491 52 491 149 598.5 c 128,-1,13
 246 706 246 706 418 706 c 0,14,15
 488 706 488 706 545 686 c 128,-1,16
 602 666 602 666 602 645 c 0,17,18
 602 633 602 633 586.5 609.5 c 128,-1,19
 571 586 571 586 562 586 c 0,20,21
 560 586 560 586 541 597 c 128,-1,22
 522 608 522 608 485.5 619 c 128,-1,23
 449 630 449 630 404 630 c 0,24,25
 275 630 275 630 209.5 540.5 c 128,-1,26
 144 451 144 451 144 288 c 0,27,28
 144 70 144 70 342 70 c 0,29,30
 422 70 422 70 472 83 c 1,31,-1
 494 285 l 1,32,-1
 376 285 l 2,33,34
 359 285 359 285 359 307 c 0,35,36
 359 361 359 361 384 361 c 2,37,-1
 560 361 l 2,0,1
EndSplineSet
Validated: 1
Position2: "'cpsp' Capital Spacing lookup 3 subtable" dx=5 dy=0 dh=10 dv=0
EndChar

StartChar: Gbreve
Encoding: 286 286 62
Width: 672
Flags: MW
HStem: -6 76<266 368 266 385> 285 76<370 560 384 494> 630 76<316 455> 762 66<383.5 432 383.5 434.5>
VStem: 52 92<226.5 394.5 226.5 423.5>
LayerCount: 2
UndoRedoHistory
Layer: 1
Undoes
EndUndoes
Redoes
EndRedoes
EndUndoRedoHistory
Fore
SplineSet
543 892 m 0,0,1
 557 892 557 892 557 880 c 0,2,3
 557 825 557 825 507.5 793.5 c 128,-1,4
 458 762 458 762 401 762 c 0,5,6
 346 762 346 762 306.5 789 c 128,-1,7
 267 816 267 816 267 865 c 0,8,9
 267 892 267 892 284 892 c 0,10,11
 290 892 290 892 293.5 890 c 128,-1,12
 297 888 297 888 298 885.5 c 128,-1,13
 299 883 299 883 300.5 877 c 128,-1,14
 302 871 302 871 304 867 c 0,15,16
 321 828 321 828 408 828 c 0,17,18
 494 828 494 828 519 867 c 0,19,20
 522 872 522 872 525 880 c 128,-1,21
 528 888 528 888 531.5 890 c 128,-1,22
 535 892 535 892 543 892 c 0,0,1
560 361 m 2,23,24
 587 361 587 361 587 337 c 0,25,26
 587 330 587 330 582 284 c 2,27,-1
 570 169 l 2,28,29
 562 100 562 100 559 66 c 0,30,31
 551 -6 551 -6 328 -6 c 0,32,33
 52 -6 52 -6 52 275 c 0,34,35
 52 491 52 491 149 598.5 c 128,-1,36
 246 706 246 706 418 706 c 0,37,38
 488 706 488 706 545 686 c 128,-1,39
 602 666 602 666 602 645 c 0,40,41
 602 633 602 633 586.5 609.5 c 128,-1,42
 571 586 571 586 562 586 c 0,43,44
 560 586 560 586 541 597 c 128,-1,45
 522 608 522 608 485.5 619 c 128,-1,46
 449 630 449 630 404 630 c 0,47,48
 275 630 275 630 209.5 540.5 c 128,-1,49
 144 451 144 451 144 288 c 0,50,51
 144 70 144 70 342 70 c 0,52,53
 422 70 422 70 472 83 c 1,54,-1
 494 285 l 1,55,-1
 376 285 l 2,56,57
 359 285 359 285 359 307 c 0,58,59
 359 361 359 361 384 361 c 2,60,-1
 560 361 l 2,23,24
EndSplineSet
Validated: 1
Position2: "'cpsp' Capital Spacing lookup 3 subtable" dx=5 dy=0 dh=10 dv=0
EndChar

StartChar: Gcircumflex
Encoding: 284 284 63
Width: 672
Flags: MW
HStem: -6 76<266 368 266 385> 285 76<370 560 384 494> 630 76<316 455> 753 142<289 421 296 421 396 489 396 491>
VStem: 52 92<226.5 394.5 226.5 423.5>
LayerCount: 2
UndoRedoHistory
Layer: 1
Undoes
EndUndoes
Redoes
EndRedoes
EndUndoRedoHistory
Fore
SplineSet
421 895 m 2,0,1
 453 895 453 895 465 873 c 2,2,-1
 512 785 l 2,3,4
 517 777 517 777 517 768 c 1,5,6
 515 753 515 753 491 753 c 2,7,-1
 489 753 l 2,8,9
 470 753 470 753 457 766 c 1,10,-1
 402 840 l 1,11,-1
 333 766 l 1,12,13
 317 753 317 753 298 753 c 2,14,-1
 296 753 l 2,15,16
 275 753 275 753 275 765 c 0,17,18
 275 774 275 774 282 785 c 2,19,-1
 348 873 l 2,20,21
 364 895 364 895 396 895 c 2,22,-1
 421 895 l 2,0,1
560 361 m 2,23,24
 587 361 587 361 587 337 c 0,25,26
 587 330 587 330 582 284 c 2,27,-1
 570 169 l 2,28,29
 562 100 562 100 559 66 c 0,30,31
 551 -6 551 -6 328 -6 c 0,32,33
 52 -6 52 -6 52 275 c 0,34,35
 52 491 52 491 149 598.5 c 128,-1,36
 246 706 246 706 418 706 c 0,37,38
 488 706 488 706 545 686 c 128,-1,39
 602 666 602 666 602 645 c 0,40,41
 602 633 602 633 586.5 609.5 c 128,-1,42
 571 586 571 586 562 586 c 0,43,44
 560 586 560 586 541 597 c 128,-1,45
 522 608 522 608 485.5 619 c 128,-1,46
 449 630 449 630 404 630 c 0,47,48
 275 630 275 630 209.5 540.5 c 128,-1,49
 144 451 144 451 144 288 c 0,50,51
 144 70 144 70 342 70 c 0,52,53
 422 70 422 70 472 83 c 1,54,-1
 494 285 l 1,55,-1
 376 285 l 2,56,57
 359 285 359 285 359 307 c 0,58,59
 359 361 359 361 384 361 c 2,60,-1
 560 361 l 2,23,24
EndSplineSet
Validated: 1
Position2: "'cpsp' Capital Spacing lookup 3 subtable" dx=5 dy=0 dh=10 dv=0
EndChar

StartChar: Gcommaaccent
Encoding: 290 290 64
Width: 672
Flags: MW
HStem: -235 21G<250.5 272.5> -6 76<266 368 266 385> 285 76<370 560 384 494> 630 76<316 455>
VStem: 52 92<226.5 394.5 226.5 423.5> 286 90<-108 -73.5>
LayerCount: 2
UndoRedoHistory
Layer: 1
Undoes
EndUndoes
Redoes
EndRedoes
EndUndoRedoHistory
Fore
SplineSet
560 361 m 2,0,1
 587 361 587 361 587 337 c 0,2,3
 587 330 587 330 582 284 c 2,4,-1
 570 169 l 2,5,6
 562 100 562 100 559 66 c 0,7,8
 551 -6 551 -6 328 -6 c 0,9,10
 52 -6 52 -6 52 275 c 0,11,12
 52 491 52 491 149 598.5 c 128,-1,13
 246 706 246 706 418 706 c 0,14,15
 488 706 488 706 545 686 c 128,-1,16
 602 666 602 666 602 645 c 0,17,18
 602 633 602 633 586.5 609.5 c 128,-1,19
 571 586 571 586 562 586 c 0,20,21
 560 586 560 586 541 597 c 128,-1,22
 522 608 522 608 485.5 619 c 128,-1,23
 449 630 449 630 404 630 c 0,24,25
 275 630 275 630 209.5 540.5 c 128,-1,26
 144 451 144 451 144 288 c 0,27,28
 144 70 144 70 342 70 c 0,29,30
 422 70 422 70 472 83 c 1,31,-1
 494 285 l 1,32,-1
 376 285 l 2,33,34
 359 285 359 285 359 307 c 0,35,36
 359 361 359 361 384 361 c 2,37,-1
 560 361 l 2,0,1
339 -51 m 2,38,39
 376 -51 376 -51 376 -79 c 0,40,41
 376 -120 376 -120 329.5 -177.5 c 128,-1,42
 283 -235 283 -235 256 -235 c 128,-1,43
 229 -235 229 -235 229 -220 c 0,44,45
 229 -209 229 -209 257.5 -164 c 128,-1,46
 286 -119 286 -119 286 -83 c 0,47,48
 286 -69 286 -69 298 -60 c 128,-1,49
 310 -51 310 -51 330 -51 c 2,50,-1
 339 -51 l 2,38,39
EndSplineSet
Validated: 1
Position2: "'cpsp' Capital Spacing lookup 3 subtable" dx=5 dy=0 dh=10 dv=0
EndChar

StartChar: Gdotaccent
Encoding: 288 288 65
Width: 672
Flags: MW
HStem: -6 76<266 368 266 385> 285 76<370 560 384 494> 630 76<316 455> 784 95<397 415>
VStem: 52 92<226.5 394.5 226.5 423.5> 362 89<799 864>
LayerCount: 2
UndoRedoHistory
Layer: 1
Undoes
EndUndoes
Redoes
EndRedoes
EndUndoRedoHistory
Fore
SplineSet
367 857 m 2,0,1
 370 879 370 879 413 879 c 0,2,3
 451 879 451 879 451 857 c 1,4,-1
 446 806 l 2,5,6
 443 784 443 784 400 784 c 0,7,8
 362 784 362 784 362 806 c 1,9,-1
 367 857 l 2,0,1
560 361 m 2,10,11
 587 361 587 361 587 337 c 0,12,13
 587 330 587 330 582 284 c 2,14,-1
 570 169 l 2,15,16
 562 100 562 100 559 66 c 0,17,18
 551 -6 551 -6 328 -6 c 0,19,20
 52 -6 52 -6 52 275 c 0,21,22
 52 491 52 491 149 598.5 c 128,-1,23
 246 706 246 706 418 706 c 0,24,25
 488 706 488 706 545 686 c 128,-1,26
 602 666 602 666 602 645 c 0,27,28
 602 633 602 633 586.5 609.5 c 128,-1,29
 571 586 571 586 562 586 c 0,30,31
 560 586 560 586 541 597 c 128,-1,32
 522 608 522 608 485.5 619 c 128,-1,33
 449 630 449 630 404 630 c 0,34,35
 275 630 275 630 209.5 540.5 c 128,-1,36
 144 451 144 451 144 288 c 0,37,38
 144 70 144 70 342 70 c 0,39,40
 422 70 422 70 472 83 c 1,41,-1
 494 285 l 1,42,-1
 376 285 l 2,43,44
 359 285 359 285 359 307 c 0,45,46
 359 361 359 361 384 361 c 2,47,-1
 560 361 l 2,10,11
EndSplineSet
Validated: 1
Position2: "'cpsp' Capital Spacing lookup 3 subtable" dx=5 dy=0 dh=10 dv=0
EndChar

StartChar: H
Encoding: 72 72 66
Width: 733
Flags: MW
HStem: -2 21G<85 100 100 108 535 550 550 558> 321 76<189 543 181 551> 682 20G<173 181 181 195.5 623 631 631 645.5>
VStem: 62 607
LayerCount: 2
UndoRedoHistory
Layer: 1
Undoes
EndUndoes
Redoes
EndRedoes
EndUndoRedoHistory
Fore
SplineSet
631 702 m 2,0,1
 669 702 669 702 669 680 c 1,2,-1
 600 20 l 2,3,4
 597 -2 597 -2 558 -2 c 2,5,-1
 550 -2 l 2,6,7
 512 -2 512 -2 512 20 c 1,8,-1
 543 321 l 1,9,-1
 181 321 l 1,10,-1
 150 20 l 2,11,12
 147 -2 147 -2 108 -2 c 2,13,-1
 100 -2 l 2,14,15
 62 -2 62 -2 62 20 c 1,16,-1
 131 680 l 2,17,18
 133 702 133 702 173 702 c 2,19,-1
 181 702 l 2,20,21
 219 702 219 702 219 680 c 1,22,-1
 189 397 l 1,23,-1
 551 397 l 1,24,-1
 581 680 l 2,25,26
 583 702 583 702 623 702 c 2,27,-1
 631 702 l 2,0,1
EndSplineSet
Validated: 1
Position2: "'cpsp' Capital Spacing lookup 3 subtable" dx=5 dy=0 dh=10 dv=0
EndChar

StartChar: Hbar
Encoding: 294 294 67
Width: 733
Flags: MW
HStem: -2 21G<85 100 100 108 535 550 550 558> 321 76<189 543 181 551> 490 71<69 119 84 111 206 561 657 672> 682 20G<173 181 181 195.5 623 631 631 645.5>
VStem: 59 135 125 94 574 94
LayerCount: 2
UndoRedoHistory
Layer: 1
Undoes
EndUndoes
Redoes
EndRedoes
EndUndoRedoHistory
Fore
SplineSet
680 561 m 2,0,1
 697 561 697 561 697 535 c 0,2,3
 697 490 697 490 672 490 c 2,4,-1
 649 490 l 1,5,-1
 600 20 l 2,6,7
 597 -2 597 -2 558 -2 c 2,8,-1
 550 -2 l 2,9,10
 512 -2 512 -2 512 20 c 1,11,-1
 543 321 l 1,12,-1
 181 321 l 1,13,-1
 150 20 l 2,14,15
 147 -2 147 -2 108 -2 c 2,16,-1
 100 -2 l 2,17,18
 62 -2 62 -2 62 20 c 1,19,-1
 111 490 l 1,20,-1
 76 490 l 2,21,22
 59 490 59 490 59 517 c 0,23,24
 59 561 59 561 84 561 c 2,25,-1
 119 561 l 1,26,-1
 131 680 l 2,27,28
 133 702 133 702 173 702 c 2,29,-1
 181 702 l 2,30,31
 219 702 219 702 219 680 c 1,32,-1
 206 561 l 1,33,-1
 568 561 l 1,34,-1
 581 680 l 2,35,36
 583 702 583 702 623 702 c 2,37,-1
 631 702 l 2,38,39
 669 702 669 702 668 680 c 1,40,-1
 657 561 l 1,41,-1
 680 561 l 2,0,1
561 490 m 1,42,-1
 199 490 l 1,43,-1
 189 397 l 1,44,-1
 551 397 l 1,45,-1
 561 490 l 1,42,-1
EndSplineSet
Validated: 33
Position2: "'cpsp' Capital Spacing lookup 3 subtable" dx=5 dy=0 dh=10 dv=0
EndChar

StartChar: Hcircumflex
Encoding: 292 292 68
Width: 733
Flags: MW
HStem: -2 21G<85 100 100 108 535 550 550 558> 321 76<189 543 181 551> 682 20G<173 181 181 195.5 623 631 631 645.5> 753 142<298 430 305 430 405 498 405 500>
VStem: 62 607
LayerCount: 2
UndoRedoHistory
Layer: 1
Undoes
EndUndoes
Redoes
EndRedoes
EndUndoRedoHistory
Fore
SplineSet
430 895 m 2,0,1
 462 895 462 895 474 873 c 2,2,-1
 521 785 l 2,3,4
 526 777 526 777 526 768 c 1,5,6
 524 753 524 753 500 753 c 2,7,-1
 498 753 l 2,8,9
 479 753 479 753 466 766 c 1,10,-1
 411 840 l 1,11,-1
 342 766 l 1,12,13
 326 753 326 753 307 753 c 2,14,-1
 305 753 l 2,15,16
 284 753 284 753 284 765 c 0,17,18
 284 774 284 774 291 785 c 2,19,-1
 357 873 l 2,20,21
 373 895 373 895 405 895 c 2,22,-1
 430 895 l 2,0,1
631 702 m 2,23,24
 669 702 669 702 669 680 c 1,25,-1
 600 20 l 2,26,27
 597 -2 597 -2 558 -2 c 2,28,-1
 550 -2 l 2,29,30
 512 -2 512 -2 512 20 c 1,31,-1
 543 321 l 1,32,-1
 181 321 l 1,33,-1
 150 20 l 2,34,35
 147 -2 147 -2 108 -2 c 2,36,-1
 100 -2 l 2,37,38
 62 -2 62 -2 62 20 c 1,39,-1
 131 680 l 2,40,41
 133 702 133 702 173 702 c 2,42,-1
 181 702 l 2,43,44
 219 702 219 702 219 680 c 1,45,-1
 189 397 l 1,46,-1
 551 397 l 1,47,-1
 581 680 l 2,48,49
 583 702 583 702 623 702 c 2,50,-1
 631 702 l 2,23,24
EndSplineSet
Validated: 1
Position2: "'cpsp' Capital Spacing lookup 3 subtable" dx=5 dy=0 dh=10 dv=0
EndChar

StartChar: Hdotbelow
Encoding: 7716 7716 69
Width: 733
Flags: MW
HStem: -173 95<325 343> -2 21G<85 100 100 108 535 550 550 558> 321 76<189 543 181 551> 682 20G<173 181 181 195.5 623 631 631 645.5>
VStem: 290 89<-158 -93>
LayerCount: 2
UndoRedoHistory
Layer: 1
Undoes
EndUndoes
Redoes
EndRedoes
EndUndoRedoHistory
Fore
SplineSet
631 702 m 2,0,1
 669 702 669 702 669 680 c 1,2,-1
 600 20 l 2,3,4
 597 -2 597 -2 558 -2 c 2,5,-1
 550 -2 l 2,6,7
 512 -2 512 -2 512 20 c 1,8,-1
 543 321 l 1,9,-1
 181 321 l 1,10,-1
 150 20 l 2,11,12
 147 -2 147 -2 108 -2 c 2,13,-1
 100 -2 l 2,14,15
 62 -2 62 -2 62 20 c 1,16,-1
 131 680 l 2,17,18
 133 702 133 702 173 702 c 2,19,-1
 181 702 l 2,20,21
 219 702 219 702 219 680 c 1,22,-1
 189 397 l 1,23,-1
 551 397 l 1,24,-1
 581 680 l 2,25,26
 583 702 583 702 623 702 c 2,27,-1
 631 702 l 2,0,1
295 -100 m 2,28,29
 298 -78 298 -78 341 -78 c 0,30,31
 379 -78 379 -78 379 -100 c 1,32,-1
 374 -151 l 2,33,34
 371 -173 371 -173 328 -173 c 0,35,36
 290 -173 290 -173 290 -151 c 1,37,-1
 295 -100 l 2,28,29
EndSplineSet
Validated: 1
Position2: "'cpsp' Capital Spacing lookup 3 subtable" dx=5 dy=0 dh=10 dv=0
EndChar

StartChar: I
Encoding: 73 73 70
Width: 282
Flags: MW
HStem: -2 21G<85 100 100 108> 682 20G<173 181 181 195.5>
VStem: 62 157
LayerCount: 2
UndoRedoHistory
Layer: 1
Undoes
EndUndoes
Redoes
EndRedoes
EndUndoRedoHistory
Fore
SplineSet
181 702 m 2,0,1
 219 702 219 702 219 680 c 1,2,-1
 150 20 l 2,3,4
 147 -2 147 -2 108 -2 c 2,5,-1
 100 -2 l 2,6,7
 62 -2 62 -2 62 20 c 1,8,-1
 131 680 l 2,9,10
 133 702 133 702 173 702 c 2,11,-1
 181 702 l 2,0,1
EndSplineSet
Validated: 1
Position2: "'cpsp' Capital Spacing lookup 3 subtable" dx=5 dy=0 dh=10 dv=0
EndChar

StartChar: IJ
Encoding: 306 306 71
Width: 684
Flags: MW
HStem: -6 82<337.5 398.5 332 432.5> -2 21G<85 100 100 108> 682 20G<173 181 181 195.5 590 598 598 612.5>
VStem: 62 574
LayerCount: 2
UndoRedoHistory
Layer: 1
Undoes
EndUndoes
Redoes
EndRedoes
EndUndoRedoHistory
Fore
SplineSet
181 702 m 2,0,1
 219 702 219 702 219 680 c 1,2,-1
 150 20 l 2,3,4
 147 -2 147 -2 108 -2 c 2,5,-1
 100 -2 l 2,6,7
 62 -2 62 -2 62 20 c 1,8,-1
 131 680 l 2,9,10
 133 702 133 702 173 702 c 2,11,-1
 181 702 l 2,0,1
598 702 m 2,12,13
 636 702 636 702 636 680 c 1,14,-1
 586 205 l 2,15,16
 564 -6 564 -6 359 -6 c 0,17,18
 271 -6 271 -6 271 26 c 0,19,20
 271 85 271 85 286 85 c 0,21,22
 287 85 287 85 307.5 80.5 c 128,-1,23
 328 76 328 76 352 76 c 0,24,25
 421 76 421 76 455.5 106 c 128,-1,26
 490 136 490 136 497 201 c 2,27,-1
 548 680 l 2,28,29
 550 702 550 702 590 702 c 2,30,-1
 598 702 l 2,12,13
EndSplineSet
Validated: 1
Position2: "'cpsp' Capital Spacing lookup 3 subtable" dx=5 dy=0 dh=10 dv=0
EndChar

StartChar: Iacute
Encoding: 205 205 72
Width: 282
Flags: MW
HStem: -2 21G<85 100 100 108> 682 20G<173 181 181 195.5>
VStem: 62 261
LayerCount: 2
UndoRedoHistory
Layer: 1
Undoes
EndUndoes
Redoes
EndRedoes
EndUndoRedoHistory
Fore
SplineSet
276 909 m 128,-1,1
 323 909 323 909 323 897 c 0,2,3
 323 888 323 888 258 821 c 0,4,5
 233 796 233 796 217 780 c 0,6,7
 199 762 199 762 164 762 c 0,8,9
 142 762 142 762 142 771 c 0,10,11
 142 783 142 783 211 883 c 0,12,0
 229 909 229 909 276 909 c 128,-1,1
181 702 m 2,13,14
 219 702 219 702 219 680 c 1,15,-1
 150 20 l 2,16,17
 147 -2 147 -2 108 -2 c 2,18,-1
 100 -2 l 2,19,20
 62 -2 62 -2 62 20 c 1,21,-1
 131 680 l 2,22,23
 133 702 133 702 173 702 c 2,24,-1
 181 702 l 2,13,14
EndSplineSet
Validated: 1
Position2: "'cpsp' Capital Spacing lookup 3 subtable" dx=5 dy=0 dh=10 dv=0
EndChar

StartChar: Ibreve
Encoding: 300 300 73
Width: 282
Flags: MW
HStem: -2 21G<85 100 100 108> 682 20G<173 181 181 195.5> 762 66<167.5 216 167.5 218.5>
VStem: 51 290<840.5 873.5>
LayerCount: 2
UndoRedoHistory
Layer: 1
Undoes
EndUndoes
Redoes
EndRedoes
EndUndoRedoHistory
Fore
SplineSet
327 892 m 0,0,1
 341 892 341 892 341 880 c 0,2,3
 341 825 341 825 291.5 793.5 c 128,-1,4
 242 762 242 762 185 762 c 0,5,6
 130 762 130 762 90.5 789 c 128,-1,7
 51 816 51 816 51 865 c 0,8,9
 51 892 51 892 68 892 c 0,10,11
 74 892 74 892 77.5 890 c 128,-1,12
 81 888 81 888 82 885.5 c 128,-1,13
 83 883 83 883 84.5 877 c 128,-1,14
 86 871 86 871 88 867 c 0,15,16
 105 828 105 828 192 828 c 0,17,18
 278 828 278 828 303 867 c 0,19,20
 306 872 306 872 309 880 c 128,-1,21
 312 888 312 888 315.5 890 c 128,-1,22
 319 892 319 892 327 892 c 0,0,1
181 702 m 2,23,24
 219 702 219 702 219 680 c 1,25,-1
 150 20 l 2,26,27
 147 -2 147 -2 108 -2 c 2,28,-1
 100 -2 l 2,29,30
 62 -2 62 -2 62 20 c 1,31,-1
 131 680 l 2,32,33
 133 702 133 702 173 702 c 2,34,-1
 181 702 l 2,23,24
EndSplineSet
Validated: 1
Position2: "'cpsp' Capital Spacing lookup 3 subtable" dx=5 dy=0 dh=10 dv=0
EndChar

StartChar: Icircumflex
Encoding: 206 206 74
Width: 282
Flags: MW
HStem: -2 21G<85 100 100 108> 682 20G<173 181 181 195.5> 753 142<73 205 80 205 180 273 180 275>
VStem: 59 242<761 770.5>
LayerCount: 2
UndoRedoHistory
Layer: 1
Undoes
EndUndoes
Redoes
EndRedoes
EndUndoRedoHistory
Fore
SplineSet
205 895 m 2,0,1
 237 895 237 895 249 873 c 2,2,-1
 296 785 l 2,3,4
 301 777 301 777 301 768 c 1,5,6
 299 753 299 753 275 753 c 2,7,-1
 273 753 l 2,8,9
 254 753 254 753 241 766 c 1,10,-1
 186 840 l 1,11,-1
 117 766 l 1,12,13
 101 753 101 753 82 753 c 2,14,-1
 80 753 l 2,15,16
 59 753 59 753 59 765 c 0,17,18
 59 774 59 774 66 785 c 2,19,-1
 132 873 l 2,20,21
 148 895 148 895 180 895 c 2,22,-1
 205 895 l 2,0,1
181 702 m 2,23,24
 219 702 219 702 219 680 c 1,25,-1
 150 20 l 2,26,27
 147 -2 147 -2 108 -2 c 2,28,-1
 100 -2 l 2,29,30
 62 -2 62 -2 62 20 c 1,31,-1
 131 680 l 2,32,33
 133 702 133 702 173 702 c 2,34,-1
 181 702 l 2,23,24
EndSplineSet
Validated: 1
Position2: "'cpsp' Capital Spacing lookup 3 subtable" dx=5 dy=0 dh=10 dv=0
EndChar

StartChar: Idieresis
Encoding: 207 207 75
Width: 282
Flags: MW
HStem: -2 21G<85 100 100 108> 682 20G<173 181 181 195.5> 784 95<109 127 253 271>
VStem: 74 89<799 864> 218 89<799 864>
LayerCount: 2
UndoRedoHistory
Layer: 1
Undoes
EndUndoes
Redoes
EndRedoes
EndUndoRedoHistory
Fore
SplineSet
79 857 m 2,0,1
 82 879 82 879 125 879 c 0,2,3
 163 879 163 879 163 857 c 1,4,-1
 158 806 l 2,5,6
 155 784 155 784 112 784 c 0,7,8
 74 784 74 784 74 806 c 1,9,-1
 79 857 l 2,0,1
223 857 m 2,10,11
 225 879 225 879 269 879 c 0,12,13
 307 879 307 879 307 857 c 1,14,-1
 302 806 l 2,15,16
 299 784 299 784 256 784 c 0,17,18
 218 784 218 784 218 806 c 1,19,-1
 223 857 l 2,10,11
181 702 m 2,20,21
 219 702 219 702 219 680 c 1,22,-1
 150 20 l 2,23,24
 147 -2 147 -2 108 -2 c 2,25,-1
 100 -2 l 2,26,27
 62 -2 62 -2 62 20 c 1,28,-1
 131 680 l 2,29,30
 133 702 133 702 173 702 c 2,31,-1
 181 702 l 2,20,21
EndSplineSet
Validated: 1
Position2: "'cpsp' Capital Spacing lookup 3 subtable" dx=5 dy=0 dh=10 dv=0
EndChar

StartChar: Idotaccent
Encoding: 304 304 76
Width: 282
Flags: MW
HStem: -2 21G<85 100 100 108> 682 20G<173 181 181 195.5> 784 95<181 199>
VStem: 146 89<799 864>
LayerCount: 2
UndoRedoHistory
Layer: 1
Undoes
EndUndoes
Redoes
EndRedoes
EndUndoRedoHistory
Fore
SplineSet
151 857 m 2,0,1
 154 879 154 879 197 879 c 0,2,3
 235 879 235 879 235 857 c 1,4,-1
 230 806 l 2,5,6
 227 784 227 784 184 784 c 0,7,8
 146 784 146 784 146 806 c 1,9,-1
 151 857 l 2,0,1
181 702 m 2,10,11
 219 702 219 702 219 680 c 1,12,-1
 150 20 l 2,13,14
 147 -2 147 -2 108 -2 c 2,15,-1
 100 -2 l 2,16,17
 62 -2 62 -2 62 20 c 1,18,-1
 131 680 l 2,19,20
 133 702 133 702 173 702 c 2,21,-1
 181 702 l 2,10,11
EndSplineSet
Validated: 1
Position2: "'cpsp' Capital Spacing lookup 3 subtable" dx=5 dy=0 dh=10 dv=0
EndChar

StartChar: Idotbelow
Encoding: 7882 7882 77
Width: 282
Flags: MW
HStem: -175 95<77 95> -2 21G<85 100 100 108> 682 20G<173 181 181 195.5>
VStem: 42 89<-160 -95>
LayerCount: 2
UndoRedoHistory
Layer: 1
Undoes
EndUndoes
Redoes
EndRedoes
EndUndoRedoHistory
Fore
SplineSet
181 702 m 2,0,1
 219 702 219 702 219 680 c 1,2,-1
 150 20 l 2,3,4
 147 -2 147 -2 108 -2 c 2,5,-1
 100 -2 l 2,6,7
 62 -2 62 -2 62 20 c 1,8,-1
 131 680 l 2,9,10
 133 702 133 702 173 702 c 2,11,-1
 181 702 l 2,0,1
47 -102 m 2,12,13
 50 -80 50 -80 93 -80 c 0,14,15
 131 -80 131 -80 131 -102 c 1,16,-1
 126 -153 l 2,17,18
 123 -175 123 -175 80 -175 c 0,19,20
 42 -175 42 -175 42 -153 c 1,21,-1
 47 -102 l 2,12,13
EndSplineSet
Validated: 1
Position2: "'cpsp' Capital Spacing lookup 3 subtable" dx=5 dy=0 dh=10 dv=0
EndChar

StartChar: Igrave
Encoding: 204 204 78
Width: 282
Flags: MW
HStem: -2 21G<85 100 100 108> 682 20G<173 181 181 195.5>
VStem: 61 168<768 897>
LayerCount: 2
UndoRedoHistory
Layer: 1
Undoes
EndUndoes
Redoes
EndRedoes
EndUndoRedoHistory
Fore
SplineSet
109 909 m 128,-1,1
 156 909 156 909 171 883 c 0,2,3
 229 784 229 784 229 771 c 0,4,5
 229 762 229 762 206 762 c 0,6,7
 170 762 170 762 155 780 c 0,8,9
 67 880 67 880 63 889 c 0,10,11
 61 893 61 893 61 897 c 0,12,0
 62 909 62 909 109 909 c 128,-1,1
181 702 m 2,13,14
 219 702 219 702 219 680 c 1,15,-1
 150 20 l 2,16,17
 147 -2 147 -2 108 -2 c 2,18,-1
 100 -2 l 2,19,20
 62 -2 62 -2 62 20 c 1,21,-1
 131 680 l 2,22,23
 133 702 133 702 173 702 c 2,24,-1
 181 702 l 2,13,14
EndSplineSet
Validated: 1
Position2: "'cpsp' Capital Spacing lookup 3 subtable" dx=5 dy=0 dh=10 dv=0
EndChar

StartChar: Ihookabove
Encoding: 7880 7880 79
Width: 282
Flags: MW
HStem: -2 21G<85 100 100 108> 682 20G<173 181 181 195.5> 876 51<185.5 200>
VStem: 224 66<825 859>
LayerCount: 2
UndoRedoHistory
Layer: 1
Undoes
EndUndoes
Redoes
EndRedoes
EndUndoRedoHistory
Fore
SplineSet
224 851 m 0,0,1
 224 876 224 876 190 876 c 0,2,3
 176 876 176 876 165.5 873 c 128,-1,4
 155 870 155 870 149 866.5 c 128,-1,5
 143 863 143 863 142 863 c 0,6,7
 136 863 136 863 129 875.5 c 128,-1,8
 122 888 122 888 122 896 c 0,9,10
 122 906 122 906 149.5 916.5 c 128,-1,11
 177 927 177 927 203 927 c 0,12,13
 235 927 235 927 262.5 910 c 128,-1,14
 290 893 290 893 290 857 c 0,15,16
 290 833 290 833 276 809.5 c 128,-1,17
 262 786 262 786 244 772 c 128,-1,18
 226 758 226 758 211 749 c 128,-1,19
 196 740 196 740 191 740 c 0,20,21
 175 740 175 740 163.5 745 c 128,-1,22
 152 750 152 750 152 757 c 0,23,24
 152 768 152 768 170 780.5 c 128,-1,25
 188 793 188 793 206 811 c 128,-1,26
 224 829 224 829 224 851 c 0,0,1
181 702 m 2,27,28
 219 702 219 702 219 680 c 1,29,-1
 150 20 l 2,30,31
 147 -2 147 -2 108 -2 c 2,32,-1
 100 -2 l 2,33,34
 62 -2 62 -2 62 20 c 1,35,-1
 131 680 l 2,36,37
 133 702 133 702 173 702 c 2,38,-1
 181 702 l 2,27,28
EndSplineSet
Validated: 1
Position2: "'cpsp' Capital Spacing lookup 3 subtable" dx=5 dy=0 dh=10 dv=0
EndChar

StartChar: Imacron
Encoding: 298 298 80
Width: 282
Flags: MW
HStem: -2 21G<85 100 100 108> 682 20G<173 181 181 195.5> 789 71<56 297 71 289>
VStem: 46 268<808 842>
LayerCount: 2
UndoRedoHistory
Layer: 1
Undoes
EndUndoes
Redoes
EndRedoes
EndUndoRedoHistory
Fore
SplineSet
297 860 m 2,0,1
 314 860 314 860 314 834 c 0,2,3
 314 789 314 789 289 789 c 2,4,-1
 63 789 l 2,5,6
 46 789 46 789 46 816 c 0,7,8
 46 860 46 860 71 860 c 2,9,-1
 297 860 l 2,0,1
181 702 m 2,10,11
 219 702 219 702 219 680 c 1,12,-1
 150 20 l 2,13,14
 147 -2 147 -2 108 -2 c 2,15,-1
 100 -2 l 2,16,17
 62 -2 62 -2 62 20 c 1,18,-1
 131 680 l 2,19,20
 133 702 133 702 173 702 c 2,21,-1
 181 702 l 2,10,11
EndSplineSet
Validated: 1
Position2: "'cpsp' Capital Spacing lookup 3 subtable" dx=5 dy=0 dh=10 dv=0
EndChar

StartChar: Iogonek
Encoding: 302 302 81
Width: 282
Flags: MW
HStem: -183 70<156 169.5> 0 21G 682 20G<173 181 181 195.5>
VStem: 40 69<-90 -85>
LayerCount: 2
UndoRedoHistory
Layer: 1
Undoes
EndUndoes
Redoes
EndRedoes
EndUndoRedoHistory
Fore
SplineSet
150 20 m 2,0,1
 148 5 148 5 128 0 c 1,2,3
 128 -6 128 -6 118.5 -30.5 c 128,-1,4
 109 -55 109 -55 109 -70 c 0,5,6
 109 -113 109 -113 167 -113 c 0,7,8
 185 -113 185 -113 207 -104 c 128,-1,9
 229 -95 229 -95 231 -95 c 0,10,11
 237 -95 237 -95 237 -108 c 0,12,13
 237 -183 237 -183 148 -183 c 0,14,15
 86 -183 86 -183 63 -156 c 128,-1,16
 40 -129 40 -129 40 -94 c 0,17,18
 40 -74 40 -74 49 -44.5 c 128,-1,19
 58 -15 58 -15 77 1 c 1,20,21
 62 5 62 5 62 20 c 1,22,-1
 131 680 l 2,23,24
 133 702 133 702 173 702 c 2,25,-1
 181 702 l 2,26,27
 219 702 219 702 219 680 c 1,28,-1
 150 20 l 2,0,1
EndSplineSet
Validated: 1
Position2: "'cpsp' Capital Spacing lookup 3 subtable" dx=5 dy=0 dh=10 dv=0
EndChar

StartChar: Itilde
Encoding: 296 296 82
Width: 282
Flags: MW
HStem: -2 21G<85 100 100 108> 682 20G<173 181 181 195.5> 762 64<250 263.5> 793 64<130 143.5>
VStem: 44 306<797 829>
LayerCount: 2
UndoRedoHistory
Layer: 1
Undoes
EndUndoes
Redoes
EndRedoes
EndUndoRedoHistory
Fore
SplineSet
308 848 m 0,0,1
 317 855 317 855 324 855 c 0,2,3
 334 855 334 855 341 846 c 0,4,5
 350 836 350 836 350 826 c 128,-1,6
 350 816 350 816 340 806 c 0,7,8
 292 762 292 762 245 762 c 0,9,10
 209 762 209 762 177 778 c 0,11,12
 147 793 147 793 138 793 c 0,13,14
 121 793 121 793 89 774 c 0,15,16
 79 768 79 768 70 768 c 0,17,18
 58 768 58 768 51 780 c 1,19,20
 44 790 44 790 44 800 c 128,-1,21
 44 810 44 810 52 816 c 0,22,23
 103 857 103 857 148 857 c 0,24,25
 175 857 175 857 217 839 c 1,26,27
 243 826 243 826 256 826 c 0,28,29
 279 826 279 826 308 848 c 0,0,1
181 702 m 2,30,31
 219 702 219 702 219 680 c 1,32,-1
 150 20 l 2,33,34
 147 -2 147 -2 108 -2 c 2,35,-1
 100 -2 l 2,36,37
 62 -2 62 -2 62 20 c 1,38,-1
 131 680 l 2,39,40
 133 702 133 702 173 702 c 2,41,-1
 181 702 l 2,30,31
EndSplineSet
Validated: 1
Position2: "'cpsp' Capital Spacing lookup 3 subtable" dx=5 dy=0 dh=10 dv=0
EndChar

StartChar: J
Encoding: 74 74 83
Width: 402
Flags: MW
HStem: -6 82<55.5 116.5 50 150.5> 682 20G<308 316 316 330.5>
VStem: -11 365
LayerCount: 2
UndoRedoHistory
Layer: 1
Undoes
EndUndoes
Redoes
EndRedoes
EndUndoRedoHistory
Fore
SplineSet
316 702 m 2,0,1
 354 702 354 702 354 680 c 1,2,-1
 304 205 l 2,3,4
 282 -6 282 -6 77 -6 c 0,5,6
 -11 -6 -11 -6 -11 26 c 0,7,8
 -11 85 -11 85 4 85 c 0,9,10
 5 85 5 85 25.5 80.5 c 128,-1,11
 46 76 46 76 70 76 c 0,12,13
 139 76 139 76 173.5 106 c 128,-1,14
 208 136 208 136 215 201 c 2,15,-1
 266 680 l 2,16,17
 268 702 268 702 308 702 c 2,18,-1
 316 702 l 2,0,1
EndSplineSet
Validated: 1
Position2: "'cpsp' Capital Spacing lookup 3 subtable" dx=5 dy=0 dh=10 dv=0
EndChar

StartChar: Jcircumflex
Encoding: 308 308 84
Width: 402
Flags: MW
HStem: -6 82<55.5 116.5 50 150.5> 682 20G<308 316 316 330.5> 755 142<201 333 208 333 308 401 308 403>
VStem: -11 440
LayerCount: 2
UndoRedoHistory
Layer: 1
Undoes
EndUndoes
Redoes
EndRedoes
EndUndoRedoHistory
Fore
SplineSet
333 897 m 2,0,1
 365 897 365 897 377 875 c 2,2,-1
 424 787 l 1,3,4
 429 780 429 780 429 770 c 1,5,6
 427 755 427 755 403 755 c 2,7,-1
 401 755 l 2,8,9
 382 755 382 755 369 768 c 1,10,-1
 314 842 l 1,11,-1
 245 768 l 1,12,13
 229 755 229 755 210 755 c 2,14,-1
 208 755 l 2,15,16
 187 755 187 755 187 767 c 0,17,18
 187 776 187 776 194 787 c 2,19,-1
 260 875 l 2,20,21
 276 897 276 897 308 897 c 2,22,-1
 333 897 l 2,0,1
316 702 m 2,23,24
 354 702 354 702 354 680 c 1,25,-1
 304 205 l 2,26,27
 282 -6 282 -6 77 -6 c 0,28,29
 -11 -6 -11 -6 -11 26 c 0,30,31
 -11 85 -11 85 4 85 c 0,32,33
 5 85 5 85 25.5 80.5 c 128,-1,34
 46 76 46 76 70 76 c 0,35,36
 139 76 139 76 173.5 106 c 128,-1,37
 208 136 208 136 215 201 c 2,38,-1
 266 680 l 2,39,40
 268 702 268 702 308 702 c 2,41,-1
 316 702 l 2,23,24
EndSplineSet
Validated: 1
Position2: "'cpsp' Capital Spacing lookup 3 subtable" dx=5 dy=0 dh=10 dv=0
EndChar

StartChar: K
Encoding: 75 75 85
Width: 576
Flags: MW
HStem: -2 21G<67 82 82 90 460.5 475 475 482> 682 20G<155 163 163 177.5 505 515 515 526.5>
VStem: 44 505
LayerCount: 2
UndoRedoHistory
Layer: 1
Undoes
EndUndoes
Redoes
EndRedoes
EndUndoRedoHistory
Fore
SplineSet
515 702 m 2,0,1
 549 702 549 702 549 690 c 0,2,3
 549 681 549 681 537 669 c 2,4,-1
 259 360 l 1,5,-1
 520 28 l 2,6,7
 527 19 527 19 527 12 c 0,8,9
 526 -2 526 -2 482 -2 c 2,10,-1
 475 -2 l 2,11,12
 432 -2 432 -2 421 11 c 2,13,-1
 169 333 l 1,14,-1
 165 333 l 1,15,-1
 132 20 l 2,16,17
 129 -2 129 -2 90 -2 c 2,18,-1
 82 -2 l 2,19,20
 44 -2 44 -2 44 20 c 1,21,-1
 113 680 l 2,22,23
 115 702 115 702 155 702 c 2,24,-1
 163 702 l 2,25,26
 201 702 201 702 201 680 c 1,27,-1
 169 374 l 1,28,-1
 173 374 l 1,29,-1
 450 688 l 2,30,31
 463 702 463 702 505 702 c 2,32,-1
 515 702 l 2,0,1
EndSplineSet
Validated: 1
Position2: "'cpsp' Capital Spacing lookup 3 subtable" dx=5 dy=0 dh=10 dv=0
EndChar

StartChar: Kcommaaccent
Encoding: 310 310 86
Width: 576
Flags: MW
HStem: -235 21G<174.5 196.5> -2 21G<67 82 82 90 460.5 475 475 482> 682 20G<155 163 163 177.5 505 515 515 526.5>
VStem: 210 90<-108 -73.5>
LayerCount: 2
UndoRedoHistory
Layer: 1
Undoes
EndUndoes
Redoes
EndRedoes
EndUndoRedoHistory
Fore
SplineSet
515 702 m 2,0,1
 549 702 549 702 549 690 c 0,2,3
 549 681 549 681 537 669 c 2,4,-1
 259 360 l 1,5,-1
 520 28 l 2,6,7
 527 19 527 19 527 12 c 0,8,9
 526 -2 526 -2 482 -2 c 2,10,-1
 475 -2 l 2,11,12
 432 -2 432 -2 421 11 c 2,13,-1
 169 333 l 1,14,-1
 165 333 l 1,15,-1
 132 20 l 2,16,17
 129 -2 129 -2 90 -2 c 2,18,-1
 82 -2 l 2,19,20
 44 -2 44 -2 44 20 c 1,21,-1
 113 680 l 2,22,23
 115 702 115 702 155 702 c 2,24,-1
 163 702 l 2,25,26
 201 702 201 702 201 680 c 1,27,-1
 169 374 l 1,28,-1
 173 374 l 1,29,-1
 450 688 l 2,30,31
 463 702 463 702 505 702 c 2,32,-1
 515 702 l 2,0,1
263 -51 m 2,33,34
 300 -51 300 -51 300 -79 c 0,35,36
 300 -120 300 -120 253.5 -177.5 c 128,-1,37
 207 -235 207 -235 180 -235 c 128,-1,38
 153 -235 153 -235 153 -220 c 0,39,40
 153 -209 153 -209 181.5 -164 c 128,-1,41
 210 -119 210 -119 210 -83 c 0,42,43
 210 -69 210 -69 222 -60 c 128,-1,44
 234 -51 234 -51 254 -51 c 2,45,-1
 263 -51 l 2,33,34
EndSplineSet
Validated: 1
Position2: "'cpsp' Capital Spacing lookup 3 subtable" dx=5 dy=0 dh=10 dv=0
EndChar

StartChar: L
Encoding: 76 76 87
Width: 484
Flags: MW
HStem: 0 76<66 434 143 426> 682 20G<160 168 168 182.5>
VStem: 50 401<19.5 61.5>
LayerCount: 2
UndoRedoHistory
Layer: 1
Undoes
EndUndoes
Redoes
EndRedoes
EndUndoRedoHistory
Fore
SplineSet
168 702 m 2,0,1
 206 702 206 702 206 680 c 1,2,-1
 143 76 l 1,3,-1
 434 76 l 2,4,5
 451 76 451 76 451 54 c 0,6,7
 451 0 451 0 426 0 c 2,8,-1
 77 0 l 2,9,10
 61 0 61 0 55.5 7 c 128,-1,11
 50 14 50 14 50 30 c 1,12,-1
 118 680 l 2,13,14
 120 702 120 702 160 702 c 2,15,-1
 168 702 l 2,0,1
EndSplineSet
Validated: 1
Position2: "'cpsp' Capital Spacing lookup 3 subtable" dx=5 dy=0 dh=10 dv=0
EndChar

StartChar: LJ
Encoding: 455 455 88
Width: 718
Flags: MW
HStem: -159 82<342.5 403.5 337 437.5> 0 76<66 350 143 342> 682 20G<160 168 168 182.5 611 619 619 633.5>
VStem: 50 607
LayerCount: 2
UndoRedoHistory
Layer: 1
Undoes
EndUndoes
Redoes
EndRedoes
EndUndoRedoHistory
Fore
SplineSet
168 702 m 2,0,1
 206 702 206 702 206 680 c 1,2,-1
 143 76 l 1,3,-1
 350 76 l 2,4,5
 367 76 367 76 367 54 c 0,6,7
 367 0 367 0 342 0 c 2,8,-1
 77 0 l 2,9,10
 61 0 61 0 55.5 7 c 128,-1,11
 50 14 50 14 50 30 c 1,12,-1
 118 680 l 2,13,14
 120 702 120 702 160 702 c 2,15,-1
 168 702 l 2,0,1
619 702 m 2,16,17
 657 702 657 702 657 680 c 1,18,-1
 591 52 l 2,19,20
 569 -159 569 -159 364 -159 c 0,21,22
 276 -159 276 -159 276 -127 c 0,23,24
 276 -68 276 -68 291 -68 c 0,25,26
 292 -68 292 -68 312.5 -72.5 c 128,-1,27
 333 -77 333 -77 357 -77 c 0,28,29
 426 -77 426 -77 460.5 -47 c 128,-1,30
 495 -17 495 -17 502 48 c 2,31,-1
 569 680 l 2,32,33
 571 702 571 702 611 702 c 2,34,-1
 619 702 l 2,16,17
EndSplineSet
Validated: 1
Position2: "'cpsp' Capital Spacing lookup 3 subtable" dx=5 dy=0 dh=10 dv=0
EndChar

StartChar: Lacute
Encoding: 313 313 89
Width: 484
Flags: MW
HStem: 0 76<66 434 143 426> 682 20G<160 168 168 182.5>
VStem: 50 401<19.5 61.5>
LayerCount: 2
UndoRedoHistory
Layer: 1
Undoes
EndUndoes
Redoes
EndRedoes
EndUndoRedoHistory
Fore
SplineSet
264 911 m 128,-1,1
 311 911 311 911 311 899 c 0,2,3
 311 890 311 890 246 823 c 0,4,5
 221 798 221 798 205 782 c 0,6,7
 187 764 187 764 152 764 c 0,8,9
 130 764 130 764 130 773 c 0,10,11
 130 785 130 785 199 885 c 0,12,0
 217 911 217 911 264 911 c 128,-1,1
168 702 m 2,13,14
 206 702 206 702 206 680 c 1,15,-1
 143 76 l 1,16,-1
 434 76 l 2,17,18
 451 76 451 76 451 54 c 0,19,20
 451 0 451 0 426 0 c 2,21,-1
 77 0 l 2,22,23
 61 0 61 0 55.5 7 c 128,-1,24
 50 14 50 14 50 30 c 1,25,-1
 118 680 l 2,26,27
 120 702 120 702 160 702 c 2,28,-1
 168 702 l 2,13,14
EndSplineSet
Validated: 1
Position2: "'cpsp' Capital Spacing lookup 3 subtable" dx=5 dy=0 dh=10 dv=0
EndChar

StartChar: Lcaron
Encoding: 317 317 90
Width: 484
Flags: MW
HStem: 0 76<66 434 143 426> 680 20G 682 20G<160 168 168 182.5>
VStem: 352 90<647 677.5>
LayerCount: 2
UndoRedoHistory
Layer: 1
Undoes
EndUndoes
Redoes
EndRedoes
EndUndoRedoHistory
Fore
SplineSet
168 702 m 2,0,1
 206 702 206 702 206 680 c 1,2,-1
 143 76 l 1,3,-1
 434 76 l 2,4,5
 451 76 451 76 451 54 c 0,6,7
 451 0 451 0 426 0 c 2,8,-1
 77 0 l 2,9,10
 61 0 61 0 55.5 7 c 128,-1,11
 50 14 50 14 50 30 c 1,12,-1
 118 680 l 2,13,14
 120 702 120 702 160 702 c 2,15,-1
 168 702 l 2,0,1
405 700 m 2,16,17
 442 700 442 700 442 672 c 0,18,19
 442 636 442 636 406.5 586 c 128,-1,20
 371 536 371 536 352 536 c 0,21,22
 325 536 325 536 325 551 c 0,23,24
 325 561 325 561 338.5 599.5 c 128,-1,25
 352 638 352 638 352 668 c 0,26,27
 352 682 352 682 364 691 c 128,-1,28
 376 700 376 700 396 700 c 2,29,-1
 405 700 l 2,16,17
EndSplineSet
Validated: 1
Position2: "'cpsp' Capital Spacing lookup 3 subtable" dx=5 dy=0 dh=10 dv=0
EndChar

StartChar: Lcommaaccent
Encoding: 315 315 91
Width: 484
Flags: MW
HStem: -235 21G<156.5 178.5> 0 76<66 434 143 426> 682 20G<160 168 168 182.5>
VStem: 192 90<-108 -73.5>
LayerCount: 2
UndoRedoHistory
Layer: 1
Undoes
EndUndoes
Redoes
EndRedoes
EndUndoRedoHistory
Fore
SplineSet
168 702 m 2,0,1
 206 702 206 702 206 680 c 1,2,-1
 143 76 l 1,3,-1
 434 76 l 2,4,5
 451 76 451 76 451 54 c 0,6,7
 451 0 451 0 426 0 c 2,8,-1
 77 0 l 2,9,10
 61 0 61 0 55.5 7 c 128,-1,11
 50 14 50 14 50 30 c 1,12,-1
 118 680 l 2,13,14
 120 702 120 702 160 702 c 2,15,-1
 168 702 l 2,0,1
245 -51 m 2,16,17
 282 -51 282 -51 282 -79 c 0,18,19
 282 -120 282 -120 235.5 -177.5 c 128,-1,20
 189 -235 189 -235 162 -235 c 128,-1,21
 135 -235 135 -235 135 -220 c 0,22,23
 135 -209 135 -209 163.5 -164 c 128,-1,24
 192 -119 192 -119 192 -83 c 0,25,26
 192 -69 192 -69 204 -60 c 128,-1,27
 216 -51 216 -51 236 -51 c 2,28,-1
 245 -51 l 2,16,17
EndSplineSet
Validated: 1
Position2: "'cpsp' Capital Spacing lookup 3 subtable" dx=5 dy=0 dh=10 dv=0
EndChar

StartChar: Ldot
Encoding: 319 319 92
Width: 484
Flags: MW
HStem: 0 76<66 434 143 426> 309 103<289.5 310.5> 682 20G<160 168 168 182.5>
VStem: 249 103<348.5 370.5>
LayerCount: 2
UndoRedoHistory
Layer: 1
Undoes
EndUndoes
Redoes
EndRedoes
EndUndoRedoHistory
Fore
SplineSet
168 702 m 2,0,1
 206 702 206 702 206 680 c 1,2,-1
 143 76 l 1,3,-1
 434 76 l 2,4,5
 451 76 451 76 451 54 c 0,6,7
 451 0 451 0 426 0 c 2,8,-1
 77 0 l 2,9,10
 61 0 61 0 55.5 7 c 128,-1,11
 50 14 50 14 50 30 c 1,12,-1
 118 680 l 2,13,14
 120 702 120 702 160 702 c 2,15,-1
 168 702 l 2,0,1
306 412 m 0,16,17
 326 412 326 412 339 399 c 128,-1,18
 352 386 352 386 352 366 c 0,19,20
 352 340 352 340 335.5 324.5 c 128,-1,21
 319 309 319 309 295 309 c 0,22,23
 275 309 275 309 262 321.5 c 128,-1,24
 249 334 249 334 249 354 c 0,25,26
 249 379 249 379 265 395.5 c 128,-1,27
 281 412 281 412 306 412 c 0,16,17
EndSplineSet
Validated: 1
Ligature2: "Ligature Substitution lookup 20 subtable" L periodcentered
Position2: "'cpsp' Capital Spacing lookup 3 subtable" dx=5 dy=0 dh=10 dv=0
EndChar

StartChar: Lj
Encoding: 456 456 93
Width: 760
Flags: MW
HStem: -212 72<472 499.5 466.5 520.5> 0 76<66 434 143 426> 649 103<647 678 666 672> 682 20G<160 168 168 182.5>
VStem: 618 98<662 738>
LayerCount: 2
UndoRedoHistory
Layer: 1
Undoes
EndUndoes
Redoes
EndRedoes
EndUndoRedoHistory
Fore
SplineSet
678 752 m 2,0,1
 716 752 716 752 716 730 c 1,2,-1
 710 671 l 1,3,4
 710 649 710 649 672 649 c 2,5,-1
 660 649 l 2,6,7
 618 649 618 649 618 671 c 1,8,-1
 624 730 l 2,9,10
 627 752 627 752 666 752 c 2,11,-1
 678 752 l 2,0,1
168 702 m 2,12,13
 206 702 206 702 206 680 c 1,14,-1
 143 76 l 1,15,-1
 434 76 l 2,16,17
 451 76 451 76 451 54 c 0,18,19
 451 0 451 0 426 0 c 2,20,-1
 77 0 l 2,21,22
 61 0 61 0 55.5 7 c 128,-1,23
 50 14 50 14 50 30 c 1,24,-1
 118 680 l 2,25,26
 120 702 120 702 160 702 c 2,27,-1
 168 702 l 2,12,13
650 525 m 2,28,29
 688 525 688 525 688 503 c 1,30,-1
 627 -74 l 2,31,32
 619 -152 619 -152 581.5 -182 c 128,-1,33
 544 -212 544 -212 495 -212 c 0,34,35
 461 -212 461 -212 439 -200.5 c 128,-1,36
 417 -189 417 -189 417 -171 c 0,37,38
 417 -123 417 -123 428 -123 c 0,39,40
 429 -123 429 -123 446 -131.5 c 128,-1,41
 463 -140 463 -140 484 -140 c 0,42,43
 510 -140 510 -140 525 -124 c 128,-1,44
 540 -108 540 -108 544 -66 c 2,45,-1
 604 503 l 2,46,47
 607 525 607 525 646 525 c 2,48,-1
 650 525 l 2,28,29
EndSplineSet
Validated: 1
Position2: "'cpsp' Capital Spacing lookup 3 subtable" dx=5 dy=0 dh=10 dv=0
EndChar

StartChar: Lslash
Encoding: 321 321 94
Width: 486
Flags: MW
HStem: 0 76<67 435 144 427> 682 20G<161 169 169 183.5>
VStem: -5 457<42.5 328>
LayerCount: 2
UndoRedoHistory
Layer: 1
Undoes
EndUndoes
Redoes
EndRedoes
EndUndoRedoHistory
Fore
SplineSet
169 702 m 2,0,1
 207 702 207 702 207 680 c 1,2,-1
 183 447 l 1,3,-1
 297 511 l 2,4,5
 305 515 305 515 308 515 c 0,6,7
 315 515 315 515 315 501 c 0,8,9
 315 477 315 477 292 465 c 2,10,-1
 178 401 l 1,11,-1
 144 76 l 1,12,-1
 435 76 l 2,13,14
 452 76 452 76 452 54 c 0,15,16
 452 0 452 0 427 0 c 2,17,-1
 78 0 l 2,18,19
 62 0 62 0 56.5 7 c 128,-1,20
 51 14 51 14 51 30 c 1,21,-1
 84 348 l 1,22,-1
 12 308 l 2,23,24
 4 304 4 304 2 304 c 0,25,26
 -5 304 -5 304 -5 318 c 0,27,28
 -5 341 -5 341 17 354 c 2,29,-1
 89 394 l 1,30,-1
 119 680 l 2,31,32
 121 702 121 702 161 702 c 2,33,-1
 169 702 l 2,0,1
EndSplineSet
Validated: 1
Position2: "'cpsp' Capital Spacing lookup 3 subtable" dx=5 dy=0 dh=10 dv=0
EndChar

StartChar: M
Encoding: 77 77 95
Width: 843
Flags: MW
HStem: -2 21G<77 92 92 99 653 668 668 675> 682 20G<165 201 201 213 715 748 748 762.5>
VStem: 54 732<13 687>
LayerCount: 2
UndoRedoHistory
Layer: 1
Undoes
EndUndoes
Redoes
EndRedoes
EndUndoRedoHistory
Fore
SplineSet
748 702 m 2,0,1
 786 702 786 702 786 680 c 1,2,-1
 717 20 l 2,3,4
 714 -2 714 -2 675 -2 c 2,5,-1
 668 -2 l 2,6,7
 630 -2 630 -2 630 20 c 1,8,-1
 686 558 l 1,9,-1
 683 554 l 1,10,-1
 449 208 l 2,11,12
 440 195 440 195 425 195 c 2,13,-1
 385 195 l 2,14,15
 371 195 371 195 365 208 c 2,16,-1
 201 558 l 1,17,-1
 198 564 l 1,18,-1
 141 20 l 2,19,20
 138 -2 138 -2 99 -2 c 2,21,-1
 92 -2 l 2,22,23
 54 -2 54 -2 54 20 c 1,24,-1
 123 680 l 2,25,26
 125 702 125 702 165 702 c 2,27,-1
 201 702 l 2,28,29
 234 702 234 702 242 684 c 2,30,-1
 396 356 l 1,31,-1
 416 293 l 1,32,-1
 448 350 l 1,33,-1
 672 684 l 2,34,35
 683 702 683 702 715 702 c 2,36,-1
 748 702 l 2,0,1
EndSplineSet
Validated: 1
Position2: "'cpsp' Capital Spacing lookup 3 subtable" dx=5 dy=0 dh=10 dv=0
EndChar

StartChar: N
Encoding: 78 78 96
Width: 719
Flags: MW
HStem: -2 21G<75 90 90 97 525.5 535 535 555> 682 20G<163 184 184 195 621 628 628 642.5>
VStem: 52 614
LayerCount: 2
UndoRedoHistory
Layer: 1
Undoes
EndUndoes
Redoes
EndRedoes
EndUndoRedoHistory
Fore
SplineSet
628 702 m 2,0,1
 666 702 666 702 666 680 c 1,2,-1
 597 20 l 2,3,4
 594 -2 594 -2 555 -2 c 2,5,-1
 535 -2 l 2,6,7
 509 -2 509 -2 501 12 c 2,8,-1
 217 510 l 1,9,-1
 196 561 l 1,10,-1
 139 20 l 2,11,12
 136 -2 136 -2 97 -2 c 2,13,-1
 90 -2 l 2,14,15
 52 -2 52 -2 52 20 c 1,16,-1
 121 680 l 2,17,18
 123 702 123 702 163 702 c 2,19,-1
 184 702 l 2,20,21
 213 702 213 702 224 683 c 2,22,-1
 499 201 l 1,23,-1
 523 145 l 1,24,-1
 579 680 l 2,25,26
 581 702 581 702 621 702 c 2,27,-1
 628 702 l 2,0,1
EndSplineSet
Validated: 1
Position2: "'cpsp' Capital Spacing lookup 3 subtable" dx=5 dy=0 dh=10 dv=0
EndChar

StartChar: NJ
Encoding: 458 458 97
Width: 1121
Flags: MW
HStem: -6 82<774.5 835.5 769 869.5> -2 21G<75 90 90 97 525.5 535 535 555> 682 20G<163 184 184 195 621 628 628 642.5 1027 1035 1035 1049.5>
VStem: 52 1021<13 687>
LayerCount: 2
UndoRedoHistory
Layer: 1
Undoes
EndUndoes
Redoes
EndRedoes
EndUndoRedoHistory
Fore
SplineSet
628 702 m 2,0,1
 666 702 666 702 666 680 c 1,2,-1
 597 20 l 2,3,4
 594 -2 594 -2 555 -2 c 2,5,-1
 535 -2 l 2,6,7
 509 -2 509 -2 501 12 c 2,8,-1
 217 510 l 1,9,-1
 196 561 l 1,10,-1
 139 20 l 2,11,12
 136 -2 136 -2 97 -2 c 2,13,-1
 90 -2 l 2,14,15
 52 -2 52 -2 52 20 c 1,16,-1
 121 680 l 2,17,18
 123 702 123 702 163 702 c 2,19,-1
 184 702 l 2,20,21
 213 702 213 702 224 683 c 2,22,-1
 499 201 l 1,23,-1
 523 145 l 1,24,-1
 579 680 l 2,25,26
 581 702 581 702 621 702 c 2,27,-1
 628 702 l 2,0,1
1035 702 m 2,28,29
 1073 702 1073 702 1073 680 c 1,30,-1
 1023 205 l 2,31,32
 1001 -6 1001 -6 796 -6 c 0,33,34
 708 -6 708 -6 708 26 c 0,35,36
 708 85 708 85 723 85 c 0,37,38
 724 85 724 85 744.5 80.5 c 128,-1,39
 765 76 765 76 789 76 c 0,40,41
 858 76 858 76 892.5 106 c 128,-1,42
 927 136 927 136 934 201 c 2,43,-1
 985 680 l 2,44,45
 987 702 987 702 1027 702 c 2,46,-1
 1035 702 l 2,28,29
EndSplineSet
Validated: 1
Position2: "'cpsp' Capital Spacing lookup 3 subtable" dx=5 dy=0 dh=10 dv=0
EndChar

StartChar: Nacute
Encoding: 323 323 98
Width: 719
Flags: MW
HStem: -2 21G<75 90 90 97 525.5 535 535 555> 682 20G<163 184 184 195 621 628 628 642.5>
VStem: 52 614
LayerCount: 2
UndoRedoHistory
Layer: 1
Undoes
EndUndoes
Redoes
EndRedoes
EndUndoRedoHistory
Fore
SplineSet
487 909 m 128,-1,1
 534 909 534 909 534 897 c 0,2,3
 534 888 534 888 469 821 c 0,4,5
 444 796 444 796 428 780 c 0,6,7
 410 762 410 762 375 762 c 0,8,9
 353 762 353 762 353 771 c 0,10,11
 353 783 353 783 422 883 c 0,12,0
 440 909 440 909 487 909 c 128,-1,1
628 702 m 2,13,14
 666 702 666 702 666 680 c 1,15,-1
 597 20 l 2,16,17
 594 -2 594 -2 555 -2 c 2,18,-1
 535 -2 l 2,19,20
 509 -2 509 -2 501 12 c 2,21,-1
 217 510 l 1,22,-1
 196 561 l 1,23,-1
 139 20 l 2,24,25
 136 -2 136 -2 97 -2 c 2,26,-1
 90 -2 l 2,27,28
 52 -2 52 -2 52 20 c 1,29,-1
 121 680 l 2,30,31
 123 702 123 702 163 702 c 2,32,-1
 184 702 l 2,33,34
 213 702 213 702 224 683 c 2,35,-1
 499 201 l 1,36,-1
 523 145 l 1,37,-1
 579 680 l 2,38,39
 581 702 581 702 621 702 c 2,40,-1
 628 702 l 2,13,14
EndSplineSet
Validated: 1
Substitution2: "'locl' Localized Forms in Latin lookup 12 subtable" Nacute.loclPLK
Substitution2: "'aalt' Access All Alternates lookup 0 subtable" Nacute.loclPLK
Position2: "'cpsp' Capital Spacing lookup 3 subtable" dx=5 dy=0 dh=10 dv=0
EndChar

StartChar: Ncaron
Encoding: 327 327 99
Width: 719
Flags: MW
HStem: -2 21G<75 90 90 97 525.5 535 535 555> 682 20G<163 184 184 195 621 628 628 642.5> 759 142<314 384 314 409>
VStem: 52 614
LayerCount: 2
UndoRedoHistory
Layer: 1
Undoes
EndUndoes
Redoes
EndRedoes
EndUndoRedoHistory
Fore
SplineSet
509 901 m 2,0,1
 531 901 531 901 531 887 c 0,2,3
 531 879 531 879 524 869 c 2,4,-1
 457 781 l 2,5,6
 441 759 441 759 409 759 c 2,7,-1
 384 759 l 2,8,9
 352 759 352 759 340 781 c 2,10,-1
 294 869 l 2,11,12
 289 878 289 878 289 887 c 1,13,14
 291 901 291 901 314 901 c 2,15,-1
 316 901 l 2,16,17
 336 901 336 901 349 888 c 1,18,-1
 402 814 l 1,19,-1
 473 888 l 1,20,21
 489 901 489 901 507 901 c 2,22,-1
 509 901 l 2,0,1
628 702 m 2,23,24
 666 702 666 702 666 680 c 1,25,-1
 597 20 l 2,26,27
 594 -2 594 -2 555 -2 c 2,28,-1
 535 -2 l 2,29,30
 509 -2 509 -2 501 12 c 2,31,-1
 217 510 l 1,32,-1
 196 561 l 1,33,-1
 139 20 l 2,34,35
 136 -2 136 -2 97 -2 c 2,36,-1
 90 -2 l 2,37,38
 52 -2 52 -2 52 20 c 1,39,-1
 121 680 l 2,40,41
 123 702 123 702 163 702 c 2,42,-1
 184 702 l 2,43,44
 213 702 213 702 224 683 c 2,45,-1
 499 201 l 1,46,-1
 523 145 l 1,47,-1
 579 680 l 2,48,49
 581 702 581 702 621 702 c 2,50,-1
 628 702 l 2,23,24
EndSplineSet
Validated: 1
Position2: "'cpsp' Capital Spacing lookup 3 subtable" dx=5 dy=0 dh=10 dv=0
EndChar

StartChar: Ncommaaccent
Encoding: 325 325 100
Width: 719
Flags: MW
HStem: -235 21G<250.5 272.5> -2 21G<75 90 90 97 525.5 535 535 555> 682 20G<163 184 184 195 621 628 628 642.5>
VStem: 286 90<-108 -73.5>
LayerCount: 2
UndoRedoHistory
Layer: 1
Undoes
EndUndoes
Redoes
EndRedoes
EndUndoRedoHistory
Fore
SplineSet
628 702 m 2,0,1
 666 702 666 702 666 680 c 1,2,-1
 597 20 l 2,3,4
 594 -2 594 -2 555 -2 c 2,5,-1
 535 -2 l 2,6,7
 509 -2 509 -2 501 12 c 2,8,-1
 217 510 l 1,9,-1
 196 561 l 1,10,-1
 139 20 l 2,11,12
 136 -2 136 -2 97 -2 c 2,13,-1
 90 -2 l 2,14,15
 52 -2 52 -2 52 20 c 1,16,-1
 121 680 l 2,17,18
 123 702 123 702 163 702 c 2,19,-1
 184 702 l 2,20,21
 213 702 213 702 224 683 c 2,22,-1
 499 201 l 1,23,-1
 523 145 l 1,24,-1
 579 680 l 2,25,26
 581 702 581 702 621 702 c 2,27,-1
 628 702 l 2,0,1
339 -51 m 2,28,29
 376 -51 376 -51 376 -79 c 0,30,31
 376 -120 376 -120 329.5 -177.5 c 128,-1,32
 283 -235 283 -235 256 -235 c 128,-1,33
 229 -235 229 -235 229 -220 c 0,34,35
 229 -209 229 -209 257.5 -164 c 128,-1,36
 286 -119 286 -119 286 -83 c 0,37,38
 286 -69 286 -69 298 -60 c 128,-1,39
 310 -51 310 -51 330 -51 c 2,40,-1
 339 -51 l 2,28,29
EndSplineSet
Validated: 1
Position2: "'cpsp' Capital Spacing lookup 3 subtable" dx=5 dy=0 dh=10 dv=0
EndChar

StartChar: Ndotaccent
Encoding: 7748 7748 101
Width: 719
Flags: MW
HStem: -2 21G<75 90 90 97 525.5 535 535 555> 682 20G<163 184 184 195 621 628 628 642.5> 784 95<392 410>
VStem: 357 89<799 864>
LayerCount: 2
UndoRedoHistory
Layer: 1
Undoes
EndUndoes
Redoes
EndRedoes
EndUndoRedoHistory
Fore
SplineSet
362 857 m 2,0,1
 365 879 365 879 408 879 c 0,2,3
 446 879 446 879 446 857 c 1,4,-1
 441 806 l 2,5,6
 438 784 438 784 395 784 c 0,7,8
 357 784 357 784 357 806 c 1,9,-1
 362 857 l 2,0,1
628 702 m 2,10,11
 666 702 666 702 666 680 c 1,12,-1
 597 20 l 2,13,14
 594 -2 594 -2 555 -2 c 2,15,-1
 535 -2 l 2,16,17
 509 -2 509 -2 501 12 c 2,18,-1
 217 510 l 1,19,-1
 196 561 l 1,20,-1
 139 20 l 2,21,22
 136 -2 136 -2 97 -2 c 2,23,-1
 90 -2 l 2,24,25
 52 -2 52 -2 52 20 c 1,26,-1
 121 680 l 2,27,28
 123 702 123 702 163 702 c 2,29,-1
 184 702 l 2,30,31
 213 702 213 702 224 683 c 2,32,-1
 499 201 l 1,33,-1
 523 145 l 1,34,-1
 579 680 l 2,35,36
 581 702 581 702 621 702 c 2,37,-1
 628 702 l 2,10,11
EndSplineSet
Validated: 1
Position2: "'cpsp' Capital Spacing lookup 3 subtable" dx=5 dy=0 dh=10 dv=0
EndChar

StartChar: Eng
Encoding: 330 330 102
Width: 719
Flags: MW
HStem: -212 72<432 459.5 426.5 480.5> -2 21G<75 90 90 97> 682 20G<163 184 184 195 621 628 628 642.5>
VStem: 508 84
LayerCount: 2
UndoRedoHistory
Layer: 1
Undoes
EndUndoes
Redoes
EndRedoes
EndUndoRedoHistory
Fore
SplineSet
648 506 m 1,0,-1
 648 503 l 1,1,-1
 603 73 l 1,2,-1
 597 20 l 1,3,-1
 587 -74 l 2,4,5
 579 -152 579 -152 541.5 -182 c 128,-1,6
 504 -212 504 -212 455 -212 c 0,7,8
 421 -212 421 -212 399 -200.5 c 128,-1,9
 377 -189 377 -189 377 -171 c 0,10,11
 377 -123 377 -123 388 -123 c 0,12,13
 389 -123 389 -123 406 -131.5 c 128,-1,14
 423 -140 423 -140 444 -140 c 0,15,16
 470 -140 470 -140 485 -124 c 128,-1,17
 500 -108 500 -108 504 -66 c 2,18,-1
 511 -4 l 1,19,-1
 217 510 l 1,20,-1
 196 561 l 1,21,-1
 139 20 l 2,22,23
 136 -2 136 -2 97 -2 c 2,24,-1
 90 -2 l 2,25,26
 52 -2 52 -2 52 20 c 1,27,-1
 121 680 l 2,28,29
 123 702 123 702 163 702 c 2,30,-1
 184 702 l 2,31,32
 213 702 213 702 224 683 c 2,33,-1
 499 201 l 1,34,-1
 523 145 l 1,35,-1
 579 680 l 2,36,37
 581 702 581 702 621 702 c 2,38,-1
 628 702 l 2,39,40
 666 702 666 702 666 680 c 1,41,-1
 648 506 l 1,0,-1
EndSplineSet
Validated: 1
Position2: "'cpsp' Capital Spacing lookup 3 subtable" dx=5 dy=0 dh=10 dv=0
EndChar

StartChar: Nj
Encoding: 459 459 103
Width: 995
Flags: MW
HStem: -212 72<707 734.5 701.5 755.5> -2 21G<75 90 90 97 525.5 535 535 555> 649 103<882 913 901 907> 682 20G<163 184 184 195 621 628 628 642.5>
VStem: 853 98<662 738>
LayerCount: 2
UndoRedoHistory
Layer: 1
Undoes
EndUndoes
Redoes
EndRedoes
EndUndoRedoHistory
Fore
SplineSet
913 752 m 2,0,1
 951 752 951 752 951 730 c 1,2,-1
 945 671 l 1,3,4
 945 649 945 649 907 649 c 2,5,-1
 895 649 l 2,6,7
 853 649 853 649 853 671 c 1,8,-1
 859 730 l 2,9,10
 862 752 862 752 901 752 c 2,11,-1
 913 752 l 2,0,1
628 702 m 2,12,13
 666 702 666 702 666 680 c 1,14,-1
 597 20 l 2,15,16
 594 -2 594 -2 555 -2 c 2,17,-1
 535 -2 l 2,18,19
 509 -2 509 -2 501 12 c 2,20,-1
 217 510 l 1,21,-1
 196 561 l 1,22,-1
 139 20 l 2,23,24
 136 -2 136 -2 97 -2 c 2,25,-1
 90 -2 l 2,26,27
 52 -2 52 -2 52 20 c 1,28,-1
 121 680 l 2,29,30
 123 702 123 702 163 702 c 2,31,-1
 184 702 l 2,32,33
 213 702 213 702 224 683 c 2,34,-1
 499 201 l 1,35,-1
 523 145 l 1,36,-1
 579 680 l 2,37,38
 581 702 581 702 621 702 c 2,39,-1
 628 702 l 2,12,13
885 525 m 2,40,41
 923 525 923 525 923 503 c 1,42,-1
 862 -74 l 2,43,44
 854 -152 854 -152 816.5 -182 c 128,-1,45
 779 -212 779 -212 730 -212 c 0,46,47
 696 -212 696 -212 674 -200.5 c 128,-1,48
 652 -189 652 -189 652 -171 c 0,49,50
 652 -123 652 -123 663 -123 c 0,51,52
 664 -123 664 -123 681 -131.5 c 128,-1,53
 698 -140 698 -140 719 -140 c 0,54,55
 745 -140 745 -140 760 -124 c 128,-1,56
 775 -108 775 -108 779 -66 c 2,57,-1
 839 503 l 2,58,59
 842 525 842 525 881 525 c 2,60,-1
 885 525 l 2,40,41
EndSplineSet
Validated: 1
Position2: "'cpsp' Capital Spacing lookup 3 subtable" dx=5 dy=0 dh=10 dv=0
EndChar

StartChar: Ntilde
Encoding: 209 209 104
Width: 719
Flags: MW
HStem: -2 21G<75 90 90 97 525.5 535 535 555> 682 20G<163 184 184 195 621 628 628 642.5> 762 64<469 483.5> 793 64<335.5 350.5>
VStem: 52 614
LayerCount: 2
UndoRedoHistory
Layer: 1
Undoes
EndUndoes
Redoes
EndRedoes
EndUndoRedoHistory
Fore
SplineSet
533 848 m 0,0,1
 544 855 544 855 551 855 c 0,2,3
 561 855 561 855 570 846 c 0,4,5
 580 836 580 836 580 826 c 0,6,7
 580 815 580 815 569 806 c 0,8,9
 516 762 516 762 463 762 c 0,10,11
 422 762 422 762 388 778 c 0,12,13
 354 793 354 793 344 793 c 0,14,15
 326 793 326 793 290 774 c 0,16,17
 278 768 278 768 269 768 c 0,18,19
 257 768 257 768 248 780 c 0,20,21
 240 791 240 791 240 800 c 128,-1,22
 240 809 240 809 249 816 c 0,23,24
 306 857 306 857 356 857 c 0,25,26
 387 857 387 857 432 839 c 0,27,28
 462 826 462 826 476 826 c 0,29,30
 500 826 500 826 533 848 c 0,0,1
628 702 m 2,31,32
 666 702 666 702 666 680 c 1,33,-1
 597 20 l 2,34,35
 594 -2 594 -2 555 -2 c 2,36,-1
 535 -2 l 2,37,38
 509 -2 509 -2 501 12 c 2,39,-1
 217 510 l 1,40,-1
 196 561 l 1,41,-1
 139 20 l 2,42,43
 136 -2 136 -2 97 -2 c 2,44,-1
 90 -2 l 2,45,46
 52 -2 52 -2 52 20 c 1,47,-1
 121 680 l 2,48,49
 123 702 123 702 163 702 c 2,50,-1
 184 702 l 2,51,52
 213 702 213 702 224 683 c 2,53,-1
 499 201 l 1,54,-1
 523 145 l 1,55,-1
 579 680 l 2,56,57
 581 702 581 702 621 702 c 2,58,-1
 628 702 l 2,31,32
EndSplineSet
Validated: 1
Position2: "'cpsp' Capital Spacing lookup 3 subtable" dx=5 dy=0 dh=10 dv=0
EndChar

StartChar: O
Encoding: 79 79 105
Width: 731
Flags: MW
HStem: -6 76<272.5 410 272.5 434> 630 76<318 456.5>
VStem: 53 91<218.5 387> 586 92<299.5 483>
LayerCount: 2
UndoRedoHistory
Layer: 1
Undoes
EndUndoes
Redoes
EndRedoes
EndUndoRedoHistory
Fore
SplineSet
402 706 m 0,0,1
 537 706 537 706 607.5 633.5 c 128,-1,2
 678 561 678 561 678 420 c 0,3,4
 678 215 678 215 584 104.5 c 128,-1,5
 490 -6 490 -6 327 -6 c 0,6,7
 193 -6 193 -6 123 67 c 128,-1,8
 53 140 53 140 53 282 c 0,9,10
 53 348 53 348 64 407 c 128,-1,11
 75 466 75 466 100.5 521.5 c 128,-1,12
 126 577 126 577 165 617.5 c 128,-1,13
 204 658 204 658 265 682 c 128,-1,14
 326 706 326 706 402 706 c 0,0,1
394 630 m 0,15,16
 278 630 278 630 211 543 c 128,-1,17
 144 456 144 456 144 291 c 0,18,19
 144 182 144 182 192.5 126 c 128,-1,20
 241 70 241 70 335 70 c 0,21,22
 450 70 450 70 518 158.5 c 128,-1,23
 586 247 586 247 586 410 c 0,24,25
 586 519 586 519 537 574.5 c 128,-1,26
 488 630 488 630 394 630 c 0,15,16
EndSplineSet
Validated: 1
Substitution2: "Single Substitution lookup 21 subtable" ordmasculine
Substitution2: "'aalt' Access All Alternates lookup 0 subtable" ordmasculine
Position2: "'cpsp' Capital Spacing lookup 3 subtable" dx=5 dy=0 dh=10 dv=0
EndChar

StartChar: Oacute
Encoding: 211 211 106
Width: 731
Flags: MW
HStem: -6 76<272.5 410 272.5 434> 630 76<318 456.5>
VStem: 53 91<218.5 387> 586 92<299.5 483>
LayerCount: 2
UndoRedoHistory
Layer: 1
Undoes
EndUndoes
Redoes
EndRedoes
EndUndoRedoHistory
Fore
SplineSet
498 909 m 128,-1,1
 545 909 545 909 545 897 c 0,2,3
 545 888 545 888 480 821 c 0,4,5
 455 796 455 796 439 780 c 0,6,7
 421 762 421 762 386 762 c 0,8,9
 364 762 364 762 364 771 c 0,10,11
 364 783 364 783 433 883 c 0,12,0
 451 909 451 909 498 909 c 128,-1,1
402 706 m 0,13,14
 537 706 537 706 607.5 633.5 c 128,-1,15
 678 561 678 561 678 420 c 0,16,17
 678 215 678 215 584 104.5 c 128,-1,18
 490 -6 490 -6 327 -6 c 0,19,20
 193 -6 193 -6 123 67 c 128,-1,21
 53 140 53 140 53 282 c 0,22,23
 53 348 53 348 64 407 c 128,-1,24
 75 466 75 466 100.5 521.5 c 128,-1,25
 126 577 126 577 165 617.5 c 128,-1,26
 204 658 204 658 265 682 c 128,-1,27
 326 706 326 706 402 706 c 0,13,14
394 630 m 0,28,29
 278 630 278 630 211 543 c 128,-1,30
 144 456 144 456 144 291 c 0,31,32
 144 182 144 182 192.5 126 c 128,-1,33
 241 70 241 70 335 70 c 0,34,35
 450 70 450 70 518 158.5 c 128,-1,36
 586 247 586 247 586 410 c 0,37,38
 586 519 586 519 537 574.5 c 128,-1,39
 488 630 488 630 394 630 c 0,28,29
EndSplineSet
Validated: 1
Substitution2: "'locl' Localized Forms in Latin lookup 12 subtable" Oacute.loclPLK
Substitution2: "'aalt' Access All Alternates lookup 0 subtable" Oacute.loclPLK
Position2: "'cpsp' Capital Spacing lookup 3 subtable" dx=5 dy=0 dh=10 dv=0
EndChar

StartChar: Obreve
Encoding: 334 334 107
Width: 731
Flags: MW
HStem: -6 76<272.5 410 272.5 434> 630 76<318 456.5> 762 66<389.5 438 389.5 440.5>
VStem: 53 91<218.5 387> 586 92<299.5 483>
LayerCount: 2
UndoRedoHistory
Layer: 1
Undoes
EndUndoes
Redoes
EndRedoes
EndUndoRedoHistory
Fore
SplineSet
549 892 m 0,0,1
 563 892 563 892 563 880 c 0,2,3
 563 825 563 825 513.5 793.5 c 128,-1,4
 464 762 464 762 407 762 c 0,5,6
 352 762 352 762 312.5 789 c 128,-1,7
 273 816 273 816 273 865 c 0,8,9
 273 892 273 892 290 892 c 0,10,11
 296 892 296 892 299.5 890 c 128,-1,12
 303 888 303 888 304 885.5 c 128,-1,13
 305 883 305 883 306.5 877 c 128,-1,14
 308 871 308 871 310 867 c 0,15,16
 327 828 327 828 414 828 c 0,17,18
 500 828 500 828 525 867 c 0,19,20
 528 872 528 872 531 880 c 128,-1,21
 534 888 534 888 537.5 890 c 128,-1,22
 541 892 541 892 549 892 c 0,0,1
402 706 m 0,23,24
 537 706 537 706 607.5 633.5 c 128,-1,25
 678 561 678 561 678 420 c 0,26,27
 678 215 678 215 584 104.5 c 128,-1,28
 490 -6 490 -6 327 -6 c 0,29,30
 193 -6 193 -6 123 67 c 128,-1,31
 53 140 53 140 53 282 c 0,32,33
 53 348 53 348 64 407 c 128,-1,34
 75 466 75 466 100.5 521.5 c 128,-1,35
 126 577 126 577 165 617.5 c 128,-1,36
 204 658 204 658 265 682 c 128,-1,37
 326 706 326 706 402 706 c 0,23,24
394 630 m 0,38,39
 278 630 278 630 211 543 c 128,-1,40
 144 456 144 456 144 291 c 0,41,42
 144 182 144 182 192.5 126 c 128,-1,43
 241 70 241 70 335 70 c 0,44,45
 450 70 450 70 518 158.5 c 128,-1,46
 586 247 586 247 586 410 c 0,47,48
 586 519 586 519 537 574.5 c 128,-1,49
 488 630 488 630 394 630 c 0,38,39
EndSplineSet
Validated: 1
Position2: "'cpsp' Capital Spacing lookup 3 subtable" dx=5 dy=0 dh=10 dv=0
EndChar

StartChar: Ocircumflex
Encoding: 212 212 108
Width: 731
Flags: MW
HStem: -6 76<272.5 410 272.5 434> 630 76<318 456.5> 753 142<295 427 302 427 402 495 402 497>
VStem: 53 91<218.5 387> 586 92<299.5 483>
LayerCount: 2
UndoRedoHistory
Layer: 1
Undoes
EndUndoes
Redoes
EndRedoes
EndUndoRedoHistory
Fore
SplineSet
427 895 m 2,0,1
 459 895 459 895 471 873 c 2,2,-1
 518 785 l 2,3,4
 523 777 523 777 523 768 c 1,5,6
 521 753 521 753 497 753 c 2,7,-1
 495 753 l 2,8,9
 476 753 476 753 463 766 c 1,10,-1
 408 840 l 1,11,-1
 339 766 l 1,12,13
 323 753 323 753 304 753 c 2,14,-1
 302 753 l 2,15,16
 281 753 281 753 281 765 c 0,17,18
 281 774 281 774 288 785 c 2,19,-1
 354 873 l 2,20,21
 370 895 370 895 402 895 c 2,22,-1
 427 895 l 2,0,1
402 706 m 0,23,24
 537 706 537 706 607.5 633.5 c 128,-1,25
 678 561 678 561 678 420 c 0,26,27
 678 215 678 215 584 104.5 c 128,-1,28
 490 -6 490 -6 327 -6 c 0,29,30
 193 -6 193 -6 123 67 c 128,-1,31
 53 140 53 140 53 282 c 0,32,33
 53 348 53 348 64 407 c 128,-1,34
 75 466 75 466 100.5 521.5 c 128,-1,35
 126 577 126 577 165 617.5 c 128,-1,36
 204 658 204 658 265 682 c 128,-1,37
 326 706 326 706 402 706 c 0,23,24
394 630 m 0,38,39
 278 630 278 630 211 543 c 128,-1,40
 144 456 144 456 144 291 c 0,41,42
 144 182 144 182 192.5 126 c 128,-1,43
 241 70 241 70 335 70 c 0,44,45
 450 70 450 70 518 158.5 c 128,-1,46
 586 247 586 247 586 410 c 0,47,48
 586 519 586 519 537 574.5 c 128,-1,49
 488 630 488 630 394 630 c 0,38,39
EndSplineSet
Validated: 1
Position2: "'cpsp' Capital Spacing lookup 3 subtable" dx=5 dy=0 dh=10 dv=0
EndChar

StartChar: Ocircumflexacute
Encoding: 7888 7888 109
Width: 731
Flags: MW
HStem: -6 76<272.5 410 272.5 434> 630 76<318 456.5>
VStem: 53 91<218.5 387> 586 92<299.5 483>
LayerCount: 2
UndoRedoHistory
Layer: 1
Undoes
EndUndoes
Redoes
EndRedoes
EndUndoRedoHistory
Fore
SplineSet
402 706 m 0,0,1
 537 706 537 706 607.5 633.5 c 128,-1,2
 678 561 678 561 678 420 c 0,3,4
 678 215 678 215 584 104.5 c 128,-1,5
 490 -6 490 -6 327 -6 c 0,6,7
 193 -6 193 -6 123 67 c 128,-1,8
 53 140 53 140 53 282 c 0,9,10
 53 348 53 348 64 407 c 128,-1,11
 75 466 75 466 100.5 521.5 c 128,-1,12
 126 577 126 577 165 617.5 c 128,-1,13
 204 658 204 658 265 682 c 128,-1,14
 326 706 326 706 402 706 c 0,0,1
394 630 m 0,15,16
 278 630 278 630 211 543 c 128,-1,17
 144 456 144 456 144 291 c 0,18,19
 144 182 144 182 192.5 126 c 128,-1,20
 241 70 241 70 335 70 c 0,21,22
 450 70 450 70 518 158.5 c 128,-1,23
 586 247 586 247 586 410 c 0,24,25
 586 519 586 519 537 574.5 c 128,-1,26
 488 630 488 630 394 630 c 0,15,16
633 961 m 0,27,28
 665 961 665 961 665 949 c 0,29,30
 665 943 665 943 573 842 c 1,31,32
 558 824 558 824 535 824 c 0,33,34
 513 824 513 824 513 833 c 0,35,36
 513 847 513 847 568 935 c 0,37,38
 584 961 584 961 633 961 c 0,27,28
435 895 m 2,39,40
 459 895 459 895 469 873 c 2,41,-1
 511 785 l 1,42,43
 516 777 516 777 516 768 c 1,44,45
 514 753 514 753 490 753 c 2,46,-1
 488 753 l 2,47,48
 463 753 463 753 456 766 c 2,49,-1
 416 840 l 1,50,-1
 347 766 l 1,51,52
 331 753 331 753 312 753 c 2,53,-1
 310 753 l 2,54,55
 289 753 289 753 289 765 c 0,56,57
 289 774 289 774 296 785 c 2,58,-1
 362 873 l 2,59,60
 378 895 378 895 410 895 c 2,61,-1
 435 895 l 2,39,40
EndSplineSet
Validated: 1
Position2: "'cpsp' Capital Spacing lookup 3 subtable" dx=5 dy=0 dh=10 dv=0
EndChar

StartChar: Ocircumflexdotbelow
Encoding: 7896 7896 110
Width: 731
Flags: MW
HStem: -175 95<303 321> -6 76<272.5 410 272.5 434> 630 76<318 456.5> 753 142<295 427 302 427 402 495 402 497>
VStem: 53 91<218.5 387> 268 89<-160 -95> 586 92<299.5 483>
LayerCount: 2
UndoRedoHistory
Layer: 1
Undoes
EndUndoes
Redoes
EndRedoes
EndUndoRedoHistory
Fore
SplineSet
402 706 m 0,0,1
 537 706 537 706 607.5 633.5 c 128,-1,2
 678 561 678 561 678 420 c 0,3,4
 678 215 678 215 584 104.5 c 128,-1,5
 490 -6 490 -6 327 -6 c 0,6,7
 193 -6 193 -6 123 67 c 128,-1,8
 53 140 53 140 53 282 c 0,9,10
 53 348 53 348 64 407 c 128,-1,11
 75 466 75 466 100.5 521.5 c 128,-1,12
 126 577 126 577 165 617.5 c 128,-1,13
 204 658 204 658 265 682 c 128,-1,14
 326 706 326 706 402 706 c 0,0,1
394 630 m 0,15,16
 278 630 278 630 211 543 c 128,-1,17
 144 456 144 456 144 291 c 0,18,19
 144 182 144 182 192.5 126 c 128,-1,20
 241 70 241 70 335 70 c 0,21,22
 450 70 450 70 518 158.5 c 128,-1,23
 586 247 586 247 586 410 c 0,24,25
 586 519 586 519 537 574.5 c 128,-1,26
 488 630 488 630 394 630 c 0,15,16
427 895 m 2,27,28
 459 895 459 895 471 873 c 2,29,-1
 518 785 l 2,30,31
 523 777 523 777 523 768 c 1,32,33
 521 753 521 753 497 753 c 2,34,-1
 495 753 l 2,35,36
 476 753 476 753 463 766 c 1,37,-1
 408 840 l 1,38,-1
 339 766 l 1,39,40
 323 753 323 753 304 753 c 2,41,-1
 302 753 l 2,42,43
 281 753 281 753 281 765 c 0,44,45
 281 774 281 774 288 785 c 2,46,-1
 354 873 l 2,47,48
 370 895 370 895 402 895 c 2,49,-1
 427 895 l 2,27,28
273 -102 m 2,50,51
 276 -80 276 -80 319 -80 c 0,52,53
 357 -80 357 -80 357 -102 c 1,54,-1
 352 -153 l 2,55,56
 349 -175 349 -175 306 -175 c 0,57,58
 268 -175 268 -175 268 -153 c 1,59,-1
 273 -102 l 2,50,51
EndSplineSet
Validated: 1
Position2: "'cpsp' Capital Spacing lookup 3 subtable" dx=5 dy=0 dh=10 dv=0
EndChar

StartChar: Ocircumflexgrave
Encoding: 7890 7890 111
Width: 731
Flags: MW
HStem: -6 76<272.5 410 272.5 434> 630 76<318 456.5>
VStem: 53 91<218.5 387> 586 92<299.5 483>
LayerCount: 2
UndoRedoHistory
Layer: 1
Undoes
EndUndoes
Redoes
EndRedoes
EndUndoRedoHistory
Fore
SplineSet
402 706 m 0,0,1
 537 706 537 706 607.5 633.5 c 128,-1,2
 678 561 678 561 678 420 c 0,3,4
 678 215 678 215 584 104.5 c 128,-1,5
 490 -6 490 -6 327 -6 c 0,6,7
 193 -6 193 -6 123 67 c 128,-1,8
 53 140 53 140 53 282 c 0,9,10
 53 348 53 348 64 407 c 128,-1,11
 75 466 75 466 100.5 521.5 c 128,-1,12
 126 577 126 577 165 617.5 c 128,-1,13
 204 658 204 658 265 682 c 128,-1,14
 326 706 326 706 402 706 c 0,0,1
394 630 m 0,15,16
 278 630 278 630 211 543 c 128,-1,17
 144 456 144 456 144 291 c 0,18,19
 144 182 144 182 192.5 126 c 128,-1,20
 241 70 241 70 335 70 c 0,21,22
 450 70 450 70 518 158.5 c 128,-1,23
 586 247 586 247 586 410 c 0,24,25
 586 519 586 519 537 574.5 c 128,-1,26
 488 630 488 630 394 630 c 0,15,16
507 964 m 0,27,28
 545 964 545 964 555 938 c 0,29,30
 592 848 592 848 592 833 c 0,31,32
 592 824 592 824 569 824 c 0,33,34
 544 824 544 824 533 842 c 0,35,36
 471 938 471 938 470 952 c 0,37,38
 470 964 470 964 507 964 c 0,27,28
435 895 m 2,39,40
 459 895 459 895 469 873 c 2,41,-1
 511 785 l 1,42,43
 516 777 516 777 516 768 c 1,44,45
 514 753 514 753 490 753 c 2,46,-1
 488 753 l 2,47,48
 463 753 463 753 456 766 c 2,49,-1
 416 840 l 1,50,-1
 347 766 l 1,51,52
 331 753 331 753 312 753 c 2,53,-1
 310 753 l 2,54,55
 289 753 289 753 289 765 c 0,56,57
 289 774 289 774 296 785 c 2,58,-1
 362 873 l 2,59,60
 378 895 378 895 410 895 c 2,61,-1
 435 895 l 2,39,40
EndSplineSet
Validated: 1
Position2: "'cpsp' Capital Spacing lookup 3 subtable" dx=5 dy=0 dh=10 dv=0
EndChar

StartChar: Ocircumflexhookabove
Encoding: 7892 7892 112
Width: 731
Flags: MW
HStem: -6 76<272.5 410 272.5 434> 630 76<318 456.5> 931 48<537.5 552>
VStem: 53 91<218.5 387> 576 58<897 913> 586 92<299.5 483>
LayerCount: 2
UndoRedoHistory
Layer: 1
Undoes
EndUndoes
Redoes
EndRedoes
EndUndoRedoHistory
Fore
SplineSet
402 706 m 0,0,1
 537 706 537 706 607.5 633.5 c 128,-1,2
 678 561 678 561 678 420 c 0,3,4
 678 215 678 215 584 104.5 c 128,-1,5
 490 -6 490 -6 327 -6 c 0,6,7
 193 -6 193 -6 123 67 c 128,-1,8
 53 140 53 140 53 282 c 0,9,10
 53 348 53 348 64 407 c 128,-1,11
 75 466 75 466 100.5 521.5 c 128,-1,12
 126 577 126 577 165 617.5 c 128,-1,13
 204 658 204 658 265 682 c 128,-1,14
 326 706 326 706 402 706 c 0,0,1
394 630 m 0,15,16
 278 630 278 630 211 543 c 128,-1,17
 144 456 144 456 144 291 c 0,18,19
 144 182 144 182 192.5 126 c 128,-1,20
 241 70 241 70 335 70 c 0,21,22
 450 70 450 70 518 158.5 c 128,-1,23
 586 247 586 247 586 410 c 0,24,25
 586 519 586 519 537 574.5 c 128,-1,26
 488 630 488 630 394 630 c 0,15,16
576 904 m 0,27,28
 576 931 576 931 542 931 c 0,29,30
 528 931 528 931 517.5 927.5 c 128,-1,31
 507 924 507 924 501 921 c 128,-1,32
 495 918 495 918 494 918 c 0,33,34
 488 918 488 918 481 930.5 c 128,-1,35
 474 943 474 943 474 951 c 0,36,37
 474 961 474 961 501 970 c 128,-1,38
 528 979 528 979 555 979 c 0,39,40
 586 979 586 979 610 962.5 c 128,-1,41
 634 946 634 946 634 911 c 0,42,43
 634 880 634 880 592 847 c 0,44,45
 564 825 564 825 548 825 c 0,46,47
 533 825 533 825 523.5 831.5 c 128,-1,48
 514 838 514 838 514 845 c 0,49,50
 514 853 514 853 541 867 c 0,51,52
 576 885 576 885 576 904 c 0,27,28
435 895 m 2,53,54
 459 895 459 895 469 873 c 2,55,-1
 511 785 l 1,56,57
 516 777 516 777 516 768 c 1,58,59
 514 753 514 753 490 753 c 2,60,-1
 488 753 l 2,61,62
 463 753 463 753 456 766 c 2,63,-1
 416 840 l 1,64,-1
 347 766 l 1,65,66
 331 753 331 753 312 753 c 2,67,-1
 310 753 l 2,68,69
 289 753 289 753 289 765 c 0,70,71
 289 774 289 774 296 785 c 2,72,-1
 362 873 l 2,73,74
 378 895 378 895 410 895 c 2,75,-1
 435 895 l 2,53,54
EndSplineSet
Validated: 1
Position2: "'cpsp' Capital Spacing lookup 3 subtable" dx=5 dy=0 dh=10 dv=0
EndChar

StartChar: Ocircumflextilde
Encoding: 7894 7894 113
Width: 731
Flags: MW
HStem: -6 76<272.5 410 272.5 434> 630 76<318 456.5> 903 64<481 494.5> 934 64<359.5 373>
VStem: 53 91<218.5 387> 586 92<299.5 483>
LayerCount: 2
UndoRedoHistory
Layer: 1
Undoes
EndUndoes
Redoes
EndRedoes
EndUndoRedoHistory
Fore
SplineSet
402 706 m 0,0,1
 537 706 537 706 607.5 633.5 c 128,-1,2
 678 561 678 561 678 420 c 0,3,4
 678 215 678 215 584 104.5 c 128,-1,5
 490 -6 490 -6 327 -6 c 0,6,7
 193 -6 193 -6 123 67 c 128,-1,8
 53 140 53 140 53 282 c 0,9,10
 53 348 53 348 64 407 c 128,-1,11
 75 466 75 466 100.5 521.5 c 128,-1,12
 126 577 126 577 165 617.5 c 128,-1,13
 204 658 204 658 265 682 c 128,-1,14
 326 706 326 706 402 706 c 0,0,1
394 630 m 0,15,16
 278 630 278 630 211 543 c 128,-1,17
 144 456 144 456 144 291 c 0,18,19
 144 182 144 182 192.5 126 c 128,-1,20
 241 70 241 70 335 70 c 0,21,22
 450 70 450 70 518 158.5 c 128,-1,23
 586 247 586 247 586 410 c 0,24,25
 586 519 586 519 537 574.5 c 128,-1,26
 488 630 488 630 394 630 c 0,15,16
539 989 m 0,27,28
 549 996 549 996 556 996 c 0,29,30
 566 996 566 996 573 987 c 0,31,32
 582 976 582 976 582 967 c 0,33,34
 582 957 582 957 572 947 c 0,35,36
 524 903 524 903 476 903 c 0,37,38
 439 903 439 903 407 919 c 0,39,40
 377 934 377 934 367 934 c 0,41,42
 352 934 352 934 318 915 c 0,43,44
 307 909 307 909 299 909 c 0,45,46
 288 909 288 909 280 921 c 0,47,48
 273 931 273 931 273 941 c 128,-1,49
 273 951 273 951 281 957 c 0,50,51
 332 998 332 998 378 998 c 0,52,53
 408 998 408 998 447 980 c 0,54,55
 475 967 475 967 487 967 c 0,56,57
 510 967 510 967 539 989 c 0,27,28
430 871 m 2,58,59
 454 871 454 871 474 849 c 1,60,-1
 520 786 l 2,61,62
 525 778 525 778 525 769 c 1,63,64
 523 754 523 754 499 754 c 2,65,-1
 497 754 l 2,66,67
 482 754 482 754 465 767 c 1,68,-1
 411 816 l 1,69,-1
 341 767 l 1,70,71
 319 754 319 754 306 754 c 2,72,-1
 304 754 l 2,73,74
 283 754 283 754 283 766 c 0,75,76
 283 775 283 775 290 786 c 1,77,-1
 357 849 l 1,78,79
 384 871 384 871 405 871 c 2,80,-1
 430 871 l 2,58,59
EndSplineSet
Validated: 1
Position2: "'cpsp' Capital Spacing lookup 3 subtable" dx=5 dy=0 dh=10 dv=0
EndChar

StartChar: Odieresis
Encoding: 214 214 114
Width: 731
Flags: MW
HStem: -6 76<272.5 410 272.5 434> 630 76<318 456.5> 784 95<331 349 475 493>
VStem: 53 91<218.5 387> 296 89<799 864> 440 89<799 864> 586 92<299.5 483>
LayerCount: 2
UndoRedoHistory
Layer: 1
Undoes
EndUndoes
Redoes
EndRedoes
EndUndoRedoHistory
Fore
SplineSet
402 706 m 0,0,1
 537 706 537 706 607.5 633.5 c 128,-1,2
 678 561 678 561 678 420 c 0,3,4
 678 215 678 215 584 104.5 c 128,-1,5
 490 -6 490 -6 327 -6 c 0,6,7
 193 -6 193 -6 123 67 c 128,-1,8
 53 140 53 140 53 282 c 0,9,10
 53 348 53 348 64 407 c 128,-1,11
 75 466 75 466 100.5 521.5 c 128,-1,12
 126 577 126 577 165 617.5 c 128,-1,13
 204 658 204 658 265 682 c 128,-1,14
 326 706 326 706 402 706 c 0,0,1
394 630 m 0,15,16
 278 630 278 630 211 543 c 128,-1,17
 144 456 144 456 144 291 c 0,18,19
 144 182 144 182 192.5 126 c 128,-1,20
 241 70 241 70 335 70 c 0,21,22
 450 70 450 70 518 158.5 c 128,-1,23
 586 247 586 247 586 410 c 0,24,25
 586 519 586 519 537 574.5 c 128,-1,26
 488 630 488 630 394 630 c 0,15,16
301 857 m 2,27,28
 304 879 304 879 347 879 c 0,29,30
 385 879 385 879 385 857 c 1,31,-1
 380 806 l 2,32,33
 377 784 377 784 334 784 c 0,34,35
 296 784 296 784 296 806 c 1,36,-1
 301 857 l 2,27,28
445 857 m 2,37,38
 447 879 447 879 491 879 c 0,39,40
 529 879 529 879 529 857 c 1,41,-1
 524 806 l 2,42,43
 521 784 521 784 478 784 c 0,44,45
 440 784 440 784 440 806 c 1,46,-1
 445 857 l 2,37,38
EndSplineSet
Validated: 1
Position2: "'cpsp' Capital Spacing lookup 3 subtable" dx=5 dy=0 dh=10 dv=0
EndChar

StartChar: Odotbelow
Encoding: 7884 7884 115
Width: 731
Flags: MW
HStem: -175 95<303 321> -6 76<272.5 410 272.5 434> 630 76<318 456.5>
VStem: 53 91<218.5 387> 268 89<-160 -95> 586 92<299.5 483>
LayerCount: 2
UndoRedoHistory
Layer: 1
Undoes
EndUndoes
Redoes
EndRedoes
EndUndoRedoHistory
Fore
SplineSet
402 706 m 0,0,1
 537 706 537 706 607.5 633.5 c 128,-1,2
 678 561 678 561 678 420 c 0,3,4
 678 215 678 215 584 104.5 c 128,-1,5
 490 -6 490 -6 327 -6 c 0,6,7
 193 -6 193 -6 123 67 c 128,-1,8
 53 140 53 140 53 282 c 0,9,10
 53 348 53 348 64 407 c 128,-1,11
 75 466 75 466 100.5 521.5 c 128,-1,12
 126 577 126 577 165 617.5 c 128,-1,13
 204 658 204 658 265 682 c 128,-1,14
 326 706 326 706 402 706 c 0,0,1
394 630 m 0,15,16
 278 630 278 630 211 543 c 128,-1,17
 144 456 144 456 144 291 c 0,18,19
 144 182 144 182 192.5 126 c 128,-1,20
 241 70 241 70 335 70 c 0,21,22
 450 70 450 70 518 158.5 c 128,-1,23
 586 247 586 247 586 410 c 0,24,25
 586 519 586 519 537 574.5 c 128,-1,26
 488 630 488 630 394 630 c 0,15,16
273 -102 m 2,27,28
 276 -80 276 -80 319 -80 c 0,29,30
 357 -80 357 -80 357 -102 c 1,31,-1
 352 -153 l 2,32,33
 349 -175 349 -175 306 -175 c 0,34,35
 268 -175 268 -175 268 -153 c 1,36,-1
 273 -102 l 2,27,28
EndSplineSet
Validated: 1
Position2: "'cpsp' Capital Spacing lookup 3 subtable" dx=5 dy=0 dh=10 dv=0
EndChar

StartChar: Ograve
Encoding: 210 210 116
Width: 731
Flags: MW
HStem: -6 76<272.5 410 272.5 434> 630 76<318 456.5>
VStem: 53 91<218.5 387> 586 92<299.5 483>
LayerCount: 2
UndoRedoHistory
Layer: 1
Undoes
EndUndoes
Redoes
EndRedoes
EndUndoRedoHistory
Fore
SplineSet
331 909 m 128,-1,1
 378 909 378 909 393 883 c 0,2,3
 451 784 451 784 451 771 c 0,4,5
 451 762 451 762 428 762 c 0,6,7
 392 762 392 762 377 780 c 0,8,9
 289 880 289 880 285 889 c 0,10,11
 283 893 283 893 283 897 c 0,12,0
 284 909 284 909 331 909 c 128,-1,1
402 706 m 0,13,14
 537 706 537 706 607.5 633.5 c 128,-1,15
 678 561 678 561 678 420 c 0,16,17
 678 215 678 215 584 104.5 c 128,-1,18
 490 -6 490 -6 327 -6 c 0,19,20
 193 -6 193 -6 123 67 c 128,-1,21
 53 140 53 140 53 282 c 0,22,23
 53 348 53 348 64 407 c 128,-1,24
 75 466 75 466 100.5 521.5 c 128,-1,25
 126 577 126 577 165 617.5 c 128,-1,26
 204 658 204 658 265 682 c 128,-1,27
 326 706 326 706 402 706 c 0,13,14
394 630 m 0,28,29
 278 630 278 630 211 543 c 128,-1,30
 144 456 144 456 144 291 c 0,31,32
 144 182 144 182 192.5 126 c 128,-1,33
 241 70 241 70 335 70 c 0,34,35
 450 70 450 70 518 158.5 c 128,-1,36
 586 247 586 247 586 410 c 0,37,38
 586 519 586 519 537 574.5 c 128,-1,39
 488 630 488 630 394 630 c 0,28,29
EndSplineSet
Validated: 1
Position2: "'cpsp' Capital Spacing lookup 3 subtable" dx=5 dy=0 dh=10 dv=0
EndChar

StartChar: Ohookabove
Encoding: 7886 7886 117
Width: 731
Flags: MW
HStem: -6 76<272.5 410 272.5 434> 630 76<318 456.5> 876 51<407.5 422>
VStem: 53 91<218.5 387> 446 66<825 859> 586 92<299.5 483>
LayerCount: 2
UndoRedoHistory
Layer: 1
Undoes
EndUndoes
Redoes
EndRedoes
EndUndoRedoHistory
Fore
SplineSet
446 851 m 0,0,1
 446 876 446 876 412 876 c 0,2,3
 398 876 398 876 387.5 873 c 128,-1,4
 377 870 377 870 371 866.5 c 128,-1,5
 365 863 365 863 364 863 c 0,6,7
 358 863 358 863 351 875.5 c 128,-1,8
 344 888 344 888 344 896 c 0,9,10
 344 906 344 906 371.5 916.5 c 128,-1,11
 399 927 399 927 425 927 c 0,12,13
 457 927 457 927 484.5 910 c 128,-1,14
 512 893 512 893 512 857 c 0,15,16
 512 833 512 833 498 809.5 c 128,-1,17
 484 786 484 786 466 772 c 128,-1,18
 448 758 448 758 433 749 c 128,-1,19
 418 740 418 740 413 740 c 0,20,21
 397 740 397 740 385.5 745 c 128,-1,22
 374 750 374 750 374 757 c 0,23,24
 374 768 374 768 392 780.5 c 128,-1,25
 410 793 410 793 428 811 c 128,-1,26
 446 829 446 829 446 851 c 0,0,1
402 706 m 0,27,28
 537 706 537 706 607.5 633.5 c 128,-1,29
 678 561 678 561 678 420 c 0,30,31
 678 215 678 215 584 104.5 c 128,-1,32
 490 -6 490 -6 327 -6 c 0,33,34
 193 -6 193 -6 123 67 c 128,-1,35
 53 140 53 140 53 282 c 0,36,37
 53 348 53 348 64 407 c 128,-1,38
 75 466 75 466 100.5 521.5 c 128,-1,39
 126 577 126 577 165 617.5 c 128,-1,40
 204 658 204 658 265 682 c 128,-1,41
 326 706 326 706 402 706 c 0,27,28
394 630 m 0,42,43
 278 630 278 630 211 543 c 128,-1,44
 144 456 144 456 144 291 c 0,45,46
 144 182 144 182 192.5 126 c 128,-1,47
 241 70 241 70 335 70 c 0,48,49
 450 70 450 70 518 158.5 c 128,-1,50
 586 247 586 247 586 410 c 0,51,52
 586 519 586 519 537 574.5 c 128,-1,53
 488 630 488 630 394 630 c 0,42,43
EndSplineSet
Validated: 1
Position2: "'cpsp' Capital Spacing lookup 3 subtable" dx=5 dy=0 dh=10 dv=0
EndChar

StartChar: Ohorn
Encoding: 416 416 118
Width: 731
Flags: MW
HStem: -6 76<272.5 410 272.5 434> 630 52 630 76<318 428 270.5 456.5>
VStem: 53 91<218.5 387> 586 92<299.5 475 281 483> 597 63<726 733.5>
LayerCount: 2
UndoRedoHistory
Layer: 1
Undoes
EndUndoes
Redoes
EndRedoes
EndUndoRedoHistory
Fore
SplineSet
613 809 m 2,0,1
 618 813 618 813 625 813 c 0,2,3
 641 813 641 813 650.5 791.5 c 128,-1,4
 660 770 660 770 660 746 c 0,5,6
 660 715 660 715 640 690 c 128,-1,7
 620 665 620 665 584 655 c 1,8,9
 678 584 678 584 678 420 c 0,10,11
 678 215 678 215 584 104.5 c 128,-1,12
 490 -6 490 -6 327 -6 c 0,13,14
 193 -6 193 -6 123 67 c 128,-1,15
 53 140 53 140 53 282 c 0,16,17
 53 348 53 348 64 407 c 128,-1,18
 75 466 75 466 100.5 521.5 c 128,-1,19
 126 577 126 577 165 617.5 c 128,-1,20
 204 658 204 658 265 682 c 128,-1,21
 326 706 326 706 402 706 c 0,22,23
 480 706 480 706 536 682 c 1,24,-1
 538 682 l 2,25,26
 597 682 597 682 597 722 c 0,27,28
 597 735 597 735 586.5 753.5 c 128,-1,29
 576 772 576 772 576 777 c 0,30,31
 576 787 576 787 587 793 c 2,32,-1
 613 809 l 2,0,1
335 70 m 0,33,34
 450 70 450 70 518 158.5 c 128,-1,35
 586 247 586 247 586 410 c 0,36,37
 586 519 586 519 537 574.5 c 128,-1,38
 488 630 488 630 394 630 c 0,39,40
 278 630 278 630 211 543 c 128,-1,41
 144 456 144 456 144 291 c 0,42,43
 144 182 144 182 192.5 126 c 128,-1,44
 241 70 241 70 335 70 c 0,33,34
EndSplineSet
Validated: 1
Position2: "'cpsp' Capital Spacing lookup 3 subtable" dx=5 dy=0 dh=10 dv=0
EndChar

StartChar: Ohornacute
Encoding: 7898 7898 119
Width: 731
Flags: MW
HStem: -6 76<272.5 410 272.5 434> 630 52 630 76<318 428 270.5 456.5>
VStem: 53 91<218.5 387> 586 92<299.5 475 281 483> 597 63<726 733.5>
LayerCount: 2
UndoRedoHistory
Layer: 1
Undoes
EndUndoes
Redoes
EndRedoes
EndUndoRedoHistory
Fore
SplineSet
386 762 m 0,0,1
 364 762 364 762 364 771 c 0,2,3
 364 783 364 783 433 883 c 0,4,5
 451 909 451 909 498 909 c 128,-1,6
 545 909 545 909 545 897 c 0,7,8
 545 888 545 888 480 821 c 0,9,10
 455 796 455 796 439 780 c 0,11,12
 421 762 421 762 386 762 c 0,0,1
613 809 m 2,13,14
 618 813 618 813 625 813 c 0,15,16
 641 813 641 813 650.5 791.5 c 128,-1,17
 660 770 660 770 660 746 c 0,18,19
 660 715 660 715 640 690 c 128,-1,20
 620 665 620 665 584 655 c 1,21,22
 678 584 678 584 678 420 c 0,23,24
 678 215 678 215 584 104.5 c 128,-1,25
 490 -6 490 -6 327 -6 c 0,26,27
 193 -6 193 -6 123 67 c 128,-1,28
 53 140 53 140 53 282 c 0,29,30
 53 348 53 348 64 407 c 128,-1,31
 75 466 75 466 100.5 521.5 c 128,-1,32
 126 577 126 577 165 617.5 c 128,-1,33
 204 658 204 658 265 682 c 128,-1,34
 326 706 326 706 402 706 c 0,35,36
 480 706 480 706 536 682 c 1,37,-1
 538 682 l 2,38,39
 597 682 597 682 597 722 c 0,40,41
 597 735 597 735 586.5 753.5 c 128,-1,42
 576 772 576 772 576 777 c 0,43,44
 576 787 576 787 587 793 c 2,45,-1
 613 809 l 2,13,14
335 70 m 0,46,47
 450 70 450 70 518 158.5 c 128,-1,48
 586 247 586 247 586 410 c 0,49,50
 586 519 586 519 537 574.5 c 128,-1,51
 488 630 488 630 394 630 c 0,52,53
 278 630 278 630 211 543 c 128,-1,54
 144 456 144 456 144 291 c 0,55,56
 144 182 144 182 192.5 126 c 128,-1,57
 241 70 241 70 335 70 c 0,46,47
EndSplineSet
Validated: 1
Position2: "'cpsp' Capital Spacing lookup 3 subtable" dx=5 dy=0 dh=10 dv=0
EndChar

StartChar: Ohorndotbelow
Encoding: 7906 7906 120
Width: 731
Flags: MW
HStem: -175 95<303 321> -6 76<272.5 410 272.5 434> 630 52 630 76<318 428 270.5 456.5>
VStem: 53 91<218.5 387> 268 89<-160 -95> 586 92<299.5 475 281 483> 597 63<726 733.5>
LayerCount: 2
UndoRedoHistory
Layer: 1
Undoes
EndUndoes
Redoes
EndRedoes
EndUndoRedoHistory
Fore
SplineSet
613 809 m 2,0,1
 618 813 618 813 625 813 c 0,2,3
 641 813 641 813 650.5 791.5 c 128,-1,4
 660 770 660 770 660 746 c 0,5,6
 660 715 660 715 640 690 c 128,-1,7
 620 665 620 665 584 655 c 1,8,9
 678 584 678 584 678 420 c 0,10,11
 678 215 678 215 584 104.5 c 128,-1,12
 490 -6 490 -6 327 -6 c 0,13,14
 193 -6 193 -6 123 67 c 128,-1,15
 53 140 53 140 53 282 c 0,16,17
 53 348 53 348 64 407 c 128,-1,18
 75 466 75 466 100.5 521.5 c 128,-1,19
 126 577 126 577 165 617.5 c 128,-1,20
 204 658 204 658 265 682 c 128,-1,21
 326 706 326 706 402 706 c 0,22,23
 480 706 480 706 536 682 c 1,24,-1
 538 682 l 2,25,26
 597 682 597 682 597 722 c 0,27,28
 597 735 597 735 586.5 753.5 c 128,-1,29
 576 772 576 772 576 777 c 0,30,31
 576 787 576 787 587 793 c 2,32,-1
 613 809 l 2,0,1
335 70 m 0,33,34
 450 70 450 70 518 158.5 c 128,-1,35
 586 247 586 247 586 410 c 0,36,37
 586 519 586 519 537 574.5 c 128,-1,38
 488 630 488 630 394 630 c 0,39,40
 278 630 278 630 211 543 c 128,-1,41
 144 456 144 456 144 291 c 0,42,43
 144 182 144 182 192.5 126 c 128,-1,44
 241 70 241 70 335 70 c 0,33,34
273 -102 m 2,45,46
 276 -80 276 -80 319 -80 c 0,47,48
 357 -80 357 -80 357 -102 c 1,49,-1
 352 -153 l 2,50,51
 349 -175 349 -175 306 -175 c 0,52,53
 268 -175 268 -175 268 -153 c 1,54,-1
 273 -102 l 2,45,46
EndSplineSet
Validated: 1
Position2: "'cpsp' Capital Spacing lookup 3 subtable" dx=5 dy=0 dh=10 dv=0
EndChar

StartChar: Ohorngrave
Encoding: 7900 7900 121
Width: 731
Flags: MW
HStem: -6 76<272.5 410 272.5 434> 630 52 630 76<318 428 270.5 456.5>
VStem: 53 91<218.5 387> 586 92<299.5 475 281 483> 597 63<726 733.5>
LayerCount: 2
UndoRedoHistory
Layer: 1
Undoes
EndUndoes
Redoes
EndRedoes
EndUndoRedoHistory
Fore
SplineSet
428 762 m 0,0,1
 392 762 392 762 377 780 c 0,2,3
 289 880 289 880 285 889 c 0,4,5
 283 893 283 893 283 897 c 0,6,7
 284 909 284 909 331 909 c 128,-1,8
 378 909 378 909 393 883 c 0,9,10
 451 784 451 784 451 771 c 0,11,12
 451 762 451 762 428 762 c 0,0,1
613 809 m 2,13,14
 618 813 618 813 625 813 c 0,15,16
 641 813 641 813 650.5 791.5 c 128,-1,17
 660 770 660 770 660 746 c 0,18,19
 660 715 660 715 640 690 c 128,-1,20
 620 665 620 665 584 655 c 1,21,22
 678 584 678 584 678 420 c 0,23,24
 678 215 678 215 584 104.5 c 128,-1,25
 490 -6 490 -6 327 -6 c 0,26,27
 193 -6 193 -6 123 67 c 128,-1,28
 53 140 53 140 53 282 c 0,29,30
 53 348 53 348 64 407 c 128,-1,31
 75 466 75 466 100.5 521.5 c 128,-1,32
 126 577 126 577 165 617.5 c 128,-1,33
 204 658 204 658 265 682 c 128,-1,34
 326 706 326 706 402 706 c 0,35,36
 480 706 480 706 536 682 c 1,37,-1
 538 682 l 2,38,39
 597 682 597 682 597 722 c 0,40,41
 597 735 597 735 586.5 753.5 c 128,-1,42
 576 772 576 772 576 777 c 0,43,44
 576 787 576 787 587 793 c 2,45,-1
 613 809 l 2,13,14
335 70 m 0,46,47
 450 70 450 70 518 158.5 c 128,-1,48
 586 247 586 247 586 410 c 0,49,50
 586 519 586 519 537 574.5 c 128,-1,51
 488 630 488 630 394 630 c 0,52,53
 278 630 278 630 211 543 c 128,-1,54
 144 456 144 456 144 291 c 0,55,56
 144 182 144 182 192.5 126 c 128,-1,57
 241 70 241 70 335 70 c 0,46,47
EndSplineSet
Validated: 1
Position2: "'cpsp' Capital Spacing lookup 3 subtable" dx=5 dy=0 dh=10 dv=0
EndChar

StartChar: Ohornhookabove
Encoding: 7902 7902 122
Width: 731
Flags: MW
HStem: -6 76<272.5 410 272.5 434> 630 52 630 76<318 428 270.5 456.5> 876 51<407.5 422>
VStem: 53 91<218.5 387> 446 66<825 859> 586 92<299.5 475 281 483> 597 63<726 733.5>
LayerCount: 2
UndoRedoHistory
Layer: 1
Undoes
EndUndoes
Redoes
EndRedoes
EndUndoRedoHistory
Fore
SplineSet
364 863 m 0,0,1
 358 863 358 863 351 875.5 c 128,-1,2
 344 888 344 888 344 896 c 0,3,4
 344 906 344 906 371.5 916.5 c 128,-1,5
 399 927 399 927 425 927 c 0,6,7
 457 927 457 927 484.5 910 c 128,-1,8
 512 893 512 893 512 857 c 0,9,10
 512 833 512 833 498 809.5 c 128,-1,11
 484 786 484 786 466 772 c 128,-1,12
 448 758 448 758 433 749 c 128,-1,13
 418 740 418 740 413 740 c 0,14,15
 397 740 397 740 385.5 745 c 128,-1,16
 374 750 374 750 374 757 c 0,17,18
 374 768 374 768 392 780.5 c 128,-1,19
 410 793 410 793 428 811 c 128,-1,20
 446 829 446 829 446 851 c 0,21,22
 446 876 446 876 412 876 c 0,23,24
 398 876 398 876 387.5 873 c 128,-1,25
 377 870 377 870 371 866.5 c 128,-1,26
 365 863 365 863 364 863 c 0,0,1
613 809 m 2,27,28
 618 813 618 813 625 813 c 0,29,30
 641 813 641 813 650.5 791.5 c 128,-1,31
 660 770 660 770 660 746 c 0,32,33
 660 715 660 715 640 690 c 128,-1,34
 620 665 620 665 584 655 c 1,35,36
 678 584 678 584 678 420 c 0,37,38
 678 215 678 215 584 104.5 c 128,-1,39
 490 -6 490 -6 327 -6 c 0,40,41
 193 -6 193 -6 123 67 c 128,-1,42
 53 140 53 140 53 282 c 0,43,44
 53 348 53 348 64 407 c 128,-1,45
 75 466 75 466 100.5 521.5 c 128,-1,46
 126 577 126 577 165 617.5 c 128,-1,47
 204 658 204 658 265 682 c 128,-1,48
 326 706 326 706 402 706 c 0,49,50
 480 706 480 706 536 682 c 1,51,-1
 538 682 l 2,52,53
 597 682 597 682 597 722 c 0,54,55
 597 735 597 735 586.5 753.5 c 128,-1,56
 576 772 576 772 576 777 c 0,57,58
 576 787 576 787 587 793 c 2,59,-1
 613 809 l 2,27,28
335 70 m 0,60,61
 450 70 450 70 518 158.5 c 128,-1,62
 586 247 586 247 586 410 c 0,63,64
 586 519 586 519 537 574.5 c 128,-1,65
 488 630 488 630 394 630 c 0,66,67
 278 630 278 630 211 543 c 128,-1,68
 144 456 144 456 144 291 c 0,69,70
 144 182 144 182 192.5 126 c 128,-1,71
 241 70 241 70 335 70 c 0,60,61
EndSplineSet
Validated: 1
Position2: "'cpsp' Capital Spacing lookup 3 subtable" dx=5 dy=0 dh=10 dv=0
EndChar

StartChar: Ohorntilde
Encoding: 7904 7904 123
Width: 731
Flags: MW
HStem: -6 76<272.5 410 272.5 434> 630 52 630 76<318 428 270.5 456.5> 762 64<456 468.5> 793 64<335.5 349>
VStem: 53 91<218.5 387> 586 92<299.5 475 281 483> 597 63<726 733.5>
LayerCount: 2
UndoRedoHistory
Layer: 1
Undoes
EndUndoes
Redoes
EndRedoes
EndUndoRedoHistory
Fore
SplineSet
295 774 m 0,0,1
 284 768 284 768 276 768 c 0,2,3
 264 768 264 768 257 780 c 1,4,5
 250 790 250 790 250 800 c 128,-1,6
 250 810 250 810 258 816 c 0,7,8
 309 857 309 857 354 857 c 0,9,10
 381 857 381 857 423 839 c 1,11,12
 449 826 449 826 462 826 c 0,13,14
 484 826 484 826 513 848 c 1,15,16
 524 855 524 855 530 855 c 0,17,18
 540 855 540 855 547 846 c 0,19,20
 556 836 556 836 556 826 c 128,-1,21
 556 816 556 816 546 806 c 0,22,23
 498 762 498 762 450 762 c 0,24,25
 413 762 413 762 383 778 c 0,26,27
 353 793 353 793 343 793 c 0,28,29
 327 793 327 793 295 774 c 0,0,1
613 809 m 2,30,31
 618 813 618 813 625 813 c 0,32,33
 641 813 641 813 650.5 791.5 c 128,-1,34
 660 770 660 770 660 746 c 0,35,36
 660 715 660 715 640 690 c 128,-1,37
 620 665 620 665 584 655 c 1,38,39
 678 584 678 584 678 420 c 0,40,41
 678 215 678 215 584 104.5 c 128,-1,42
 490 -6 490 -6 327 -6 c 0,43,44
 193 -6 193 -6 123 67 c 128,-1,45
 53 140 53 140 53 282 c 0,46,47
 53 348 53 348 64 407 c 128,-1,48
 75 466 75 466 100.5 521.5 c 128,-1,49
 126 577 126 577 165 617.5 c 128,-1,50
 204 658 204 658 265 682 c 128,-1,51
 326 706 326 706 402 706 c 0,52,53
 480 706 480 706 536 682 c 1,54,-1
 538 682 l 2,55,56
 597 682 597 682 597 722 c 0,57,58
 597 735 597 735 586.5 753.5 c 128,-1,59
 576 772 576 772 576 777 c 0,60,61
 576 787 576 787 587 793 c 2,62,-1
 613 809 l 2,30,31
335 70 m 0,63,64
 450 70 450 70 518 158.5 c 128,-1,65
 586 247 586 247 586 410 c 0,66,67
 586 519 586 519 537 574.5 c 128,-1,68
 488 630 488 630 394 630 c 0,69,70
 278 630 278 630 211 543 c 128,-1,71
 144 456 144 456 144 291 c 0,72,73
 144 182 144 182 192.5 126 c 128,-1,74
 241 70 241 70 335 70 c 0,63,64
EndSplineSet
Validated: 1
Position2: "'cpsp' Capital Spacing lookup 3 subtable" dx=5 dy=0 dh=10 dv=0
EndChar

StartChar: Ohungarumlaut
Encoding: 336 336 124
Width: 731
Flags: MW
HStem: -6 76<272.5 410 272.5 434> 630 76<318 456.5>
VStem: 53 91<218.5 387> 586 92<299.5 483>
LayerCount: 2
UndoRedoHistory
Layer: 1
Undoes
EndUndoes
Redoes
EndRedoes
EndUndoRedoHistory
Fore
SplineSet
402 706 m 0,0,1
 537 706 537 706 607.5 633.5 c 128,-1,2
 678 561 678 561 678 420 c 0,3,4
 678 215 678 215 584 104.5 c 128,-1,5
 490 -6 490 -6 327 -6 c 0,6,7
 193 -6 193 -6 123 67 c 128,-1,8
 53 140 53 140 53 282 c 0,9,10
 53 348 53 348 64 407 c 128,-1,11
 75 466 75 466 100.5 521.5 c 128,-1,12
 126 577 126 577 165 617.5 c 128,-1,13
 204 658 204 658 265 682 c 128,-1,14
 326 706 326 706 402 706 c 0,0,1
394 630 m 0,15,16
 278 630 278 630 211 543 c 128,-1,17
 144 456 144 456 144 291 c 0,18,19
 144 182 144 182 192.5 126 c 128,-1,20
 241 70 241 70 335 70 c 0,21,22
 450 70 450 70 518 158.5 c 128,-1,23
 586 247 586 247 586 410 c 0,24,25
 586 519 586 519 537 574.5 c 128,-1,26
 488 630 488 630 394 630 c 0,15,16
436 909 m 128,-1,28
 483 909 483 909 483 897 c 0,29,30
 483 888 483 888 418 821 c 0,31,32
 393 796 393 796 377 780 c 0,33,34
 359 762 359 762 324 762 c 0,35,36
 302 762 302 762 302 771 c 0,37,38
 302 783 302 783 371 883 c 0,39,27
 389 909 389 909 436 909 c 128,-1,28
582 909 m 128,-1,41
 629 909 629 909 629 897 c 0,42,43
 629 888 629 888 564 821 c 0,44,45
 539 796 539 796 523 780 c 0,46,47
 505 762 505 762 470 762 c 0,48,49
 448 762 448 762 448 771 c 0,50,51
 448 783 448 783 517 883 c 0,52,40
 535 909 535 909 582 909 c 128,-1,41
EndSplineSet
Validated: 1
Position2: "'cpsp' Capital Spacing lookup 3 subtable" dx=5 dy=0 dh=10 dv=0
EndChar

StartChar: Omacron
Encoding: 332 332 125
Width: 731
Flags: MW
HStem: -6 76<272.5 410 272.5 434> 630 76<318 456.5> 789 71<278 519 293 511>
VStem: 53 91<218.5 387> 586 92<299.5 483>
LayerCount: 2
UndoRedoHistory
Layer: 1
Undoes
EndUndoes
Redoes
EndRedoes
EndUndoRedoHistory
Fore
SplineSet
519 860 m 2,0,1
 536 860 536 860 536 834 c 0,2,3
 536 789 536 789 511 789 c 2,4,-1
 285 789 l 2,5,6
 268 789 268 789 268 816 c 0,7,8
 268 860 268 860 293 860 c 2,9,-1
 519 860 l 2,0,1
402 706 m 0,10,11
 537 706 537 706 607.5 633.5 c 128,-1,12
 678 561 678 561 678 420 c 0,13,14
 678 215 678 215 584 104.5 c 128,-1,15
 490 -6 490 -6 327 -6 c 0,16,17
 193 -6 193 -6 123 67 c 128,-1,18
 53 140 53 140 53 282 c 0,19,20
 53 348 53 348 64 407 c 128,-1,21
 75 466 75 466 100.5 521.5 c 128,-1,22
 126 577 126 577 165 617.5 c 128,-1,23
 204 658 204 658 265 682 c 128,-1,24
 326 706 326 706 402 706 c 0,10,11
394 630 m 0,25,26
 278 630 278 630 211 543 c 128,-1,27
 144 456 144 456 144 291 c 0,28,29
 144 182 144 182 192.5 126 c 128,-1,30
 241 70 241 70 335 70 c 0,31,32
 450 70 450 70 518 158.5 c 128,-1,33
 586 247 586 247 586 410 c 0,34,35
 586 519 586 519 537 574.5 c 128,-1,36
 488 630 488 630 394 630 c 0,25,26
EndSplineSet
Validated: 1
Position2: "'cpsp' Capital Spacing lookup 3 subtable" dx=5 dy=0 dh=10 dv=0
EndChar

StartChar: Oogonek
Encoding: 490 490 126
Width: 731
Flags: MW
HStem: -183 70<431 444.5> -6 76<272.5 327 327 345> 630 76<318 456.5>
VStem: 53 91<218.5 387> 315 69<-90 -85.5> 586 92<299.5 483>
LayerCount: 2
UndoRedoHistory
Layer: 1
Undoes
EndUndoes
Redoes
EndRedoes
EndUndoRedoHistory
Fore
SplineSet
678 420 m 0,0,1
 678 240 678 240 605.5 132.5 c 128,-1,2
 533 25 533 25 403 1 c 1,3,4
 403 -5 403 -5 393.5 -30 c 128,-1,5
 384 -55 384 -55 384 -70 c 0,6,7
 384 -113 384 -113 442 -113 c 0,8,9
 460 -113 460 -113 482 -104 c 128,-1,10
 504 -95 504 -95 506 -95 c 0,11,12
 512 -95 512 -95 512 -108 c 0,13,14
 512 -183 512 -183 423 -183 c 0,15,16
 361 -183 361 -183 338 -156 c 128,-1,17
 315 -129 315 -129 315 -94 c 0,18,19
 315 -40 315 -40 345 -6 c 1,20,-1
 327 -6 l 2,21,22
 193 -6 193 -6 123 67 c 128,-1,23
 53 140 53 140 53 282 c 0,24,25
 53 348 53 348 64 407 c 128,-1,26
 75 466 75 466 100.5 521.5 c 128,-1,27
 126 577 126 577 165 617.5 c 128,-1,28
 204 658 204 658 265 682 c 128,-1,29
 326 706 326 706 402 706 c 0,30,31
 537 706 537 706 607.5 633.5 c 128,-1,32
 678 561 678 561 678 420 c 0,0,1
144 291 m 0,33,34
 144 182 144 182 192.5 126 c 128,-1,35
 241 70 241 70 335 70 c 0,36,37
 450 70 450 70 518 158.5 c 128,-1,38
 586 247 586 247 586 410 c 0,39,40
 586 519 586 519 537 574.5 c 128,-1,41
 488 630 488 630 394 630 c 0,42,43
 278 630 278 630 211 543 c 128,-1,44
 144 456 144 456 144 291 c 0,33,34
EndSplineSet
Validated: 1
Position2: "'cpsp' Capital Spacing lookup 3 subtable" dx=5 dy=0 dh=10 dv=0
EndChar

StartChar: Oslash
Encoding: 216 216 127
Width: 731
Flags: MW
HStem: -6 76<297.5 410 297.5 434> 630 76<318 427> 682 20G<680.5 685>
VStem: 53 91<271 387> 586 92<299.5 435>
LayerCount: 2
UndoRedoHistory
Layer: 1
Undoes
EndUndoes
Redoes
EndRedoes
EndUndoRedoHistory
Fore
SplineSet
88 116 m 1,0,1
 53 183 53 183 53 282 c 0,2,3
 53 348 53 348 64 407 c 128,-1,4
 75 466 75 466 100.5 521.5 c 128,-1,5
 126 577 126 577 165 617.5 c 128,-1,6
 204 658 204 658 265 682 c 128,-1,7
 326 706 326 706 402 706 c 0,8,9
 538 706 538 706 607 634 c 1,10,-1
 669 695 l 2,11,12
 676 702 676 702 683 702 c 128,-1,13
 690 702 690 702 696 696 c 2,14,-1
 698 694 l 2,15,16
 703 689 703 689 703 683 c 0,17,18
 703 676 703 676 696 669 c 2,19,-1
 631 604 l 1,20,21
 678 534 678 534 678 420 c 0,22,23
 678 215 678 215 584 104.5 c 128,-1,24
 490 -6 490 -6 327 -6 c 0,25,26
 177 -6 177 -6 108 84 c 1,27,-1
 33 9 l 2,28,29
 25 1 25 1 19 1 c 128,-1,30
 13 1 13 1 7 7 c 2,31,-1
 5 9 l 2,32,33
 -1 15 -1 15 -1 21 c 128,-1,34
 -1 27 -1 27 7 35 c 2,35,-1
 88 116 l 1,0,1
542 568 m 1,36,37
 492 630 492 630 394 630 c 0,38,39
 278 630 278 630 211 543 c 128,-1,40
 144 456 144 456 144 291 c 0,41,42
 144 231 144 231 159 187 c 1,43,-1
 542 568 l 1,36,37
175 150 m 1,44,45
 222 70 222 70 335 70 c 0,46,47
 450 70 450 70 518 158.5 c 128,-1,48
 586 247 586 247 586 410 c 0,49,50
 586 486 586 486 562 536 c 1,51,-1
 175 150 l 1,44,45
EndSplineSet
Validated: 1
Position2: "'cpsp' Capital Spacing lookup 3 subtable" dx=5 dy=0 dh=10 dv=0
EndChar

StartChar: Oslashacute
Encoding: 510 510 128
Width: 731
Flags: MW
HStem: -6 76<297.5 410 297.5 434> 630 76<318 427> 682 20G<680.5 685>
VStem: 53 91<271 387> 586 92<299.5 435>
LayerCount: 2
UndoRedoHistory
Layer: 1
Undoes
EndUndoes
Redoes
EndRedoes
EndUndoRedoHistory
Fore
SplineSet
88 116 m 1,0,1
 53 183 53 183 53 282 c 0,2,3
 53 348 53 348 64 407 c 128,-1,4
 75 466 75 466 100.5 521.5 c 128,-1,5
 126 577 126 577 165 617.5 c 128,-1,6
 204 658 204 658 265 682 c 128,-1,7
 326 706 326 706 402 706 c 0,8,9
 538 706 538 706 607 634 c 1,10,-1
 669 695 l 2,11,12
 676 702 676 702 683 702 c 128,-1,13
 690 702 690 702 696 696 c 2,14,-1
 698 694 l 2,15,16
 703 689 703 689 703 683 c 0,17,18
 703 676 703 676 696 669 c 2,19,-1
 631 604 l 1,20,21
 678 534 678 534 678 420 c 0,22,23
 678 215 678 215 584 104.5 c 128,-1,24
 490 -6 490 -6 327 -6 c 0,25,26
 177 -6 177 -6 108 84 c 1,27,-1
 33 9 l 2,28,29
 25 1 25 1 19 1 c 128,-1,30
 13 1 13 1 7 7 c 2,31,-1
 5 9 l 2,32,33
 -1 15 -1 15 -1 21 c 128,-1,34
 -1 27 -1 27 7 35 c 2,35,-1
 88 116 l 1,0,1
542 568 m 1,36,37
 492 630 492 630 394 630 c 0,38,39
 278 630 278 630 211 543 c 128,-1,40
 144 456 144 456 144 291 c 0,41,42
 144 231 144 231 159 187 c 1,43,-1
 542 568 l 1,36,37
175 150 m 1,44,45
 222 70 222 70 335 70 c 0,46,47
 450 70 450 70 518 158.5 c 128,-1,48
 586 247 586 247 586 410 c 0,49,50
 586 486 586 486 562 536 c 1,51,-1
 175 150 l 1,44,45
462 909 m 128,-1,53
 509 909 509 909 509 897 c 0,54,55
 509 888 509 888 444 821 c 0,56,57
 419 796 419 796 403 780 c 0,58,59
 385 762 385 762 350 762 c 0,60,61
 328 762 328 762 328 771 c 0,62,63
 328 783 328 783 397 883 c 0,64,52
 415 909 415 909 462 909 c 128,-1,53
EndSplineSet
Validated: 1
Position2: "'cpsp' Capital Spacing lookup 3 subtable" dx=5 dy=0 dh=10 dv=0
EndChar

StartChar: Otilde
Encoding: 213 213 129
Width: 731
Flags: MW
HStem: -6 76<272.5 410 272.5 434> 630 76<318 456.5> 762 64<480 494.5> 793 64<346.5 361.5>
VStem: 53 91<218.5 387> 586 92<299.5 483>
LayerCount: 2
UndoRedoHistory
Layer: 1
Undoes
EndUndoes
Redoes
EndRedoes
EndUndoRedoHistory
Fore
SplineSet
544 848 m 0,0,1
 554 855 554 855 562 855 c 0,2,3
 572 855 572 855 581 846 c 0,4,5
 591 836 591 836 591 826 c 0,6,7
 591 815 591 815 580 806 c 0,8,9
 527 762 527 762 474 762 c 0,10,11
 433 762 433 762 399 778 c 0,12,13
 365 793 365 793 355 793 c 0,14,15
 337 793 337 793 301 774 c 0,16,17
 289 768 289 768 280 768 c 0,18,19
 268 768 268 768 259 780 c 0,20,21
 251 791 251 791 251 800 c 128,-1,22
 251 809 251 809 260 816 c 0,23,24
 317 857 317 857 367 857 c 0,25,26
 398 857 398 857 443 839 c 0,27,28
 473 826 473 826 487 826 c 0,29,30
 511 826 511 826 544 848 c 0,0,1
402 706 m 0,31,32
 537 706 537 706 607.5 633.5 c 128,-1,33
 678 561 678 561 678 420 c 0,34,35
 678 215 678 215 584 104.5 c 128,-1,36
 490 -6 490 -6 327 -6 c 0,37,38
 193 -6 193 -6 123 67 c 128,-1,39
 53 140 53 140 53 282 c 0,40,41
 53 348 53 348 64 407 c 128,-1,42
 75 466 75 466 100.5 521.5 c 128,-1,43
 126 577 126 577 165 617.5 c 128,-1,44
 204 658 204 658 265 682 c 128,-1,45
 326 706 326 706 402 706 c 0,31,32
394 630 m 0,46,47
 278 630 278 630 211 543 c 128,-1,48
 144 456 144 456 144 291 c 0,49,50
 144 182 144 182 192.5 126 c 128,-1,51
 241 70 241 70 335 70 c 0,52,53
 450 70 450 70 518 158.5 c 128,-1,54
 586 247 586 247 586 410 c 0,55,56
 586 519 586 519 537 574.5 c 128,-1,57
 488 630 488 630 394 630 c 0,46,47
EndSplineSet
Validated: 1
Position2: "'cpsp' Capital Spacing lookup 3 subtable" dx=5 dy=0 dh=10 dv=0
EndChar

StartChar: OE
Encoding: 338 338 130
Width: 1021
Flags: MW
HStem: -6 76<272.5 373> 0 76<568.5 940 644 932> 320 76<677 933 669 941> 624 76<701 996 701 701> 630 76<318 447.5 294.5 456.5>
VStem: 53 91<218.5 403 218.5 422> 586 91<396 396 396 483>
LayerCount: 2
UndoRedoHistory
Layer: 1
Undoes
EndUndoes
Redoes
EndRedoes
EndUndoRedoHistory
Fore
SplineSet
1004 700 m 2,0,1
 1021 700 1021 700 1021 678 c 0,2,3
 1021 624 1021 624 996 624 c 2,4,-1
 701 624 l 1,5,-1
 677 396 l 1,6,-1
 941 396 l 2,7,8
 958 396 958 396 958 374 c 0,9,10
 958 320 958 320 933 320 c 2,11,-1
 669 320 l 1,12,-1
 644 76 l 1,13,-1
 940 76 l 2,14,15
 957 76 957 76 957 54 c 0,16,17
 957 0 957 0 932 0 c 2,18,-1
 578 0 l 2,19,20
 551 0 551 0 551 24 c 0,21,22
 551 30 551 30 556 73 c 1,23,24
 468 -6 468 -6 327 -6 c 0,25,26
 193 -6 193 -6 123 67 c 128,-1,27
 53 140 53 140 53 282 c 0,28,29
 53 489 53 489 145.5 597.5 c 128,-1,30
 238 706 238 706 402 706 c 0,31,32
 539 706 539 706 613 629 c 1,33,-1
 618 670 l 2,34,35
 621 700 621 700 651 700 c 2,36,-1
 1004 700 l 2,0,1
335 70 m 0,37,38
 450 70 450 70 518 158.5 c 128,-1,39
 586 247 586 247 586 410 c 0,40,41
 586 519 586 519 537 574.5 c 128,-1,42
 488 630 488 630 394 630 c 0,43,44
 278 630 278 630 211 543 c 128,-1,45
 144 456 144 456 144 291 c 0,46,47
 144 182 144 182 192.5 126 c 128,-1,48
 241 70 241 70 335 70 c 0,37,38
EndSplineSet
Validated: 1
Position2: "'cpsp' Capital Spacing lookup 3 subtable" dx=5 dy=0 dh=10 dv=0
EndChar

StartChar: P
Encoding: 80 80 131
Width: 570
Flags: MW
HStem: -2 21G<73 88 88 96> 298 76<175 322 167 331> 624 76<201 201 201 343>
VStem: 467 92<459 563>
LayerCount: 2
UndoRedoHistory
Layer: 1
Undoes
EndUndoes
Redoes
EndRedoes
EndUndoRedoHistory
Fore
SplineSet
354 700 m 2,0,1
 389 700 389 700 421 693.5 c 128,-1,2
 453 687 453 687 486 670.5 c 128,-1,3
 519 654 519 654 539 619 c 128,-1,4
 559 584 559 584 559 533 c 0,5,6
 559 474 559 474 539 428.5 c 128,-1,7
 519 383 519 383 491 359 c 128,-1,8
 463 335 463 335 427.5 320.5 c 128,-1,9
 392 306 392 306 367 302 c 128,-1,10
 342 298 342 298 322 298 c 2,11,-1
 167 298 l 1,12,-1
 138 20 l 2,13,14
 135 -2 135 -2 96 -2 c 2,15,-1
 88 -2 l 2,16,17
 50 -2 50 -2 50 20 c 1,18,-1
 118 670 l 2,19,20
 121 700 121 700 151 700 c 2,21,-1
 354 700 l 2,0,1
201 624 m 1,22,-1
 175 374 l 1,23,-1
 331 374 l 2,24,25
 349 374 349 374 369.5 380 c 128,-1,26
 390 386 390 386 413.5 400.5 c 128,-1,27
 437 415 437 415 452 446.5 c 128,-1,28
 467 478 467 478 467 521 c 0,29,30
 467 578 467 578 430.5 601 c 128,-1,31
 394 624 394 624 343 624 c 2,32,-1
 201 624 l 1,22,-1
EndSplineSet
Validated: 1
Position2: "'cpsp' Capital Spacing lookup 3 subtable" dx=5 dy=0 dh=10 dv=0
EndChar

StartChar: Thorn
Encoding: 222 222 132
Width: 567
Flags: MW
HStem: -2 21G<73 88 88 96> 176 76<162 309 154 318> 502 76<188 341 196 330> 682 20G<161 169 169 183.5>
VStem: 454 92<337 441>
LayerCount: 2
UndoRedoHistory
Layer: 1
Undoes
EndUndoes
Redoes
EndRedoes
EndUndoRedoHistory
Fore
SplineSet
169 702 m 2,0,1
 207 702 207 702 207 680 c 1,2,-1
 196 578 l 1,3,-1
 341 578 l 2,4,5
 376 578 376 578 408 571.5 c 128,-1,6
 440 565 440 565 473 548.5 c 128,-1,7
 506 532 506 532 526 497 c 128,-1,8
 546 462 546 462 546 411 c 0,9,10
 546 351 546 351 527.5 306 c 128,-1,11
 509 261 509 261 482.5 237 c 128,-1,12
 456 213 456 213 421 198.5 c 128,-1,13
 386 184 386 184 360 180 c 128,-1,14
 334 176 334 176 309 176 c 2,15,-1
 154 176 l 1,16,-1
 138 20 l 2,17,18
 135 -2 135 -2 96 -2 c 2,19,-1
 88 -2 l 2,20,21
 50 -2 50 -2 50 20 c 1,22,-1
 119 680 l 2,23,24
 122 702 122 702 161 702 c 2,25,-1
 169 702 l 2,0,1
188 502 m 1,26,-1
 162 252 l 1,27,-1
 318 252 l 2,28,29
 336 252 336 252 356.5 258 c 128,-1,30
 377 264 377 264 400.5 278.5 c 128,-1,31
 424 293 424 293 439 324.5 c 128,-1,32
 454 356 454 356 454 399 c 0,33,34
 454 456 454 456 417.5 479 c 128,-1,35
 381 502 381 502 330 502 c 2,36,-1
 188 502 l 1,26,-1
EndSplineSet
Validated: 1
Position2: "'cpsp' Capital Spacing lookup 3 subtable" dx=5 dy=0 dh=10 dv=0
EndChar

StartChar: Q
Encoding: 81 81 133
Width: 731
Flags: MW
HStem: 630 76<328 464>
VStem: 60 92<217.5 399.5 217.5 417.5> 593 92<302 477>
LayerCount: 2
UndoRedoHistory
Layer: 1
Undoes
EndUndoes
Redoes
EndRedoes
EndUndoRedoHistory
Fore
SplineSet
638 -62 m 1,0,1
 650 -67 650 -67 650 -82 c 0,2,3
 650 -157 650 -157 629 -157 c 0,4,5
 621 -157 621 -157 527.5 -120 c 128,-1,6
 434 -83 434 -83 328 -39.5 c 128,-1,7
 222 4 222 4 217 6 c 0,8,9
 60 67 60 67 60 278 c 0,10,11
 60 484 60 484 153.5 595 c 128,-1,12
 247 706 247 706 410 706 c 0,13,14
 545 706 545 706 615 632.5 c 128,-1,15
 685 559 685 559 685 417 c 0,16,17
 685 248 685 248 620.5 141 c 128,-1,18
 556 34 556 34 444 5 c 1,19,-1
 444 1 l 1,20,-1
 638 -62 l 1,0,1
402 630 m 0,21,22
 289 630 289 630 220.5 540.5 c 128,-1,23
 152 451 152 451 152 290 c 0,24,25
 152 182 152 182 201.5 124.5 c 128,-1,26
 251 67 251 67 343 67 c 0,27,28
 457 67 457 67 525 155.5 c 128,-1,29
 593 244 593 244 593 404 c 0,30,31
 593 514 593 514 544 572 c 128,-1,32
 495 630 495 630 402 630 c 0,21,22
EndSplineSet
Validated: 1
Position2: "'cpsp' Capital Spacing lookup 3 subtable" dx=5 dy=0 dh=10 dv=0
EndChar

StartChar: R
Encoding: 82 82 134
Width: 610
Flags: MW
HStem: -2 21G<73 88 88 96 481 491 491 501> 308 76<176 258 168 308> 624 76<201 201 201 319 319 326>
VStem: 450 93<498 559>
LayerCount: 2
UndoRedoHistory
Layer: 1
Undoes
EndUndoes
Redoes
EndRedoes
EndUndoRedoHistory
Fore
SplineSet
319 700 m 2,0,1
 430 700 430 700 486.5 663.5 c 128,-1,2
 543 627 543 627 543 548 c 0,3,4
 543 476 543 476 507 427 c 128,-1,5
 471 378 471 378 409 354 c 1,6,-1
 409 350 l 1,7,8
 435 340 435 340 451.5 310.5 c 128,-1,9
 468 281 468 281 485 225 c 2,10,-1
 543 28 l 2,11,12
 545 20 545 20 545 17 c 0,13,14
 545 -2 545 -2 501 -2 c 2,15,-1
 491 -2 l 2,16,17
 456 -2 456 -2 452 14 c 2,18,-1
 397 210 l 2,19,20
 381 267 381 267 350 287.5 c 128,-1,21
 319 308 319 308 258 308 c 2,22,-1
 168 308 l 1,23,-1
 138 20 l 2,24,25
 135 -2 135 -2 96 -2 c 2,26,-1
 88 -2 l 2,27,28
 50 -2 50 -2 50 20 c 1,29,-1
 118 670 l 2,30,31
 121 700 121 700 151 700 c 2,32,-1
 319 700 l 2,0,1
201 624 m 1,33,-1
 176 384 l 1,34,-1
 308 384 l 2,35,36
 367 384 367 384 408.5 426.5 c 128,-1,37
 450 469 450 469 450 525 c 0,38,39
 450 575 450 575 417 599.5 c 128,-1,40
 384 624 384 624 326 624 c 2,41,-1
 201 624 l 1,33,-1
EndSplineSet
Validated: 1
Position2: "'cpsp' Capital Spacing lookup 3 subtable" dx=5 dy=0 dh=10 dv=0
EndChar

StartChar: Racute
Encoding: 340 340 135
Width: 610
Flags: MW
HStem: -2 21G<73 88 88 96 481 491 491 501> 308 76<176 258 168 308> 624 76<201 319 319 326 201 201>
VStem: 450 93<498 559>
LayerCount: 2
UndoRedoHistory
Layer: 1
Undoes
EndUndoes
Redoes
EndRedoes
EndUndoRedoHistory
Fore
SplineSet
401 909 m 128,-1,1
 448 909 448 909 448 897 c 0,2,3
 448 888 448 888 383 821 c 0,4,5
 358 796 358 796 342 780 c 0,6,7
 324 762 324 762 289 762 c 0,8,9
 267 762 267 762 267 771 c 0,10,11
 267 783 267 783 336 883 c 0,12,0
 354 909 354 909 401 909 c 128,-1,1
319 700 m 2,13,14
 430 700 430 700 486.5 663.5 c 128,-1,15
 543 627 543 627 543 548 c 0,16,17
 543 476 543 476 507 427 c 128,-1,18
 471 378 471 378 409 354 c 1,19,-1
 409 350 l 1,20,21
 435 340 435 340 451.5 310.5 c 128,-1,22
 468 281 468 281 485 225 c 2,23,-1
 543 28 l 2,24,25
 545 20 545 20 545 17 c 0,26,27
 545 -2 545 -2 501 -2 c 2,28,-1
 491 -2 l 2,29,30
 456 -2 456 -2 452 14 c 2,31,-1
 397 210 l 2,32,33
 381 267 381 267 350 287.5 c 128,-1,34
 319 308 319 308 258 308 c 2,35,-1
 168 308 l 1,36,-1
 138 20 l 2,37,38
 135 -2 135 -2 96 -2 c 2,39,-1
 88 -2 l 2,40,41
 50 -2 50 -2 50 20 c 1,42,-1
 118 670 l 2,43,44
 121 700 121 700 151 700 c 2,45,-1
 319 700 l 2,13,14
176 384 m 1,46,-1
 308 384 l 2,47,48
 367 384 367 384 408.5 426.5 c 128,-1,49
 450 469 450 469 450 525 c 0,50,51
 450 575 450 575 417 599.5 c 128,-1,52
 384 624 384 624 326 624 c 2,53,-1
 201 624 l 1,54,-1
 176 384 l 1,46,-1
EndSplineSet
Validated: 1
Position2: "'cpsp' Capital Spacing lookup 3 subtable" dx=5 dy=0 dh=10 dv=0
EndChar

StartChar: Rcaron
Encoding: 344 344 136
Width: 610
Flags: MW
HStem: -2 21G<73 88 88 96 481 491 491 501> 308 76<176 258 168 308> 624 76<201 319 319 326 201 201> 759 142<228 298 228 323>
VStem: 450 93<498 559>
LayerCount: 2
UndoRedoHistory
Layer: 1
Undoes
EndUndoes
Redoes
EndRedoes
EndUndoRedoHistory
Fore
SplineSet
423 901 m 2,0,1
 445 901 445 901 445 887 c 0,2,3
 445 879 445 879 438 869 c 2,4,-1
 371 781 l 2,5,6
 355 759 355 759 323 759 c 2,7,-1
 298 759 l 2,8,9
 266 759 266 759 254 781 c 2,10,-1
 208 869 l 2,11,12
 203 878 203 878 203 887 c 1,13,14
 205 901 205 901 228 901 c 2,15,-1
 230 901 l 2,16,17
 250 901 250 901 263 888 c 1,18,-1
 316 814 l 1,19,-1
 387 888 l 1,20,21
 403 901 403 901 421 901 c 2,22,-1
 423 901 l 2,0,1
319 700 m 2,23,24
 430 700 430 700 486.5 663.5 c 128,-1,25
 543 627 543 627 543 548 c 0,26,27
 543 476 543 476 507 427 c 128,-1,28
 471 378 471 378 409 354 c 1,29,-1
 409 350 l 1,30,31
 435 340 435 340 451.5 310.5 c 128,-1,32
 468 281 468 281 485 225 c 2,33,-1
 543 28 l 2,34,35
 545 20 545 20 545 17 c 0,36,37
 545 -2 545 -2 501 -2 c 2,38,-1
 491 -2 l 2,39,40
 456 -2 456 -2 452 14 c 2,41,-1
 397 210 l 2,42,43
 381 267 381 267 350 287.5 c 128,-1,44
 319 308 319 308 258 308 c 2,45,-1
 168 308 l 1,46,-1
 138 20 l 2,47,48
 135 -2 135 -2 96 -2 c 2,49,-1
 88 -2 l 2,50,51
 50 -2 50 -2 50 20 c 1,52,-1
 118 670 l 2,53,54
 121 700 121 700 151 700 c 2,55,-1
 319 700 l 2,23,24
176 384 m 1,56,-1
 308 384 l 2,57,58
 367 384 367 384 408.5 426.5 c 128,-1,59
 450 469 450 469 450 525 c 0,60,61
 450 575 450 575 417 599.5 c 128,-1,62
 384 624 384 624 326 624 c 2,63,-1
 201 624 l 1,64,-1
 176 384 l 1,56,-1
EndSplineSet
Validated: 1
Position2: "'cpsp' Capital Spacing lookup 3 subtable" dx=5 dy=0 dh=10 dv=0
EndChar

StartChar: Rcommaaccent
Encoding: 342 342 137
Width: 610
Flags: MW
HStem: -235 21G<189.5 211.5> -2 21G<73 88 88 96 481 491 491 501> 308 76<176 258 168 308> 624 76<201 319 319 326 201 201>
VStem: 225 90<-108 -73.5> 450 93<498 559>
LayerCount: 2
UndoRedoHistory
Layer: 1
Undoes
EndUndoes
Redoes
EndRedoes
EndUndoRedoHistory
Fore
SplineSet
319 700 m 2,0,1
 430 700 430 700 486.5 663.5 c 128,-1,2
 543 627 543 627 543 548 c 0,3,4
 543 476 543 476 507 427 c 128,-1,5
 471 378 471 378 409 354 c 1,6,-1
 409 350 l 1,7,8
 435 340 435 340 451.5 310.5 c 128,-1,9
 468 281 468 281 485 225 c 2,10,-1
 543 28 l 2,11,12
 545 20 545 20 545 17 c 0,13,14
 545 -2 545 -2 501 -2 c 2,15,-1
 491 -2 l 2,16,17
 456 -2 456 -2 452 14 c 2,18,-1
 397 210 l 2,19,20
 381 267 381 267 350 287.5 c 128,-1,21
 319 308 319 308 258 308 c 2,22,-1
 168 308 l 1,23,-1
 138 20 l 2,24,25
 135 -2 135 -2 96 -2 c 2,26,-1
 88 -2 l 2,27,28
 50 -2 50 -2 50 20 c 1,29,-1
 118 670 l 2,30,31
 121 700 121 700 151 700 c 2,32,-1
 319 700 l 2,0,1
176 384 m 1,33,-1
 308 384 l 2,34,35
 367 384 367 384 408.5 426.5 c 128,-1,36
 450 469 450 469 450 525 c 0,37,38
 450 575 450 575 417 599.5 c 128,-1,39
 384 624 384 624 326 624 c 2,40,-1
 201 624 l 1,41,-1
 176 384 l 1,33,-1
278 -51 m 2,42,43
 315 -51 315 -51 315 -79 c 0,44,45
 315 -120 315 -120 268.5 -177.5 c 128,-1,46
 222 -235 222 -235 195 -235 c 128,-1,47
 168 -235 168 -235 168 -220 c 0,48,49
 168 -209 168 -209 196.5 -164 c 128,-1,50
 225 -119 225 -119 225 -83 c 0,51,52
 225 -69 225 -69 237 -60 c 128,-1,53
 249 -51 249 -51 269 -51 c 2,54,-1
 278 -51 l 2,42,43
EndSplineSet
Validated: 1
Position2: "'cpsp' Capital Spacing lookup 3 subtable" dx=5 dy=0 dh=10 dv=0
EndChar

StartChar: Rdotbelow
Encoding: 7770 7770 138
Width: 610
Flags: MW
HStem: -175 95<251 269> -2 21G<73 88 88 96 481 491 491 501> 308 76<176 258 168 308> 624 76<201 319 319 326 201 201>
VStem: 216 89<-160 -95> 450 93<498 559>
LayerCount: 2
UndoRedoHistory
Layer: 1
Undoes
EndUndoes
Redoes
EndRedoes
EndUndoRedoHistory
Fore
SplineSet
319 700 m 2,0,1
 430 700 430 700 486.5 663.5 c 128,-1,2
 543 627 543 627 543 548 c 0,3,4
 543 476 543 476 507 427 c 128,-1,5
 471 378 471 378 409 354 c 1,6,-1
 409 350 l 1,7,8
 435 340 435 340 451.5 310.5 c 128,-1,9
 468 281 468 281 485 225 c 2,10,-1
 543 28 l 2,11,12
 545 20 545 20 545 17 c 0,13,14
 545 -2 545 -2 501 -2 c 2,15,-1
 491 -2 l 2,16,17
 456 -2 456 -2 452 14 c 2,18,-1
 397 210 l 2,19,20
 381 267 381 267 350 287.5 c 128,-1,21
 319 308 319 308 258 308 c 2,22,-1
 168 308 l 1,23,-1
 138 20 l 2,24,25
 135 -2 135 -2 96 -2 c 2,26,-1
 88 -2 l 2,27,28
 50 -2 50 -2 50 20 c 1,29,-1
 118 670 l 2,30,31
 121 700 121 700 151 700 c 2,32,-1
 319 700 l 2,0,1
176 384 m 1,33,-1
 308 384 l 2,34,35
 367 384 367 384 408.5 426.5 c 128,-1,36
 450 469 450 469 450 525 c 0,37,38
 450 575 450 575 417 599.5 c 128,-1,39
 384 624 384 624 326 624 c 2,40,-1
 201 624 l 1,41,-1
 176 384 l 1,33,-1
221 -102 m 2,42,43
 224 -80 224 -80 267 -80 c 0,44,45
 305 -80 305 -80 305 -102 c 1,46,-1
 300 -153 l 2,47,48
 297 -175 297 -175 254 -175 c 0,49,50
 216 -175 216 -175 216 -153 c 1,51,-1
 221 -102 l 2,42,43
EndSplineSet
Validated: 1
Position2: "'cpsp' Capital Spacing lookup 3 subtable" dx=5 dy=0 dh=10 dv=0
EndChar

StartChar: S
Encoding: 83 83 139
Width: 500
Flags: MW
HStem: -6 76<183 253.5 163.5 277.5> 630 76<261.5 337 237 338.5>
VStem: 67 90<478 551 478 561.5> 359 91<162 235>
LayerCount: 2
UndoRedoHistory
Layer: 1
Undoes
EndUndoes
Redoes
EndRedoes
EndUndoRedoHistory
Fore
SplineSet
309 706 m 0,0,1
 358 706 358 706 411 688.5 c 128,-1,2
 464 671 464 671 464 646 c 0,3,4
 464 636 464 636 448.5 614 c 128,-1,5
 433 592 433 592 426 592 c 0,6,7
 422 592 422 592 406 601.5 c 128,-1,8
 390 611 390 611 362 620.5 c 128,-1,9
 334 630 334 630 299 630 c 0,10,11
 239 630 239 630 198 599 c 128,-1,12
 157 568 157 568 157 511 c 0,13,14
 157 487 157 487 166 469.5 c 128,-1,15
 175 452 175 452 196.5 438.5 c 128,-1,16
 218 425 218 425 234 418 c 128,-1,17
 250 411 250 411 283 398 c 0,18,19
 322 382 322 382 344 371 c 128,-1,20
 366 360 366 360 394.5 338.5 c 128,-1,21
 423 317 423 317 436.5 286.5 c 128,-1,22
 450 256 450 256 450 215 c 0,23,24
 450 114 450 114 382.5 54 c 128,-1,25
 315 -6 315 -6 206 -6 c 0,26,27
 154 -6 154 -6 95 9.5 c 128,-1,28
 36 25 36 25 36 56 c 0,29,30
 36 121 36 121 52 121 c 0,31,32
 54 121 54 121 74 108.5 c 128,-1,33
 94 96 94 96 131.5 83 c 128,-1,34
 169 70 169 70 214 70 c 0,35,36
 275 70 275 70 317 107 c 128,-1,37
 359 144 359 144 359 201 c 0,38,39
 359 225 359 225 349.5 243.5 c 128,-1,40
 340 262 340 262 317 277 c 128,-1,41
 294 292 294 292 278 300 c 128,-1,42
 262 308 262 308 227 322 c 0,43,44
 196 334 196 334 179.5 341.5 c 128,-1,45
 163 349 163 349 138 365 c 128,-1,46
 113 381 113 381 100 398 c 128,-1,47
 87 415 87 415 77 441.5 c 128,-1,48
 67 468 67 468 67 501 c 0,49,50
 67 592 67 592 134 649 c 128,-1,51
 201 706 201 706 309 706 c 0,0,1
EndSplineSet
Validated: 1
Position2: "'cpsp' Capital Spacing lookup 3 subtable" dx=5 dy=0 dh=10 dv=0
EndChar

StartChar: Sacute
Encoding: 346 346 140
Width: 500
Flags: MW
HStem: -6 76<183 253.5 163.5 277.5> 630 76<261.5 337 237 338.5>
VStem: 67 90<478 551 478 561.5> 359 91<162 235>
LayerCount: 2
UndoRedoHistory
Layer: 1
Undoes
EndUndoes
Redoes
EndRedoes
EndUndoRedoHistory
Fore
SplineSet
396 909 m 128,-1,1
 443 909 443 909 443 897 c 0,2,3
 443 888 443 888 378 821 c 0,4,5
 353 796 353 796 337 780 c 0,6,7
 319 762 319 762 284 762 c 0,8,9
 262 762 262 762 262 771 c 0,10,11
 262 783 262 783 331 883 c 0,12,0
 349 909 349 909 396 909 c 128,-1,1
309 706 m 0,13,14
 358 706 358 706 411 688.5 c 128,-1,15
 464 671 464 671 464 646 c 0,16,17
 464 636 464 636 448.5 614 c 128,-1,18
 433 592 433 592 426 592 c 0,19,20
 422 592 422 592 406 601.5 c 128,-1,21
 390 611 390 611 362 620.5 c 128,-1,22
 334 630 334 630 299 630 c 0,23,24
 239 630 239 630 198 599 c 128,-1,25
 157 568 157 568 157 511 c 0,26,27
 157 487 157 487 166 469.5 c 128,-1,28
 175 452 175 452 196.5 438.5 c 128,-1,29
 218 425 218 425 234 418 c 128,-1,30
 250 411 250 411 283 398 c 0,31,32
 322 382 322 382 344 371 c 128,-1,33
 366 360 366 360 394.5 338.5 c 128,-1,34
 423 317 423 317 436.5 286.5 c 128,-1,35
 450 256 450 256 450 215 c 0,36,37
 450 114 450 114 382.5 54 c 128,-1,38
 315 -6 315 -6 206 -6 c 0,39,40
 154 -6 154 -6 95 9.5 c 128,-1,41
 36 25 36 25 36 56 c 0,42,43
 36 121 36 121 52 121 c 0,44,45
 54 121 54 121 74 108.5 c 128,-1,46
 94 96 94 96 131.5 83 c 128,-1,47
 169 70 169 70 214 70 c 0,48,49
 275 70 275 70 317 107 c 128,-1,50
 359 144 359 144 359 201 c 0,51,52
 359 225 359 225 349.5 243.5 c 128,-1,53
 340 262 340 262 317 277 c 128,-1,54
 294 292 294 292 278 300 c 128,-1,55
 262 308 262 308 227 322 c 0,56,57
 196 334 196 334 179.5 341.5 c 128,-1,58
 163 349 163 349 138 365 c 128,-1,59
 113 381 113 381 100 398 c 128,-1,60
 87 415 87 415 77 441.5 c 128,-1,61
 67 468 67 468 67 501 c 0,62,63
 67 592 67 592 134 649 c 128,-1,64
 201 706 201 706 309 706 c 0,13,14
EndSplineSet
Validated: 1
Substitution2: "'locl' Localized Forms in Latin lookup 12 subtable" Sacute.loclPLK
Substitution2: "'aalt' Access All Alternates lookup 0 subtable" Sacute.loclPLK
Position2: "'cpsp' Capital Spacing lookup 3 subtable" dx=5 dy=0 dh=10 dv=0
EndChar

